<svg width="682" height="432" viewBox="0 0 682 432" fill="none" xmlns="http://www.w3.org/2000/svg">
<path d="M347.037 34.4205C349.813 34.4205 352.711 34.3803 355.286 33.2935C357.861 32.2068 360.075 29.7515 359.994 26.9743C359.914 22.909 355.407 20.494 351.463 19.6488C347.48 18.8438 343.013 18.562 340.196 15.664C338.667 14.0943 337.862 11.961 336.212 10.5523C332.711 7.57376 327.36 9.22401 323.295 11.3573C319.231 13.4905 314.603 16.0263 310.338 14.4163C308.246 13.6113 306.636 11.961 304.704 10.834C300.519 8.37876 294.805 8.78126 291.063 11.8805C289.816 12.8868 288.769 14.1345 287.441 14.9798C282.371 18.1595 275.651 14.376 269.897 15.9458C263.861 17.596 260.199 26.0485 264.344 31.281C268.529 36.5538 279.112 34.501 284.826 34.501C305.509 34.4608 326.273 34.4608 347.037 34.4205Z" fill="white"/>
<path d="M224.344 431.366C282.77 431.366 330.135 429.186 330.135 426.496C330.135 423.806 282.77 421.626 224.344 421.626C165.917 421.626 118.553 423.806 118.553 426.496C118.553 429.186 165.917 431.366 224.344 431.366Z" fill="#04328B"/>
<path d="M513.308 431.366C550.645 431.366 580.911 429.817 580.911 427.905C580.911 425.993 550.645 424.443 513.308 424.443C475.972 424.443 445.705 425.993 445.705 427.905C445.705 429.817 475.972 431.366 513.308 431.366Z" fill="#04328B"/>
<path d="M496.247 160.323C496.247 160.323 471.016 208.221 471.419 210.877C471.821 213.534 476.368 217.639 479.628 218.042C482.927 218.444 492.384 209.75 493.39 207.818C494.476 205.926 496.247 160.323 496.247 160.323Z" fill="#50ACF2"/>
<path d="M483.974 215.546C485.543 210.998 484.698 206.007 482.002 202.062C473.552 189.826 450.695 156.781 450.132 156.781C449.448 156.781 438.744 164.066 438.744 164.066C438.744 164.066 461.359 215.063 469.085 219.249C474.96 222.469 481.439 222.952 483.974 215.546Z" fill="#50ACF2"/>
<path d="M491.699 237.966C491.699 237.966 478.42 302.527 477.776 319.995C477.213 336.095 478.862 352.517 480.07 368.537C480.713 377.553 481.478 386.569 482.363 395.544C482.967 401.824 483.168 408.223 484.576 414.382C484.818 415.388 484.979 417.4 485.824 417.924C486.709 418.487 489.848 418.044 490.934 418.085C494.355 418.245 497.775 418.447 501.196 418.085C504.294 417.762 503.449 415.509 503.449 412.772C503.449 405.849 502.483 398.966 502.161 392.043C501.719 382.584 501.276 373.125 500.874 363.667C500.27 349.66 499.063 335.451 499.304 321.404C499.304 321.082 499.304 320.72 499.345 320.398C499.787 316.292 514.756 267.872 517.453 270.126C520.149 272.38 522.603 314.521 522.523 320.398C522.482 324.503 523.77 328.931 524.495 332.956C526.024 341.207 527.673 349.458 529.364 357.71C531.295 367.128 533.267 376.547 535.359 385.925C537.049 393.613 538.78 401.26 540.751 408.908C541.154 410.518 542.281 417.924 544.413 417.964C549.926 417.964 555.399 417.964 560.912 417.964C561.918 417.964 562.924 418.246 562.723 416.837C562.36 413.738 561.314 410.638 560.711 407.579C559.946 403.675 559.222 399.731 558.457 395.826C556.566 385.925 554.715 376.023 552.864 366.162C551.093 356.623 549.323 347.043 547.673 337.464C546.707 331.99 545.419 326.395 545.097 320.841C545.097 320.559 545.057 320.277 545.057 320.036C545.5 315.528 552.944 247.143 552.059 241.709C551.093 236.235 491.699 237.966 491.699 237.966Z" fill="#61656C"/>
<path d="M488.561 414.06C488.601 415.549 488.641 417.038 488.682 418.527C488.682 418.89 488.682 419.252 488.561 419.574C488.36 420.057 487.837 420.379 487.354 420.62C484.295 422.11 480.915 422.673 477.656 423.639C476.65 423.921 475.604 424.283 474.839 425.048C474.074 425.772 473.712 427.02 474.195 427.946C483.169 427.986 491.941 427.704 500.874 427.221C501.237 426.899 501.357 426.416 501.438 425.933C501.639 424.283 501.518 422.633 501.035 421.023C500.754 420.137 500.432 419.171 500.391 418.246C500.351 416.958 500.271 415.629 500.23 414.341C496.247 414.221 492.464 414.14 488.561 414.06Z" fill="#242B31"/>
<path d="M547.994 414.06C548.035 415.549 548.075 417.038 548.115 418.527C548.115 418.89 548.115 419.252 547.994 419.574C547.793 420.057 547.27 420.379 546.787 420.62C543.729 422.11 540.349 422.673 537.089 423.639C536.083 423.921 535.037 424.283 534.273 425.048C533.508 425.772 533.146 427.02 533.629 427.946C542.602 427.986 551.375 427.704 560.308 427.221C560.67 426.899 560.791 426.416 560.871 425.933C561.073 424.283 560.952 422.633 560.469 421.023C560.187 420.137 559.865 419.171 559.825 418.246C559.785 416.958 559.704 415.629 559.664 414.341C555.68 414.221 551.898 414.14 547.994 414.06Z" fill="#242B31"/>
<path d="M507.475 139.071C507.515 139.474 507.555 139.796 507.877 139.997C508.521 140.48 509.728 140.641 510.291 140.762C511.136 140.963 512.706 141.245 512.625 142.412C512.625 142.493 512.625 142.533 512.585 142.613C512.303 143.982 509.889 151.066 509.889 151.066L523.088 156.5C523.088 156.5 530.894 126.554 530.371 126.03C529.848 125.507 516.408 117.578 513.148 120.194C513.148 120.194 511.66 127.318 510.976 128.123C510.291 128.888 506.267 131.303 506.911 132.148C507.555 132.994 509.004 132.994 508.843 133.275C508.843 133.275 508.843 133.96 508.682 134.443C508.722 134.362 507.434 138.548 507.475 139.071Z" fill="#EFAE97"/>
<path d="M520.876 131.424C520.513 131.384 520.272 131.022 520.071 130.74C518.743 128.727 520.715 126.433 519.467 124.38C518.823 123.334 515.886 122.046 514.276 121.402C512.868 120.838 513.069 120.758 512.828 121.724C512.787 121.845 512.747 122.006 512.586 122.046C512.465 122.086 512.304 122.006 512.184 121.925C510.413 120.476 509.367 118.866 509.689 116.572C509.93 114.922 510.936 113.432 512.345 112.507C514.236 111.219 517.173 110.856 519.185 112.024C520.554 112.788 521.358 114.157 522.324 115.284C523.612 116.813 524.698 117.337 526.71 117.337C528.843 117.296 531.056 117.82 532.787 119.148C534.235 120.275 535.161 122.046 535.201 123.857C535.201 126.192 533.43 127.963 532.907 130.136C532.465 131.988 532.706 133.92 532.022 135.731C531.257 137.784 529.125 141.728 526.429 141.326C525.382 141.165 524.819 140.44 524.296 139.595C523.652 138.548 522.405 135.57 522.727 134.362C524.215 134.564 525.865 133.638 526.388 132.229C526.509 131.947 526.59 131.625 526.549 131.303C526.509 130.941 526.348 130.579 526.147 130.257C525.664 129.573 524.859 129.09 524.014 129.049C523.169 129.009 522.324 129.371 521.841 130.096C521.6 130.619 521.358 131.102 520.876 131.424Z" fill="#242B31"/>
<path d="M511.458 141.084C511.458 141.084 517.615 141.728 517.413 143.7C517.212 145.672 511.297 147.041 511.297 147.041C511.297 147.041 512.705 142.734 512.665 142.251C512.544 141.768 511.458 141.084 511.458 141.084Z" fill="#E59E85"/>
<path d="M522.563 149.778C522.563 149.778 547.834 148.571 551.777 184.434C555.721 220.296 559.705 254.629 551.777 257.246C543.85 259.902 490.21 260.305 486.709 255.032C485.14 252.697 489.808 235.953 491.176 218.002C492.906 195.542 491.86 170.829 493.55 165.637C493.952 164.47 494.435 163.343 494.999 162.296C499.063 154.769 506.91 150.1 515.441 149.899L522.563 149.778Z" fill="#77C1F9"/>
<path d="M528.037 150.463C528.037 150.463 519.184 174.854 516.246 175.297C513.268 175.74 506.83 151.791 506.83 151.791C506.83 151.791 511.136 149.617 518.62 149.416C526.025 149.255 528.037 150.463 528.037 150.463Z" fill="white"/>
<path d="M516.367 152.878C515.2 151.912 514.757 149.698 514.757 149.698C514.757 149.698 516.93 149.054 519.707 149.416C519.707 149.416 519.707 151.429 518.902 152.556C518.902 152.556 520.995 167.891 520.27 169.38C519.546 170.829 517.574 175.297 516.206 175.337C514.838 175.377 512.705 170.105 512.544 169.702C512.424 169.3 515.683 155.212 516.367 152.878Z" fill="#E45450"/>
<path d="M517.856 191.437C518.138 191.034 518.097 190.511 517.896 190.068C517.856 190.028 517.856 189.988 517.816 189.948C517.816 189.867 517.775 189.746 517.735 189.666C517.615 189.424 517.373 189.263 517.091 189.183C516.649 189.062 516.166 189.263 515.723 189.465C515.562 189.545 515.401 189.666 515.24 189.787C515.039 189.988 514.918 190.27 514.918 190.551C514.878 190.994 515.12 191.477 515.482 191.759C515.844 192.081 516.287 192.242 516.77 192.161C517.212 192.081 517.615 191.799 517.856 191.437ZM516.77 190.712C516.729 190.753 516.729 190.793 516.689 190.793C516.729 190.793 516.77 190.753 516.77 190.712Z" fill="#242B31"/>
<path d="M515.2 209.228C515.159 209.67 515.401 210.153 515.763 210.435C516.125 210.757 516.568 210.918 517.051 210.838C517.493 210.797 517.896 210.516 518.137 210.113C518.419 209.711 518.379 209.187 518.177 208.745C518.137 208.704 518.137 208.664 518.097 208.624C518.097 208.543 518.057 208.423 518.016 208.342C517.896 208.101 517.654 207.94 517.373 207.859C516.93 207.698 516.447 207.94 516.004 208.141C515.844 208.221 515.683 208.342 515.522 208.463C515.361 208.704 515.24 208.946 515.2 209.228ZM517.01 209.509C517.051 209.469 517.051 209.469 517.091 209.429C517.051 209.469 517.01 209.509 517.01 209.509Z" fill="#242B31"/>
<path d="M515.481 227.944C515.441 228.387 515.682 228.87 516.044 229.152C516.406 229.474 516.849 229.635 517.332 229.554C517.775 229.514 518.177 229.232 518.418 228.83C518.7 228.427 518.66 227.904 518.459 227.461C518.418 227.421 518.418 227.381 518.378 227.34C518.378 227.26 518.338 227.139 518.298 227.058C518.177 226.817 517.936 226.656 517.654 226.576C517.211 226.455 516.728 226.656 516.286 226.857C516.125 226.938 515.964 227.059 515.803 227.179C515.642 227.381 515.521 227.662 515.481 227.944ZM517.292 228.226C517.332 228.186 517.332 228.186 517.372 228.145C517.332 228.186 517.292 228.186 517.292 228.226Z" fill="#242B31"/>
<path d="M515.764 246.62C515.724 247.063 515.965 247.546 516.327 247.827C516.69 248.149 517.132 248.31 517.615 248.23C518.058 248.19 518.46 247.908 518.702 247.505C518.983 247.103 518.943 246.58 518.742 246.137C518.702 246.097 518.702 246.056 518.661 246.016C518.661 245.936 518.621 245.815 518.581 245.734C518.46 245.493 518.219 245.332 517.937 245.251C517.494 245.131 517.012 245.332 516.569 245.533C516.408 245.614 516.247 245.734 516.086 245.855C515.925 246.097 515.804 246.338 515.764 246.62ZM517.575 246.942C517.615 246.902 517.615 246.902 517.655 246.861C517.615 246.861 517.575 246.902 517.575 246.942Z" fill="#242B31"/>
<path d="M479.225 127.358C473.068 148.369 449.085 160.967 427.517 157.425C406.23 153.923 390.657 133.275 391.422 112.023C392.347 86.5448 417.98 69.68 442.084 72.1353C464.578 74.4295 481.479 96.0035 480.674 118.222C480.593 121.442 480.07 124.46 479.225 127.358Z" fill="#F7CB45"/>
<path d="M470.032 117.429C471.294 99.1559 457.111 83.2927 438.355 81.9975C419.598 80.7024 403.371 94.4657 402.11 112.739C400.849 131.012 415.031 146.875 433.787 148.17C452.544 149.465 468.771 135.702 470.032 117.429Z" fill="#DD9226"/>
<mask id="mask0_8_4256" style="mask-type:luminance" maskUnits="userSpaceOnUse" x="402" y="81" width="69" height="68">
<path d="M470.032 117.429C471.294 99.1559 457.111 83.2927 438.355 81.9975C419.598 80.7024 403.371 94.4657 402.11 112.739C400.849 131.012 415.031 146.875 433.787 148.17C452.544 149.465 468.771 135.702 470.032 117.429Z" fill="white"/>
</mask>
<g mask="url(#mask0_8_4256)">
<path d="M426.23 83.2852C426.23 83.2852 407.478 92.0597 404.943 109.448C402.368 126.795 411.1 138.951 420.114 144.344C420.114 144.344 398.545 135.972 399.792 112.788C401 89.5642 426.23 83.2852 426.23 83.2852Z" fill="#CC8221"/>
</g>
<mask id="mask1_8_4256" style="mask-type:luminance" maskUnits="userSpaceOnUse" x="402" y="81" width="69" height="68">
<path d="M470.032 117.429C471.294 99.1559 457.111 83.2927 438.355 81.9975C419.598 80.7024 403.371 94.4657 402.11 112.739C400.849 131.012 415.031 146.875 433.787 148.17C452.544 149.465 468.771 135.702 470.032 117.429Z" fill="white"/>
</mask>
<g mask="url(#mask1_8_4256)">
<path d="M460.998 92.502C460.998 92.502 473.392 106.308 466.752 124.782C460.113 143.257 444.781 148.208 444.781 148.208C444.781 148.208 468.965 142.492 471.903 124.943C474.8 107.435 470.816 97.9357 460.998 92.502Z" fill="#CC8221"/>
</g>
<mask id="mask2_8_4256" style="mask-type:luminance" maskUnits="userSpaceOnUse" x="402" y="81" width="69" height="68">
<path d="M470.032 117.429C471.294 99.1559 457.111 83.2927 438.355 81.9975C419.598 80.7024 403.371 94.4657 402.11 112.739C400.849 131.012 415.031 146.875 433.787 148.17C452.544 149.465 468.771 135.702 470.032 117.429Z" fill="white"/>
</mask>
<g mask="url(#mask2_8_4256)">
<path opacity="0.15" d="M439.671 80.7891C439.671 80.7891 405.386 131.303 405.346 134.563C405.306 137.823 414.963 144.062 414.963 144.062C414.963 144.062 454.72 84.9751 453.312 83.9286C451.984 82.9223 439.671 80.7891 439.671 80.7891Z" fill="#F7CB45"/>
</g>
<mask id="mask3_8_4256" style="mask-type:luminance" maskUnits="userSpaceOnUse" x="402" y="81" width="69" height="68">
<path d="M470.032 117.429C471.294 99.1559 457.111 83.2927 438.355 81.9975C419.598 80.7024 403.371 94.4657 402.11 112.739C400.849 131.012 415.031 146.875 433.787 148.17C452.544 149.465 468.771 135.702 470.032 117.429Z" fill="white"/>
</mask>
<g mask="url(#mask3_8_4256)">
<path opacity="0.15" d="M462.727 89.8057C462.727 89.8057 422.89 149.054 424.942 149.657C426.994 150.221 432.99 152.113 434.559 151.549C436.129 150.986 472.143 100.673 470.815 98.3789C469.447 96.0042 462.727 89.8057 462.727 89.8057Z" fill="#F7CB45"/>
</g>
<path d="M453.431 105.865C451.822 101.719 448.683 98.1771 444.739 96.0036L445.182 94.3534C445.584 92.7434 444.619 91.0529 443.09 90.6101C443.009 90.6101 442.969 90.5699 442.888 90.5699C441.198 90.2076 439.589 91.2139 439.146 92.8239L438.824 93.9911C438.703 93.9911 438.583 93.9509 438.462 93.9509C434.639 93.4277 431.058 94.1119 428.402 95.8829C426.752 96.9696 425.505 98.3784 424.821 99.9079C423.976 101.8 423.734 103.852 424.136 106.026C424.74 109.246 426.873 112.224 430.414 114.921C431.219 115.525 432.064 116.129 432.909 116.652L429.73 128.888C429.408 128.727 429.126 128.526 428.804 128.324C428.643 128.244 428.523 128.123 428.362 128.043L428.241 127.962C428 127.761 427.718 127.56 427.476 127.318C426.953 126.875 426.511 126.392 426.068 125.869C426.068 125.829 425.988 125.789 425.947 125.748L425.907 125.708C425.907 125.668 425.867 125.668 425.867 125.628C425.827 125.587 425.786 125.547 425.786 125.507C425.746 125.467 425.746 125.426 425.706 125.426C425.505 125.145 425.303 124.863 425.142 124.581C424.78 124.018 424.499 123.454 424.217 122.81C423.895 122.086 423.211 121.522 422.366 121.281C421.481 121.039 420.555 121.16 419.831 121.603C418.463 122.488 418.02 124.098 418.704 125.708C420.475 129.773 423.895 133.114 428.16 135.046L427.919 135.972C427.517 137.582 428.482 139.272 430.012 139.715C430.092 139.715 430.132 139.755 430.213 139.755C431.903 140.118 433.512 139.111 433.955 137.501L434.156 136.656C434.277 136.656 434.398 136.696 434.518 136.696C438.18 137.018 441.681 135.65 443.854 133.074C446.268 130.136 447.033 126.312 445.906 122.488C444.981 119.308 442.888 116.29 440.232 114.197C440.192 114.156 440.152 114.116 440.072 114.076L443.13 102.363C443.21 102.403 443.25 102.444 443.291 102.484C443.331 102.484 443.331 102.524 443.371 102.524L443.532 102.645C443.613 102.725 443.693 102.766 443.774 102.846C444.055 103.088 444.337 103.329 444.578 103.571C444.78 103.772 445.021 104.013 445.222 104.215C445.222 104.215 445.263 104.255 445.343 104.335C445.504 104.537 445.625 104.657 445.705 104.738C445.745 104.778 445.786 104.859 445.826 104.939C445.866 104.979 445.947 105.14 445.987 105.181C446.067 105.301 446.148 105.422 446.228 105.543C446.429 105.825 446.59 106.106 446.792 106.428C446.953 106.71 447.114 106.992 447.234 107.274C447.234 107.274 447.274 107.314 447.274 107.394C447.274 107.435 447.315 107.475 447.315 107.475C447.315 107.515 447.315 107.515 447.355 107.555C447.395 107.636 447.395 107.676 447.435 107.757C447.435 107.797 447.476 107.837 447.476 107.877C447.878 108.884 448.683 109.648 449.649 109.93C450.212 110.091 450.775 110.051 451.339 109.89C452.184 109.608 452.908 108.964 453.31 108.159C453.673 107.314 453.713 106.549 453.431 105.865ZM439.83 128.002C439.79 128.083 439.709 128.204 439.669 128.284C439.629 128.365 439.589 128.405 439.548 128.485C439.508 128.566 439.468 128.606 439.428 128.687C439.387 128.727 439.347 128.807 439.307 128.848C439.307 128.888 439.267 128.888 439.267 128.928C439.106 129.129 438.905 129.331 438.703 129.492C438.663 129.492 438.623 129.532 438.623 129.572C438.583 129.612 438.542 129.653 438.502 129.693C438.462 129.733 438.381 129.773 438.341 129.814C438.14 129.934 437.939 130.055 437.738 130.136C437.697 130.136 437.657 130.176 437.617 130.176C437.456 130.216 437.335 130.297 437.174 130.337C437.054 130.377 436.933 130.417 436.812 130.417C436.772 130.417 436.732 130.417 436.691 130.458C436.651 130.458 436.611 130.458 436.53 130.498C436.45 130.498 436.41 130.538 436.369 130.538C436.289 130.538 436.128 130.538 436.088 130.538C436.007 130.538 435.967 130.538 435.887 130.538L438.381 120.999C438.381 120.999 438.381 120.999 438.381 121.039C438.583 121.321 438.784 121.603 438.985 121.925C439.146 122.206 439.307 122.488 439.468 122.77C439.548 122.891 439.589 123.052 439.669 123.172L439.709 123.253C439.709 123.293 439.75 123.333 439.75 123.374C439.951 123.857 440.112 124.42 440.232 125.064C440.232 125.185 440.273 125.265 440.273 125.386C440.273 125.507 440.313 125.628 440.313 125.748C440.313 125.99 440.313 126.272 440.313 126.513V126.674V126.714C440.273 126.875 440.273 127.036 440.232 127.157C440.192 127.278 440.152 127.439 440.112 127.56C440.072 127.64 440.072 127.721 440.031 127.801C439.87 127.801 439.83 127.882 439.83 128.002ZM431.621 107.515C431.581 107.435 431.5 107.354 431.46 107.314C431.339 107.153 431.219 106.992 431.138 106.831C430.977 106.549 430.816 106.308 430.696 106.026C430.696 105.986 430.655 105.945 430.655 105.905V105.865C430.575 105.704 430.535 105.543 430.494 105.422C430.414 105.14 430.333 104.818 430.253 104.537V104.496C430.253 104.335 430.213 104.134 430.213 103.973C430.213 103.893 430.213 103.772 430.213 103.691C430.253 103.571 430.253 103.45 430.253 103.329C430.293 103.088 430.374 102.846 430.414 102.685L430.454 102.605C430.494 102.484 430.575 102.403 430.615 102.283C430.655 102.202 430.696 102.162 430.736 102.081C430.776 102.001 430.857 101.961 430.857 101.92V101.88C431.018 101.679 431.219 101.518 431.42 101.357C431.42 101.357 431.5 101.317 431.5 101.276L431.541 101.236C431.661 101.156 431.742 101.115 431.822 101.035C432.024 100.914 432.225 100.793 432.426 100.713C432.587 100.673 432.708 100.592 432.869 100.512C432.949 100.471 433.07 100.431 433.15 100.391C433.432 100.31 433.754 100.23 434.036 100.149C434.156 100.109 434.317 100.069 434.478 100.069C434.518 100.069 434.559 100.069 434.599 100.029H434.639C435.202 99.9884 435.887 99.9079 436.571 99.9481C436.732 99.9481 436.852 99.9482 437.013 99.9884C437.054 99.9884 437.054 99.9884 437.094 99.9884C437.094 99.9884 437.174 99.9884 437.214 99.9884L434.518 110.252C434.478 110.212 434.398 110.172 434.357 110.131C434.277 110.051 434.197 110.011 434.116 109.93C434.036 109.85 433.915 109.769 433.834 109.689C433.15 109.165 432.587 108.642 432.104 108.159C431.983 108.038 431.863 107.918 431.742 107.757C431.702 107.716 431.661 107.676 431.621 107.596L431.581 107.555L431.621 107.515Z" fill="#F7CB45"/>
<path d="M517.494 266.463C513.269 267.831 462.607 267.71 460.273 264.973C459.911 264.571 459.347 262.921 458.663 260.425C454.639 246.096 446.189 203.27 448.965 198.641C448.965 198.641 483.733 198.239 507.796 198.48C520.15 198.601 529.687 198.883 530.25 199.527C531.86 201.258 521.719 265.094 517.494 266.463Z" fill="#474A4F"/>
<path d="M517.495 266.463C513.27 267.831 462.608 267.711 460.274 264.974C459.912 264.571 459.348 262.921 458.664 260.425C469.448 259.5 496.369 256.722 500.433 252.456C504.377 248.31 506.872 214.017 507.797 198.44C520.151 198.561 529.688 198.843 530.251 199.487C531.861 201.258 521.72 265.094 517.495 266.463Z" fill="#3C4149"/>
<path d="M441.32 162.295C441.32 162.295 436.25 162.255 433.352 161.289C430.415 160.323 424.822 158.753 423.011 156.218C421.723 154.447 422.005 153.722 422.488 153.36C422.97 152.998 429.932 156.419 433.715 157.063C437.497 157.667 445.746 156.58 446.471 156.781C447.155 156.982 447.879 158.029 447.879 158.029L441.32 162.295Z" fill="#EFAE97"/>
<path d="M548.799 170.949C548.799 170.949 565.861 215.788 566.827 224.683C567.833 233.578 507.553 270.045 504.213 269.36C500.874 268.716 494.516 259.137 494.516 259.137C494.516 259.137 544.856 221.704 543.528 218.001C542.2 214.298 529.887 180.166 530.41 178.838C530.933 177.59 548.799 170.949 548.799 170.949Z" fill="#77C1F9"/>
<path d="M556.326 236.838C556.326 236.838 522.645 258.653 523.651 259.177C524.657 259.7 528.399 259.136 529.566 259.096C530.733 259.056 556.447 246.739 556.326 245.21C556.245 243.721 556.326 236.838 556.326 236.838Z" fill="#77C1F9"/>
<path d="M525.742 235.067C525.742 235.067 544.454 220.537 543.569 218.041C542.683 215.546 529.364 177.952 530.45 180.609C531.537 183.265 538.498 214.781 538.176 218.041C537.854 221.302 526.949 228.023 526.949 228.023L525.742 235.067Z" fill="#77C1F9"/>
<path d="M496.809 262.356C496.809 262.356 491.256 263.564 490.25 264.127C489.244 264.651 485.059 266.824 485.944 267.307C486.789 267.83 491.337 269.964 493.872 269.964C496.407 269.964 502.121 268.233 501.759 267.911C501.397 267.589 496.809 262.356 496.809 262.356Z" fill="#EFAE97"/>
<path d="M245.671 145.752C250.983 141.808 254.001 135.327 254.926 128.767C255.852 122.206 255.49 118.422 254.041 111.982C249.132 116.571 242.734 121.481 240.923 127.962C239.152 134.402 241.849 141.928 245.671 145.752Z" fill="#5F965C"/>
<path d="M205.914 193.851C205.914 193.851 213.519 179.482 196.297 161.088C196.297 161.088 185.231 188.337 205.914 193.851Z" fill="#5F965C"/>
<path d="M183.662 177.63C183.662 177.63 188.934 167.648 176.983 154.889C177.023 154.889 169.337 173.806 183.662 177.63Z" fill="#5F965C"/>
<path d="M255.006 256.078C260.358 251.288 263.054 244.003 263.417 236.798C263.819 229.634 263.054 225.528 260.841 218.686C255.972 224.119 249.493 230.036 248.166 237.201C246.878 244.405 250.499 252.294 255.006 256.078Z" fill="#5F965C"/>
<path d="M270.178 128.847C274.363 126.19 277.019 121.521 278.106 116.651C279.192 111.781 279.152 108.923 278.387 104.013C274.444 107.152 269.374 110.453 267.643 115.202C265.913 119.952 267.563 125.748 270.178 128.847Z" fill="#5F965C"/>
<path d="M283.295 239.334C283.295 239.334 278.386 226.856 293.918 214.982C293.918 214.982 296.534 235.59 283.295 239.334Z" fill="#5F965C"/>
<path d="M180.522 290.491C180.522 290.491 164.989 288.237 160.482 264.288C160.482 264.288 188.047 271.211 180.522 290.491Z" fill="#5F965C"/>
<path d="M272.109 246.981C279.232 246.096 286.515 248.833 292.189 253.26C297.863 257.688 300.438 260.908 304.181 267.066C296.897 267.187 291.264 268.233 284.986 264.531C278.709 260.827 274.081 254.025 272.109 246.981Z" fill="#5F965C"/>
<path d="M247.403 263.443C254.525 264.45 260.762 269.038 265.068 274.834C269.374 280.59 270.983 284.414 272.955 291.337C265.873 289.485 257.221 288.197 252.151 282.924C247.081 277.692 245.753 269.078 247.403 263.443Z" fill="#5F965C"/>
<path d="M186.638 295.684C186.638 295.684 168.852 292.343 155.01 316.735C155.01 316.735 187.644 319.512 186.638 295.684Z" fill="#5F965C"/>
<path d="M207.765 305.867C207.765 305.867 219.193 291.82 204.344 268.032C204.385 268.032 186.357 295.402 207.765 305.867Z" fill="#5F965C"/>
<path d="M177.103 177.751C177.103 177.751 163.019 174.088 150.625 192.925C150.625 192.925 176.62 196.91 177.103 177.751Z" fill="#5F965C"/>
<path d="M201.689 194.213C201.689 194.213 188.409 184.875 168.008 199.647C168.008 199.647 193.641 214.056 201.689 194.213Z" fill="#5F965C"/>
<path d="M263.537 133.717C264.382 138.628 267.642 142.854 271.706 145.712C275.77 148.569 278.426 149.656 283.255 150.864C281.846 146.034 280.8 140.036 277.058 136.655C273.315 133.274 267.4 132.469 263.537 133.717Z" fill="#5F965C"/>
<path d="M240.32 150.139C242.936 155.291 248.046 158.873 253.519 160.644C259.032 162.415 262.332 162.657 268.086 162.375C264.867 157.465 261.607 151.226 256.336 148.73C251.064 146.195 244.183 147.442 240.32 150.139Z" fill="#5F965C"/>
<path d="M226.678 133.154C227.281 127.399 224.947 121.643 221.285 117.175C217.664 112.707 215.008 110.695 210.018 107.797C210.059 113.673 209.374 120.677 212.473 125.628C215.531 130.578 221.97 133.315 226.678 133.154Z" fill="#5F965C"/>
<path d="M319.592 230.599C319.109 229.311 323.213 229.069 323.253 227.661C323.294 226.252 320.396 226.01 319.712 225.447C319.028 224.843 322.65 223.797 323.213 222.992C323.817 222.187 316.976 221.462 312.429 222.992C309.974 223.797 309.169 225.366 308.928 226.976C302.53 228.586 296.293 230.639 290.216 233.094C283.255 235.952 276.495 239.253 270.056 243.117C263.578 246.981 257.461 251.368 251.667 256.198C246.073 260.827 240.842 265.858 236.013 271.251C233.035 274.592 230.219 278.054 227.603 281.636C227.522 274.552 227.522 267.508 227.522 260.424C227.522 232.169 228.046 203.873 229.052 175.658C229.132 175.497 229.213 175.336 229.253 175.134C229.655 174.048 230.058 173.001 230.5 171.955C232.432 167.447 234.806 163.14 237.582 159.075C238.307 157.988 239.071 156.982 239.876 155.935C242.854 152.152 246.194 148.61 249.815 145.43C250.781 144.625 251.747 143.82 252.713 143.015C257.582 139.312 262.893 136.213 268.527 133.798C273.235 131.866 278.104 130.376 283.134 129.41C284.462 129.169 285.79 128.927 287.118 128.766C291.021 128.283 295.005 128.082 298.949 128.203C300.84 128.283 302.651 126.472 302.57 124.58C302.49 122.568 300.96 120.998 298.949 120.958C292.228 120.757 285.468 121.441 278.909 122.93C272.35 124.419 265.992 126.794 260.036 129.853C254.322 132.791 248.97 136.535 244.142 140.801C239.474 144.907 235.369 149.616 231.788 154.728C231.064 155.734 230.38 156.78 229.736 157.827C229.856 155.211 229.977 152.594 230.098 149.978C231.064 129.33 232.351 108.682 233.84 88.0737C234.001 86.1014 232.07 84.4512 230.219 84.4512C228.126 84.4512 226.718 86.1014 226.597 88.0737C223.861 125.023 222.01 162.013 221.044 199.043C220.963 202.826 220.843 206.61 220.762 210.434C219.233 208.059 217.583 205.765 215.853 203.511C211.909 198.399 207.403 193.73 202.453 189.584C197.302 185.237 191.749 181.333 185.834 178.113C179.959 174.893 173.681 172.236 167.283 170.264C160.845 168.292 154.165 167.044 147.485 166.521C146.68 166.44 145.876 166.4 145.071 166.36C143.179 166.279 141.369 168.091 141.449 169.982C141.53 172.035 143.059 173.524 145.071 173.605C147.284 173.726 149.457 173.927 151.63 174.209C157.666 175.054 163.621 176.543 169.376 178.556C170.905 179.119 172.434 179.683 173.923 180.327C179.677 182.782 185.19 185.841 190.381 189.383C191.749 190.309 193.117 191.315 194.445 192.321C199.234 196.064 203.66 200.25 207.644 204.839C208.69 206.046 209.736 207.294 210.702 208.582C213.599 212.366 216.175 216.35 218.428 220.577C219.072 221.824 219.716 223.032 220.32 224.32C220.4 224.481 220.48 224.602 220.601 224.722C220.159 253.018 220.239 281.314 220.843 309.569C220.883 311.421 220.923 313.272 220.963 315.124C219.112 312.991 217.181 310.938 215.088 309.006C210.702 304.941 205.833 301.318 200.723 298.219C195.371 294.999 189.697 292.383 183.862 290.209C177.665 287.915 171.267 286.224 164.748 284.977C157.948 283.689 151.067 282.884 144.145 282.441C143.34 282.401 142.536 282.36 141.691 282.32C139.799 282.24 137.989 284.051 138.069 285.943C138.149 287.995 139.679 289.485 141.691 289.565C146.358 289.807 151.026 290.209 155.654 290.813C163.742 291.94 171.79 293.711 179.516 296.367C181.568 297.092 183.621 297.857 185.592 298.662C190.985 300.956 196.176 303.773 201.045 307.074C202.332 307.959 203.58 308.885 204.827 309.811C208.529 312.749 212.03 315.969 215.129 319.551C215.974 320.517 216.778 321.524 217.583 322.53C218.509 323.778 219.434 325.025 220.279 326.354C220.521 326.756 220.843 327.078 221.165 327.36C221.567 342.091 222.13 356.863 222.855 371.595C222.935 373.567 224.464 375.217 226.476 375.217C228.368 375.217 230.219 373.567 230.098 371.595C228.891 345.875 228.086 320.155 227.724 294.435C230.017 290.732 232.512 287.15 235.168 283.689C237.985 280.106 240.922 276.645 244.061 273.304C247.321 269.883 250.741 266.623 254.282 263.523C256.133 261.913 258.065 260.344 259.996 258.854C263.698 255.997 267.561 253.34 271.545 250.845C275.609 248.309 279.794 245.974 284.1 243.881C286.394 242.754 288.687 241.708 291.061 240.702C296.534 238.407 302.127 236.475 307.842 234.906C308.606 234.704 309.371 234.503 310.135 234.302C310.578 235.026 311.101 235.59 311.705 235.831C313.717 236.516 321.926 235.59 323.253 234.423C324.581 233.054 320.034 231.887 319.592 230.599Z" fill="#467742"/>
<path d="M382.729 124.42C381.964 148.328 360.034 168.212 336.252 170.345C312.792 172.478 290.66 154.889 285.67 132.148C279.714 104.939 302.168 80.1045 328.365 76.1197C352.79 72.4167 376.572 90.6097 381.763 114.357C382.528 117.778 382.809 121.159 382.729 124.42Z" fill="#F7CB45"/>
<path d="M340.377 158.853C360.567 155.099 373.967 136.091 370.306 116.399C366.646 96.7065 347.312 83.7866 327.122 87.5413C306.932 91.296 293.532 110.304 297.192 129.996C300.852 149.688 320.187 162.608 340.377 158.853Z" fill="#DD9226"/>
<mask id="mask4_8_4256" style="mask-type:luminance" maskUnits="userSpaceOnUse" x="296" y="86" width="75" height="74">
<path d="M340.377 158.853C360.567 155.099 373.967 136.091 370.306 116.399C366.646 96.7065 347.312 83.7866 327.122 87.5413C306.932 91.296 293.532 110.304 297.192 129.996C300.852 149.688 320.187 162.608 340.377 158.853Z" fill="white"/>
</mask>
<g mask="url(#mask4_8_4256)">
<path d="M314.603 92.2598C314.603 92.2598 297.18 106.669 299.192 125.748C301.204 144.826 313.758 155.291 324.744 158.511C324.744 158.511 299.634 155.573 294.604 130.699C289.614 105.824 314.603 92.2598 314.603 92.2598Z" fill="#CC8221"/>
</g>
<mask id="mask5_8_4256" style="mask-type:luminance" maskUnits="userSpaceOnUse" x="296" y="86" width="75" height="74">
<path d="M340.377 158.853C360.567 155.099 373.967 136.091 370.306 116.399C366.646 96.7065 347.312 83.7866 327.122 87.5413C306.932 91.296 293.532 110.304 297.192 129.996C300.852 149.688 320.187 162.608 340.377 158.853Z" fill="white"/>
</mask>
<g mask="url(#mask5_8_4256)">
<path d="M353.878 92.542C353.878 92.542 370.738 103.772 368.807 125.144C366.835 146.517 351.986 155.936 351.986 155.936C351.986 155.936 376.01 143.297 374.32 123.937C372.589 104.577 365.748 95.601 353.878 92.542Z" fill="#CC8221"/>
</g>
<mask id="mask6_8_4256" style="mask-type:luminance" maskUnits="userSpaceOnUse" x="296" y="86" width="75" height="74">
<path d="M340.377 158.853C360.567 155.099 373.967 136.091 370.306 116.399C366.646 96.7065 347.312 83.7866 327.122 87.5413C306.932 91.296 293.532 110.304 297.192 129.996C300.852 149.688 320.187 162.608 340.377 158.853Z" fill="white"/>
</mask>
<g mask="url(#mask6_8_4256)">
<path opacity="0.15" d="M328.122 85.9806C328.122 85.9806 305.668 148.771 306.514 152.272C307.359 155.774 319.31 159.678 319.31 159.678C319.31 159.678 345.224 86.3429 343.454 85.5781C341.683 84.8134 328.122 85.9806 328.122 85.9806Z" fill="#F7CB45"/>
</g>
<mask id="mask7_8_4256" style="mask-type:luminance" maskUnits="userSpaceOnUse" x="296" y="86" width="75" height="74">
<path d="M340.377 158.853C360.567 155.099 373.967 136.091 370.306 116.399C366.646 96.7065 347.312 83.7866 327.122 87.5413C306.932 91.296 293.532 110.304 297.192 129.996C300.852 149.688 320.187 162.608 340.377 158.853Z" fill="white"/>
</mask>
<g mask="url(#mask7_8_4256)">
<path opacity="0.15" d="M354.964 89.2012C354.964 89.2012 328.969 162.778 331.343 162.818C333.677 162.859 340.517 163.221 342.006 162.174C343.535 161.168 367.881 98.0964 365.828 96.0034C363.776 93.9507 354.964 89.2012 354.964 89.2012Z" fill="#F7CB45"/>
</g>
<path d="M349.532 108.722C346.675 104.777 342.409 101.879 337.661 100.672V98.8205C337.661 97.0092 336.172 95.4797 334.401 95.4395C334.321 95.4395 334.281 95.4395 334.2 95.4395C332.349 95.52 330.86 97.0092 330.86 98.8205V100.149C330.74 100.149 330.579 100.189 330.458 100.189C326.273 100.672 322.691 102.403 320.317 104.979C318.869 106.589 317.943 108.4 317.621 110.211C317.219 112.465 317.541 114.679 318.587 116.852C320.116 120.072 323.174 122.689 327.681 124.54C328.728 124.983 329.774 125.345 330.78 125.707L330.74 139.513C330.377 139.392 329.975 139.312 329.613 139.151C329.412 139.07 329.251 139.03 329.09 138.95C329.09 138.95 328.969 138.909 328.929 138.869C328.607 138.708 328.285 138.587 327.963 138.426C327.319 138.104 326.675 137.702 326.072 137.299C326.031 137.299 325.991 137.259 325.911 137.219L325.87 137.179C325.83 137.138 325.83 137.138 325.79 137.098C325.75 137.058 325.71 137.018 325.669 136.977C325.629 136.937 325.589 136.937 325.549 136.897C325.267 136.655 324.985 136.414 324.703 136.132C324.18 135.649 323.698 135.086 323.215 134.522C322.692 133.838 321.806 133.435 320.84 133.435C319.834 133.435 318.869 133.798 318.265 134.482C317.058 135.81 317.018 137.621 318.185 139.111C321.162 142.894 325.709 145.51 330.74 146.396V147.442C330.74 149.254 332.228 150.783 333.999 150.823C334.079 150.823 334.12 150.823 334.2 150.823C336.051 150.743 337.54 149.254 337.54 147.442V146.517C337.661 146.517 337.822 146.476 337.942 146.436C341.926 145.792 345.226 143.377 346.795 140.077C348.566 136.333 348.284 132.027 346.071 128.324C344.22 125.224 341.202 122.568 337.781 121.079C337.701 121.038 337.661 121.038 337.58 120.998L337.621 107.756C337.701 107.796 337.781 107.796 337.862 107.836C337.902 107.836 337.942 107.877 337.983 107.877L338.184 107.957C338.264 107.997 338.385 108.038 338.466 108.078C338.828 108.239 339.19 108.44 339.552 108.641C339.834 108.802 340.115 108.963 340.397 109.165C340.437 109.165 340.478 109.205 340.558 109.245C340.8 109.406 340.96 109.487 341.041 109.567C341.081 109.607 341.162 109.688 341.202 109.728C341.242 109.768 341.403 109.889 341.443 109.929C341.564 110.05 341.685 110.131 341.806 110.251C342.087 110.493 342.369 110.775 342.61 111.016C342.852 111.258 343.093 111.539 343.335 111.781C343.335 111.781 343.375 111.821 343.415 111.861C343.455 111.902 343.455 111.942 343.496 111.942C343.496 111.982 343.536 111.982 343.536 112.022C343.576 112.103 343.616 112.143 343.657 112.224C343.697 112.264 343.737 112.304 343.737 112.344C344.421 113.31 345.508 113.874 346.594 113.914C347.198 113.914 347.842 113.753 348.365 113.391C349.169 112.868 349.773 111.982 349.974 111.016C350.216 110.211 350.014 109.406 349.532 108.722ZM341.162 135.891C341.121 136.011 341.081 136.132 341.041 136.253C341.001 136.333 341.001 136.414 340.96 136.494C340.92 136.575 340.92 136.655 340.88 136.736C340.84 136.816 340.84 136.857 340.799 136.937C340.799 136.977 340.759 136.977 340.759 137.018C340.639 137.299 340.478 137.541 340.317 137.782C340.276 137.823 340.276 137.863 340.236 137.903C340.196 137.943 340.156 137.984 340.115 138.064C340.075 138.104 339.995 138.185 339.954 138.225C339.794 138.386 339.592 138.587 339.391 138.748C339.351 138.789 339.311 138.789 339.27 138.829C339.15 138.909 338.989 139.03 338.828 139.111C338.707 139.191 338.586 139.272 338.466 139.312C338.425 139.312 338.385 139.352 338.345 139.352C338.305 139.392 338.264 139.392 338.184 139.433C338.103 139.473 338.063 139.513 338.023 139.513C337.902 139.553 337.782 139.553 337.701 139.594C337.621 139.594 337.54 139.634 337.5 139.634L337.54 128.847C337.54 128.847 337.54 128.847 337.58 128.887C337.862 129.129 338.184 129.37 338.425 129.652C338.667 129.893 338.948 130.175 339.19 130.417C339.311 130.537 339.431 130.658 339.512 130.779L339.592 130.859C339.633 130.9 339.633 130.94 339.673 130.98C340.035 131.463 340.357 131.986 340.639 132.63C340.679 132.751 340.719 132.872 340.759 132.952C340.8 133.073 340.84 133.194 340.88 133.355C340.96 133.596 341.001 133.878 341.081 134.2L341.121 134.361V134.401C341.121 134.562 341.162 134.723 341.162 134.925C341.162 135.086 341.162 135.206 341.162 135.367C341.162 135.448 341.162 135.528 341.162 135.609C341.202 135.689 341.162 135.77 341.162 135.891ZM326.917 116.45C326.836 116.369 326.756 116.329 326.675 116.249C326.514 116.088 326.353 115.967 326.192 115.806C325.951 115.564 325.709 115.323 325.508 115.081C325.468 115.041 325.468 115.001 325.428 115.001L325.388 114.961C325.267 114.8 325.186 114.679 325.106 114.518C324.905 114.236 324.744 113.914 324.623 113.632V113.592C324.543 113.391 324.502 113.23 324.462 113.029C324.422 112.908 324.422 112.827 324.382 112.707C324.382 112.586 324.382 112.465 324.341 112.344C324.341 112.063 324.341 111.821 324.341 111.62V111.539C324.382 111.419 324.422 111.298 324.462 111.137C324.502 111.056 324.502 110.976 324.543 110.895C324.583 110.815 324.623 110.734 324.623 110.694V110.654C324.744 110.412 324.905 110.171 325.066 109.929C325.066 109.929 325.106 109.849 325.146 109.849L325.186 109.809C325.267 109.688 325.347 109.607 325.468 109.527C325.629 109.366 325.83 109.165 325.991 109.004C326.152 108.923 326.273 108.802 326.394 108.682C326.474 108.601 326.595 108.561 326.675 108.48C326.957 108.319 327.239 108.118 327.561 107.957C327.681 107.877 327.842 107.796 328.003 107.756C328.043 107.756 328.084 107.716 328.124 107.716L328.164 107.675C328.768 107.474 329.452 107.233 330.176 107.072C330.337 107.031 330.498 106.991 330.659 106.991C330.699 106.991 330.699 106.991 330.74 106.991H330.86L330.82 118.583C330.739 118.543 330.659 118.543 330.619 118.503C330.498 118.462 330.418 118.422 330.297 118.382C330.176 118.342 330.055 118.261 329.935 118.221C329.09 117.859 328.365 117.456 327.681 117.054C327.52 116.973 327.359 116.852 327.198 116.732C327.158 116.691 327.078 116.651 327.037 116.611L326.957 116.571L326.917 116.45Z" fill="#F7CB45"/>
<path d="M150.302 167.528C149.537 191.436 127.606 211.32 103.825 213.453C80.3647 215.586 58.2327 197.997 53.2429 175.256C47.2874 148.127 69.7816 123.253 95.9376 119.268C120.363 115.565 144.145 133.758 149.336 157.506C150.101 160.887 150.423 164.268 150.302 167.528Z" fill="#F7CB45"/>
<path d="M107.913 202.001C128.102 198.248 141.504 179.242 137.846 159.55C134.187 139.858 114.854 126.936 94.6645 130.689C74.4746 134.441 61.0731 153.447 64.7314 173.139C68.3898 192.832 87.7226 205.753 107.913 202.001Z" fill="#DD9226"/>
<mask id="mask8_8_4256" style="mask-type:luminance" maskUnits="userSpaceOnUse" x="64" y="130" width="75" height="73">
<path d="M107.913 202.001C128.102 198.248 141.504 179.242 137.846 159.55C134.187 139.858 114.854 126.936 94.6645 130.689C74.4746 134.441 61.0731 153.447 64.7314 173.139C68.3898 192.832 87.7226 205.753 107.913 202.001Z" fill="white"/>
</mask>
<g mask="url(#mask8_8_4256)">
<path d="M82.1745 135.368C82.1745 135.368 64.7506 149.778 66.7626 168.856C68.7746 187.935 81.3295 198.4 92.315 201.62C92.315 201.62 67.2052 198.681 62.1752 173.807C57.2257 148.932 82.1745 135.368 82.1745 135.368Z" fill="#CC8221"/>
</g>
<mask id="mask9_8_4256" style="mask-type:luminance" maskUnits="userSpaceOnUse" x="64" y="130" width="75" height="73">
<path d="M107.913 202.001C128.102 198.248 141.504 179.242 137.846 159.55C134.187 139.858 114.854 126.936 94.6645 130.689C74.4746 134.441 61.0731 153.447 64.7314 173.139C68.3898 192.832 87.7226 205.753 107.913 202.001Z" fill="white"/>
</mask>
<g mask="url(#mask9_8_4256)">
<path d="M121.489 135.65C121.489 135.65 138.349 146.88 136.418 168.253C134.446 189.626 119.598 199.044 119.598 199.044C119.598 199.044 143.621 186.406 141.931 167.045C140.201 147.685 133.36 138.709 121.489 135.65Z" fill="#CC8221"/>
</g>
<mask id="mask10_8_4256" style="mask-type:luminance" maskUnits="userSpaceOnUse" x="64" y="130" width="75" height="73">
<path d="M107.913 202.001C128.102 198.248 141.504 179.242 137.846 159.55C134.187 139.858 114.854 126.936 94.6645 130.689C74.4746 134.441 61.0731 153.447 64.7314 173.139C68.3898 192.832 87.7226 205.753 107.913 202.001Z" fill="white"/>
</mask>
<g mask="url(#mask10_8_4256)">
<path opacity="0.15" d="M95.7357 129.13C95.7357 129.13 73.2817 191.92 74.1268 195.422C74.9718 198.883 86.9231 202.828 86.9231 202.828C86.9231 202.828 112.838 129.492 111.067 128.727C109.297 128.003 95.7357 129.13 95.7357 129.13Z" fill="#F7CB45"/>
</g>
<mask id="mask11_8_4256" style="mask-type:luminance" maskUnits="userSpaceOnUse" x="64" y="130" width="75" height="73">
<path d="M107.913 202.001C128.102 198.248 141.504 179.242 137.846 159.55C134.187 139.858 114.854 126.936 94.6645 130.689C74.4746 134.441 61.0731 153.447 64.7314 173.139C68.3898 192.832 87.7226 205.753 107.913 202.001Z" fill="white"/>
</mask>
<g mask="url(#mask11_8_4256)">
<path opacity="0.15" d="M122.577 132.31C122.577 132.31 96.5818 205.887 98.956 205.927C101.29 205.967 108.131 206.329 109.62 205.283C111.149 204.277 135.494 141.205 133.442 139.112C131.389 137.059 122.577 132.31 122.577 132.31Z" fill="#F7CB45"/>
</g>
<path d="M117.145 151.87C114.288 147.926 110.022 145.028 105.274 143.82V141.969C105.274 140.158 103.785 138.628 102.015 138.588C101.934 138.588 101.894 138.588 101.813 138.588C99.9624 138.668 98.4735 140.158 98.4735 141.969V143.297C98.3528 143.297 98.1918 143.337 98.0711 143.337C93.8862 143.82 90.3048 145.551 87.9306 148.127C86.482 149.737 85.5565 151.548 85.2346 153.36C84.8322 155.614 85.1541 157.827 86.2003 160.001C87.7294 163.221 90.7877 165.837 95.2946 167.689C96.3408 168.131 97.387 168.494 98.393 168.856L98.3528 182.662C97.9906 182.541 97.5882 182.46 97.2261 182.299C97.0249 182.219 96.8639 182.179 96.703 182.098C96.703 182.098 96.5822 182.058 96.542 182.018C96.2201 181.857 95.8981 181.736 95.5762 181.575C94.9324 181.253 94.2886 180.85 93.685 180.448C93.6447 180.448 93.6045 180.408 93.524 180.367L93.4838 180.327C93.4435 180.287 93.4435 180.287 93.4033 180.247C93.363 180.206 93.3228 180.166 93.2826 180.126C93.2423 180.086 93.2021 180.086 93.1618 180.045C92.8801 179.804 92.5985 179.562 92.3168 179.281C91.7937 178.798 91.3108 178.234 90.8279 177.671C90.3048 176.986 89.4195 176.584 88.4538 176.584C87.4478 176.584 86.482 176.946 85.8784 177.63C84.6712 178.959 84.6309 180.77 85.7979 182.259C88.7757 186.043 93.3228 188.659 98.3528 189.544V190.591C98.3528 192.402 99.8417 193.932 101.612 193.972C101.693 193.972 101.733 193.972 101.813 193.972C103.664 193.891 105.153 192.402 105.153 190.591V189.665C105.274 189.665 105.435 189.625 105.556 189.585C109.54 188.941 112.839 186.526 114.409 183.225C116.179 179.482 115.897 175.175 113.684 171.472C111.833 168.373 108.815 165.716 105.395 164.227C105.314 164.187 105.274 164.187 105.194 164.147L105.234 150.904C105.314 150.945 105.395 150.945 105.475 150.985C105.516 150.985 105.556 151.025 105.596 151.025L105.797 151.106C105.878 151.146 105.998 151.186 106.079 151.226C106.441 151.387 106.803 151.589 107.165 151.79C107.447 151.951 107.729 152.112 108.01 152.313C108.051 152.313 108.091 152.353 108.171 152.394C108.413 152.555 108.574 152.635 108.654 152.716C108.694 152.756 108.775 152.836 108.815 152.877C108.855 152.917 109.016 153.038 109.057 153.078C109.177 153.199 109.298 153.279 109.419 153.4C109.7 153.641 109.982 153.923 110.224 154.165C110.465 154.406 110.706 154.688 110.948 154.929C110.948 154.929 110.988 154.97 111.028 155.01C111.069 155.05 111.069 155.09 111.109 155.09C111.109 155.131 111.149 155.131 111.149 155.171C111.189 155.251 111.23 155.292 111.27 155.372C111.31 155.412 111.35 155.453 111.35 155.493C112.034 156.459 113.121 157.022 114.207 157.063C114.811 157.063 115.455 156.902 115.978 156.539C116.783 156.016 117.386 155.131 117.588 154.165C117.789 153.319 117.628 152.514 117.145 151.87ZM108.775 178.999C108.735 179.12 108.694 179.24 108.654 179.361C108.614 179.442 108.614 179.522 108.574 179.603C108.534 179.683 108.534 179.764 108.493 179.844C108.453 179.925 108.453 179.965 108.413 180.045C108.413 180.086 108.373 180.086 108.373 180.126C108.252 180.408 108.091 180.649 107.93 180.891C107.89 180.931 107.89 180.971 107.849 181.011C107.809 181.052 107.769 181.092 107.729 181.172C107.688 181.213 107.608 181.293 107.568 181.333C107.407 181.494 107.206 181.696 107.004 181.857C106.964 181.897 106.924 181.897 106.884 181.937C106.763 182.018 106.602 182.138 106.441 182.219C106.32 182.299 106.2 182.38 106.079 182.42C106.039 182.42 105.998 182.46 105.958 182.46C105.918 182.501 105.878 182.501 105.797 182.541C105.717 182.581 105.676 182.621 105.636 182.621C105.516 182.662 105.395 182.662 105.314 182.702C105.234 182.702 105.153 182.742 105.113 182.742L105.153 171.955C105.153 171.955 105.153 171.955 105.194 171.995C105.475 172.237 105.797 172.478 106.039 172.76C106.28 173.002 106.562 173.283 106.803 173.525C106.924 173.646 107.045 173.766 107.125 173.887L107.206 173.968C107.246 174.008 107.246 174.048 107.286 174.088C107.648 174.571 107.97 175.095 108.252 175.739C108.292 175.859 108.332 175.98 108.373 176.061C108.413 176.181 108.453 176.302 108.493 176.463C108.574 176.705 108.614 176.986 108.694 177.308L108.735 177.469V177.51C108.735 177.671 108.775 177.832 108.775 178.033C108.775 178.194 108.775 178.315 108.775 178.476C108.775 178.556 108.775 178.637 108.775 178.717C108.775 178.798 108.775 178.878 108.775 178.999ZM94.4898 159.558C94.4093 159.478 94.3288 159.437 94.2483 159.357C94.0873 159.196 93.9264 159.075 93.7654 158.914C93.524 158.673 93.2826 158.431 93.0814 158.19C93.0411 158.149 93.0411 158.109 93.0009 158.109L92.9606 158.069C92.8399 157.908 92.7594 157.787 92.679 157.626C92.4778 157.344 92.3168 157.022 92.1961 156.741V156.7C92.1156 156.499 92.0753 156.338 92.0351 156.137C91.9949 156.016 91.9949 155.936 91.9546 155.815C91.9546 155.694 91.9546 155.573 91.9144 155.453C91.9144 155.171 91.9144 154.929 91.9144 154.728V154.648C91.9546 154.527 91.9949 154.406 92.0351 154.245C92.0753 154.165 92.0754 154.084 92.1156 154.004C92.1558 153.923 92.1961 153.843 92.1961 153.802V153.762C92.3168 153.521 92.4777 153.279 92.6387 153.038C92.6387 153.038 92.679 152.957 92.7192 152.957L92.7594 152.917C92.8399 152.796 92.9204 152.716 93.0411 152.635C93.2021 152.474 93.4033 152.273 93.5642 152.112C93.7252 152.031 93.8459 151.911 93.9666 151.79C94.0471 151.709 94.1678 151.669 94.2483 151.589C94.53 151.428 94.8117 151.226 95.1336 151.065C95.2543 150.985 95.4153 150.904 95.5762 150.864C95.6165 150.864 95.6567 150.824 95.697 150.824L95.7372 150.784C96.3408 150.582 97.0249 150.341 97.7492 150.18C97.9102 150.14 98.0711 150.099 98.2321 150.099C98.2723 150.099 98.2723 150.099 98.3126 150.099H98.4333L98.393 161.691C98.3125 161.651 98.2321 161.651 98.1918 161.611C98.0711 161.571 97.9906 161.53 97.8699 161.49C97.7492 161.45 97.6285 161.369 97.5078 161.329C96.6627 160.967 95.9384 160.564 95.2543 160.162C95.0933 160.081 94.9324 159.961 94.7714 159.84C94.7312 159.8 94.6507 159.759 94.6105 159.719L94.53 159.679L94.4898 159.558Z" fill="#F7CB45"/>
<path d="M289.332 49.3133C288.568 73.2218 266.637 93.1052 242.855 95.2385C219.395 97.3717 197.263 79.7825 192.274 57.0413C186.318 29.8323 208.772 4.99801 234.968 1.01326C259.394 -2.68973 283.176 15.5033 288.367 39.2508C289.131 42.672 289.453 46.0128 289.332 49.3133Z" fill="#F7CB45"/>
<path d="M246.974 83.7518C267.164 79.997 280.564 60.9895 276.904 41.2973C273.244 21.605 253.909 8.68505 233.719 12.4398C213.529 16.1945 200.129 35.202 203.79 54.8943C207.45 74.5865 226.785 87.5065 246.974 83.7518Z" fill="#DD9226"/>
<mask id="mask12_8_4256" style="mask-type:luminance" maskUnits="userSpaceOnUse" x="203" y="11" width="75" height="74">
<path d="M246.974 83.7518C267.164 79.997 280.564 60.9895 276.904 41.2973C273.244 21.605 253.909 8.68505 233.719 12.4398C213.529 16.1945 200.129 35.202 203.79 54.8943C207.45 74.5865 226.785 87.5065 246.974 83.7518Z" fill="white"/>
</mask>
<g mask="url(#mask12_8_4256)">
<path d="M221.206 17.1533C221.206 17.1533 203.782 31.5628 205.794 50.6413C207.806 69.7198 220.361 80.1848 231.347 83.4048C231.347 83.4048 206.237 80.4666 201.207 55.5921C196.177 30.7176 221.206 17.1533 221.206 17.1533Z" fill="#CC8221"/>
</g>
<mask id="mask13_8_4256" style="mask-type:luminance" maskUnits="userSpaceOnUse" x="203" y="11" width="75" height="74">
<path d="M246.974 83.7518C267.164 79.997 280.564 60.9895 276.904 41.2973C273.244 21.605 253.909 8.68505 233.719 12.4398C213.529 16.1945 200.129 35.202 203.79 54.8943C207.45 74.5865 226.785 87.5065 246.974 83.7518Z" fill="white"/>
</mask>
<g mask="url(#mask13_8_4256)">
<path d="M260.52 17.4346C260.52 17.4346 277.381 28.6643 275.449 50.0371C273.477 71.4098 258.629 80.8283 258.629 80.8283C258.629 80.8283 282.652 68.1898 280.962 48.8296C279.272 29.4693 272.391 20.4936 260.52 17.4346Z" fill="#CC8221"/>
</g>
<mask id="mask14_8_4256" style="mask-type:luminance" maskUnits="userSpaceOnUse" x="203" y="11" width="75" height="74">
<path d="M246.974 83.7518C267.164 79.997 280.564 60.9895 276.904 41.2973C273.244 21.605 253.909 8.68505 233.719 12.4398C213.529 16.1945 200.129 35.202 203.79 54.8943C207.45 74.5865 226.785 87.5065 246.974 83.7518Z" fill="white"/>
</mask>
<g mask="url(#mask14_8_4256)">
<path opacity="0.15" d="M234.767 10.8739C234.767 10.8739 212.313 73.6639 213.158 77.1657C214.003 80.6272 225.954 84.5717 225.954 84.5717C225.954 84.5717 251.869 11.2362 250.098 10.4714C248.328 9.74693 234.767 10.8739 234.767 10.8739Z" fill="#F7CB45"/>
</g>
<mask id="mask15_8_4256" style="mask-type:luminance" maskUnits="userSpaceOnUse" x="203" y="11" width="75" height="74">
<path d="M246.974 83.7518C267.164 79.997 280.564 60.9895 276.904 41.2973C273.244 21.605 253.909 8.68505 233.719 12.4398C213.529 16.1945 200.129 35.202 203.79 54.8943C207.45 74.5865 226.785 87.5065 246.974 83.7518Z" fill="white"/>
</mask>
<g mask="url(#mask15_8_4256)">
<path opacity="0.15" d="M261.606 14.0938C261.606 14.0938 235.611 87.6708 237.985 87.711C240.319 87.7513 247.16 88.1135 248.649 87.067C250.178 86.0607 274.523 22.989 272.471 20.896C270.419 18.803 261.606 14.0938 261.606 14.0938Z" fill="#F7CB45"/>
</g>
<path d="M256.174 33.6155C253.317 29.671 249.052 26.773 244.303 25.5655V23.714C244.303 21.9028 242.814 20.3733 241.044 20.333C240.963 20.333 240.923 20.333 240.843 20.333C238.992 20.4135 237.503 21.9028 237.503 23.714V25.0423C237.382 25.0423 237.221 25.0825 237.1 25.0825C232.915 25.5655 229.334 27.2963 226.96 29.8723C225.511 31.4823 224.586 33.2935 224.264 35.1048C223.861 37.3588 224.183 39.5725 225.23 41.746C226.759 44.966 229.817 47.5823 234.324 49.4338C235.37 49.8765 236.416 50.2388 237.422 50.601L237.382 64.4068C237.02 64.286 236.618 64.2055 236.255 64.0445C236.054 63.964 235.893 63.9238 235.732 63.8433C235.732 63.8433 235.612 63.803 235.571 63.7628C235.249 63.6018 234.927 63.481 234.606 63.32C233.962 62.998 233.318 62.5955 232.714 62.193C232.674 62.193 232.634 62.1528 232.553 62.1125L232.513 62.0723C232.473 62.032 232.473 62.032 232.433 61.9918C232.392 61.9515 232.352 61.9113 232.312 61.871C232.272 61.8308 232.231 61.8308 232.191 61.7905C231.909 61.549 231.628 61.3075 231.346 61.0258C230.823 60.5428 230.34 59.9793 229.857 59.4158C229.334 58.7315 228.449 58.329 227.483 58.329C226.477 58.329 225.511 58.6913 224.908 59.3755C223.7 60.7038 223.66 62.515 224.827 64.0043C227.805 67.7878 232.352 70.404 237.382 71.2895V72.336C237.382 74.1473 238.871 75.6768 240.642 75.717C240.722 75.717 240.762 75.717 240.843 75.717C242.694 75.6365 244.183 74.1473 244.183 72.336V71.4103C244.303 71.4103 244.464 71.37 244.585 71.3298C248.569 70.6858 251.868 68.2708 253.438 64.9703C255.208 61.227 254.927 56.9203 252.714 53.2173C250.862 50.118 247.844 47.4615 244.424 45.9723C244.344 45.932 244.303 45.932 244.223 45.8918L244.263 32.6495C244.344 32.6898 244.424 32.6898 244.505 32.73C244.545 32.73 244.585 32.7703 244.625 32.7703L244.826 32.8508C244.907 32.891 245.028 32.9313 245.108 32.9715C245.47 33.1325 245.833 33.3338 246.195 33.535C246.476 33.696 246.758 33.857 247.04 34.0583C247.08 34.0583 247.12 34.0985 247.201 34.1388C247.442 34.2998 247.603 34.3803 247.684 34.4608C247.724 34.501 247.804 34.5815 247.844 34.6218C247.885 34.662 248.046 34.7828 248.086 34.823C248.207 34.9438 248.327 35.0243 248.448 35.145C248.73 35.3865 249.011 35.6683 249.253 35.9098C249.494 36.1513 249.736 36.433 249.977 36.6745C249.977 36.6745 250.017 36.7148 250.058 36.755C250.098 36.7953 250.098 36.8355 250.138 36.8355C250.138 36.8758 250.178 36.8758 250.178 36.916C250.219 36.9965 250.259 37.0368 250.299 37.1173C250.339 37.1575 250.38 37.1978 250.38 37.238C251.064 38.204 252.15 38.7675 253.237 38.8078C253.84 38.8078 254.484 38.6468 255.007 38.2845C255.812 37.7613 256.416 36.8758 256.617 35.9098C256.818 35.1048 256.657 34.2998 256.174 33.6155ZM247.804 60.744C247.764 60.8648 247.724 60.9855 247.684 61.1063C247.643 61.1868 247.643 61.2673 247.603 61.3478C247.563 61.4283 247.563 61.5088 247.523 61.5893C247.482 61.6698 247.482 61.71 247.442 61.7905C247.442 61.8308 247.402 61.8308 247.402 61.871C247.281 62.1528 247.12 62.3943 246.959 62.6358C246.919 62.676 246.919 62.7163 246.879 62.7565C246.838 62.7968 246.798 62.837 246.758 62.9175C246.718 62.9578 246.637 63.0383 246.597 63.0785C246.436 63.2395 246.235 63.4408 246.034 63.6018C245.993 63.642 245.953 63.642 245.913 63.6823C245.792 63.7628 245.631 63.8835 245.47 63.964C245.35 64.0445 245.229 64.125 245.108 64.1653C245.068 64.1653 245.028 64.2055 244.987 64.2055C244.947 64.2458 244.907 64.2458 244.826 64.286C244.746 64.3263 244.706 64.3665 244.666 64.3665C244.545 64.4068 244.424 64.4068 244.344 64.447C244.263 64.447 244.183 64.4873 244.142 64.4873L244.183 53.7003C244.183 53.7003 244.183 53.7003 244.223 53.7405C244.505 53.982 244.826 54.2235 245.068 54.5053C245.309 54.7468 245.591 55.0285 245.832 55.27C245.953 55.3908 246.074 55.5115 246.154 55.6323L246.235 55.7128C246.275 55.753 246.275 55.7933 246.315 55.8335C246.678 56.3165 246.999 56.8398 247.281 57.4838C247.321 57.6045 247.362 57.7253 247.402 57.8058C247.442 57.9265 247.482 58.0473 247.523 58.2083C247.603 58.4498 247.643 58.7315 247.724 59.0535L247.764 59.2145V59.2548C247.764 59.4158 247.804 59.5768 247.804 59.778C247.804 59.939 247.804 60.0598 247.804 60.2208C247.804 60.3013 247.804 60.3818 247.804 60.4623C247.804 60.5428 247.804 60.6635 247.804 60.744ZM233.519 41.3435C233.439 41.263 233.358 41.2228 233.278 41.1423C233.117 40.9813 232.956 40.8605 232.795 40.6995C232.553 40.458 232.312 40.2165 232.111 39.975C232.07 39.9348 232.07 39.8945 232.03 39.8945L231.99 39.8543C231.869 39.6933 231.789 39.5725 231.708 39.4115C231.507 39.1298 231.346 38.8078 231.225 38.526V38.4858C231.145 38.2845 231.105 38.1235 231.064 37.9223C231.024 37.8015 231.024 37.721 230.984 37.6003C230.984 37.4795 230.984 37.3588 230.944 37.238C230.944 36.9563 230.944 36.7148 230.944 36.5135V36.433C230.984 36.3123 231.024 36.1915 231.064 36.0305C231.105 35.95 231.105 35.8695 231.145 35.789C231.185 35.7085 231.225 35.628 231.225 35.5878V35.5475C231.346 35.306 231.507 35.0645 231.668 34.823C231.668 34.823 231.708 34.7425 231.748 34.7425L231.789 34.7023C231.869 34.5815 231.95 34.501 232.07 34.4205C232.231 34.2595 232.433 34.0583 232.594 33.8973C232.754 33.8168 232.875 33.696 232.996 33.5753C233.076 33.4948 233.197 33.4545 233.278 33.374C233.559 33.213 233.841 33.0118 234.163 32.8508C234.284 32.7703 234.445 32.6898 234.606 32.6495C234.646 32.6495 234.686 32.6093 234.726 32.6093L234.766 32.569C235.37 32.3678 236.054 32.1263 236.778 31.9653C236.939 31.925 237.1 31.8848 237.261 31.8848C237.302 31.8848 237.302 31.8848 237.342 31.8848H237.463L237.422 43.4768C237.342 43.4365 237.261 43.4365 237.221 43.3963C237.1 43.356 237.02 43.3158 236.899 43.2755C236.778 43.2353 236.658 43.1548 236.537 43.1145C235.692 42.7523 234.968 42.3498 234.284 41.9473C234.123 41.8668 233.962 41.746 233.801 41.6253C233.76 41.585 233.68 41.5448 233.64 41.5045L233.559 41.4643L233.519 41.3435Z" fill="#F7CB45"/>
<path d="M148.292 276.364C155.012 299.306 140.364 325.066 118.474 334.525C96.8246 343.863 70.3467 334.082 58.5161 314.038C44.3517 290.049 57.9528 259.419 81.6139 247.464C103.665 236.315 131.954 246.176 144.308 267.106C146.038 270.125 147.366 273.224 148.292 276.364Z" fill="#F7CB45"/>
<path d="M118.717 322.304C136.726 312.437 143.527 290.198 133.908 272.633C124.288 255.068 101.891 248.828 83.8818 258.695C65.8727 268.562 59.0715 290.801 68.6909 308.366C78.3104 325.931 100.708 332.172 118.717 322.304Z" fill="#DD9226"/>
<mask id="mask16_8_4256" style="mask-type:luminance" maskUnits="userSpaceOnUse" x="64" y="254" width="75" height="73">
<path d="M118.717 322.304C136.726 312.437 143.527 290.198 133.908 272.633C124.288 255.068 101.891 248.828 83.8818 258.695C65.8727 268.562 59.0715 290.801 68.6909 308.366C78.3104 325.931 100.708 332.172 118.717 322.304Z" fill="white"/>
</mask>
<g mask="url(#mask16_8_4256)">
<path d="M73.5245 267.066C73.5245 267.066 61.4525 286.185 69.3395 303.694C77.2266 321.162 92.3971 327.2 103.865 326.838C103.865 326.838 79.0776 331.869 66.563 309.812C54.0081 287.755 73.5245 267.066 73.5245 267.066Z" fill="#CC8221"/>
</g>
<mask id="mask17_8_4256" style="mask-type:luminance" maskUnits="userSpaceOnUse" x="64" y="254" width="75" height="73">
<path d="M118.717 322.304C136.726 312.437 143.527 290.198 133.908 272.633C124.288 255.068 101.891 248.828 83.8818 258.695C65.8727 268.562 59.0715 290.801 68.6909 308.366C78.3104 325.931 100.708 332.172 118.717 322.304Z" fill="white"/>
</mask>
<g mask="url(#mask17_8_4256)">
<path d="M110.949 255.072C110.949 255.072 130.466 260.465 135.294 281.395C140.083 302.285 128.896 315.93 128.896 315.93C128.896 315.93 147.809 296.408 140.123 278.537C132.478 260.666 123.182 254.267 110.949 255.072Z" fill="#CC8221"/>
</g>
<mask id="mask18_8_4256" style="mask-type:luminance" maskUnits="userSpaceOnUse" x="64" y="254" width="75" height="73">
<path d="M118.717 322.304C136.726 312.437 143.527 290.198 133.908 272.633C124.288 255.068 101.891 248.828 83.8818 258.695C65.8727 268.562 59.0715 290.801 68.6909 308.366C78.3104 325.931 100.708 332.172 118.717 322.304Z" fill="white"/>
</mask>
<g mask="url(#mask18_8_4256)">
<path opacity="0.15" d="M84.4305 256.883C84.4305 256.883 82.7002 323.577 84.5915 326.596C86.4827 329.615 99.0376 329.615 99.0376 329.615C99.0376 329.615 100.768 251.852 98.8767 251.691C96.9854 251.57 84.4305 256.883 84.4305 256.883Z" fill="#F7CB45"/>
</g>
<mask id="mask19_8_4256" style="mask-type:luminance" maskUnits="userSpaceOnUse" x="64" y="254" width="75" height="73">
<path d="M118.717 322.304C136.726 312.437 143.527 290.198 133.908 272.633C124.288 255.068 101.891 248.828 83.8818 258.695C65.8727 268.562 59.0715 290.801 68.6909 308.366C78.3104 325.931 100.708 332.172 118.717 322.304Z" fill="white"/>
</mask>
<g mask="url(#mask19_8_4256)">
<path opacity="0.15" d="M110.908 251.57C110.908 251.57 109.178 329.575 111.431 328.891C113.685 328.206 120.244 326.395 121.371 324.946C122.497 323.497 125.958 255.998 123.342 254.67C120.767 253.341 110.908 251.57 110.908 251.57Z" fill="#F7CB45"/>
</g>
<path d="M111.874 271.816C107.93 268.958 102.981 267.549 98.0717 267.871L97.5083 266.1C96.9449 264.41 95.0536 263.363 93.3636 263.886C93.2831 263.927 93.2428 263.927 93.1624 263.967C91.432 264.651 90.5065 266.503 91.0699 268.233L91.4723 269.481C91.3516 269.521 91.2309 269.602 91.1101 269.642C87.2873 271.413 84.3901 274.15 82.9817 277.37C82.0964 279.342 81.7745 281.355 82.0561 283.166C82.3781 285.42 83.3841 287.433 85.0339 289.163C87.4885 291.739 91.2309 293.269 96.0597 293.631C97.1864 293.712 98.2729 293.752 99.3593 293.752L103.625 306.873C103.222 306.914 102.82 306.914 102.458 306.914C102.257 306.914 102.055 306.914 101.894 306.914C101.894 306.914 101.774 306.914 101.734 306.914C101.371 306.873 101.009 306.833 100.647 306.793C99.9227 306.672 99.1984 306.511 98.5143 306.31C98.4741 306.31 98.4338 306.27 98.3533 306.27C98.3533 306.27 98.3131 306.27 98.2729 306.27C98.2326 306.27 98.1924 306.229 98.1521 306.229C98.1119 306.189 98.0314 306.189 97.9912 306.149C97.9509 306.149 97.9107 306.109 97.8705 306.109C97.5083 305.988 97.1864 305.827 96.8242 305.666C96.1804 305.344 95.5365 304.982 94.9329 304.579C94.2086 304.096 93.2831 303.975 92.3576 304.257C91.3918 304.539 90.587 305.223 90.2249 306.068C89.4603 307.719 90.0237 309.449 91.593 310.496C95.617 313.152 100.728 314.239 105.758 313.515L106.079 314.521C106.643 316.211 108.534 317.258 110.224 316.735C110.305 316.694 110.345 316.694 110.425 316.654C112.156 315.97 113.081 314.118 112.518 312.388L112.236 311.502C112.357 311.462 112.478 311.381 112.598 311.301C116.18 309.409 118.594 306.109 119.037 302.486C119.56 298.381 117.95 294.396 114.691 291.538C111.954 289.163 108.252 287.594 104.591 287.272C104.51 287.272 104.47 287.272 104.389 287.272L100.285 274.673C100.365 274.673 100.446 274.673 100.526 274.673C100.567 274.673 100.607 274.673 100.647 274.673L100.848 274.714C100.969 274.714 101.049 274.754 101.17 274.754C101.573 274.794 101.975 274.875 102.377 274.955C102.699 275.036 103.021 275.076 103.343 275.156C103.383 275.156 103.424 275.197 103.504 275.197C103.786 275.277 103.947 275.317 104.067 275.358C104.148 275.398 104.188 275.438 104.269 275.438C104.309 275.438 104.51 275.519 104.55 275.559C104.711 275.599 104.872 275.68 104.993 275.76C105.355 275.921 105.677 276.082 105.999 276.243C106.321 276.404 106.603 276.565 106.924 276.766C106.924 276.766 106.965 276.807 107.045 276.847C107.085 276.887 107.126 276.887 107.166 276.887C107.206 276.887 107.206 276.927 107.246 276.927C107.327 276.968 107.367 277.008 107.448 277.048C107.488 277.088 107.528 277.088 107.568 277.129C108.534 277.813 109.741 278.054 110.788 277.732C111.391 277.531 111.914 277.209 112.317 276.686C112.92 275.921 113.202 274.875 113.081 273.909C112.96 273.023 112.518 272.299 111.874 271.816ZM112.397 300.192C112.397 300.313 112.397 300.474 112.397 300.554C112.397 300.635 112.397 300.715 112.397 300.796C112.397 300.876 112.397 300.997 112.397 301.077C112.397 301.158 112.397 301.198 112.397 301.279C112.397 301.319 112.397 301.359 112.397 301.359C112.357 301.641 112.276 301.963 112.196 302.245C112.196 302.285 112.156 302.325 112.156 302.365C112.156 302.406 112.115 302.486 112.115 302.526C112.075 302.607 112.035 302.687 112.035 302.728C111.914 302.929 111.793 303.17 111.673 303.412C111.633 303.452 111.633 303.492 111.592 303.533C111.472 303.653 111.391 303.814 111.27 303.935C111.19 304.056 111.069 304.136 110.989 304.257C110.948 304.297 110.948 304.297 110.908 304.338C110.868 304.378 110.828 304.418 110.788 304.458C110.747 304.499 110.707 304.539 110.667 304.619C110.586 304.66 110.466 304.74 110.385 304.78C110.305 304.821 110.264 304.861 110.224 304.901L106.804 294.637H106.844C107.206 294.758 107.568 294.919 107.89 295.08C108.212 295.241 108.534 295.402 108.856 295.563C109.017 295.644 109.138 295.724 109.299 295.805L109.379 295.845C109.419 295.885 109.46 295.885 109.5 295.925C109.983 296.288 110.466 296.69 110.948 297.213C111.029 297.294 111.109 297.415 111.19 297.495C111.27 297.616 111.351 297.696 111.431 297.817C111.592 298.018 111.713 298.3 111.874 298.542L111.954 298.703V298.743C112.035 298.904 112.075 299.065 112.156 299.226C112.196 299.347 112.236 299.508 112.276 299.669C112.317 299.749 112.317 299.83 112.357 299.91C112.317 300.031 112.357 300.111 112.397 300.192ZM92.76 286.185C92.6795 286.145 92.599 286.104 92.4783 286.064C92.2771 285.984 92.0759 285.903 91.8747 285.782C91.5528 285.621 91.2711 285.46 90.9894 285.299C90.9492 285.299 90.9089 285.259 90.8687 285.219L90.8285 285.179C90.6675 285.058 90.5468 284.977 90.3858 284.857C90.1041 284.655 89.8627 284.414 89.6615 284.172L89.6213 284.132C89.5005 283.971 89.3798 283.81 89.2993 283.649C89.2591 283.569 89.1786 283.488 89.1384 283.367C89.0981 283.247 89.0579 283.126 88.9774 283.005C88.8969 282.723 88.8164 282.522 88.736 282.281V282.2C88.736 282.079 88.6957 281.918 88.6957 281.798C88.6957 281.717 88.6957 281.637 88.6957 281.556C88.6957 281.476 88.6957 281.395 88.736 281.315V281.274C88.7762 280.993 88.8567 280.711 88.9372 280.429C88.9372 280.429 88.9774 280.349 88.9774 280.308L89.0177 280.228C89.0579 280.107 89.1384 279.986 89.1786 279.866C89.2993 279.664 89.42 279.423 89.5408 279.222C89.6615 279.101 89.742 278.94 89.8225 278.779C89.9029 278.698 89.9432 278.578 90.0237 278.497C90.2249 278.256 90.4663 277.974 90.7077 277.732C90.8285 277.612 90.9089 277.491 91.0297 277.41C91.0699 277.37 91.1101 277.33 91.1504 277.33L91.1906 277.29C91.6735 276.887 92.2771 276.444 92.9209 276.082C93.0417 276.002 93.2026 275.921 93.3636 275.841C93.4038 275.841 93.4038 275.8 93.4441 275.8C93.4441 275.8 93.5245 275.76 93.5648 275.76L97.1461 286.789C97.0657 286.789 96.9852 286.789 96.9047 286.789C96.784 286.789 96.6632 286.789 96.5828 286.789C96.462 286.789 96.3011 286.748 96.1804 286.748C95.2548 286.668 94.4501 286.507 93.6855 286.346C93.4843 286.306 93.3233 286.265 93.1221 286.185C93.0417 286.185 93.0014 286.145 92.9209 286.145L92.8405 286.104L92.76 286.185Z" fill="#F7CB45"/>
<path d="M81.9751 177.429C67.529 176.423 65.8389 177.55 61.332 191.316C62.338 176.866 61.2113 175.176 47.4492 170.668C61.8954 171.674 63.5855 170.547 68.0923 156.781C67.0863 171.231 68.2131 172.921 81.9751 177.429Z" fill="white"/>
<path d="M177.826 228.466C163.944 232.29 162.736 233.9 163.018 248.31C159.195 234.423 157.586 233.216 143.18 233.498C157.062 229.674 158.27 228.064 157.988 213.654C161.771 227.541 163.42 228.748 177.826 228.466Z" fill="white"/>
<path d="M104.389 319.392C90.4261 336.619 90.3457 339.758 103.665 357.549C86.4424 343.582 83.3037 343.501 65.5176 356.824C79.4809 339.597 79.5613 336.457 66.2419 318.667C83.5049 332.634 86.6436 332.714 104.389 319.392Z" fill="white"/>
<path d="M363.574 90.8119C352.589 92.1804 351.462 93.2671 350.094 104.296C348.726 93.3074 347.639 92.1804 336.613 90.8119C347.599 89.4434 348.726 88.3566 350.094 77.3281C351.462 88.3566 352.589 89.4434 363.574 90.8119Z" fill="white"/>
<path d="M237.463 37.6009C226.477 38.9694 225.351 40.0562 223.982 51.0847C222.614 40.0964 221.528 38.9694 210.502 37.6009C221.487 36.2324 222.614 35.1457 223.982 24.1172C225.351 35.1457 226.437 36.2727 237.463 37.6009Z" fill="white"/>
<path d="M271.827 407.176C268.165 416.554 264.785 423.88 263.055 424.846C258.105 427.663 189.053 426.254 186.237 424.846C183.42 423.437 160.845 357.95 170.02 357.87C170.02 357.87 182.253 357.709 198.711 357.709C232.633 357.628 284.664 358.071 285.589 361.412C286.555 364.632 278.748 389.546 271.827 407.176Z" fill="#75433F"/>
<path d="M271.827 407.176C268.165 416.554 264.785 423.88 263.055 424.846C258.105 427.663 189.053 426.255 186.237 424.846C183.42 423.437 160.845 357.95 170.02 357.87C170.02 357.87 182.253 357.709 198.711 357.709C200.964 370.347 206.679 388.218 221.245 396.912C236.859 406.25 258.87 406.411 271.827 407.176Z" fill="#603836"/>
<path d="M668.957 182.702C672.337 182.42 675.918 182.017 678.655 180.005C681.391 177.992 682.839 173.766 680.747 171.11C677.286 166.682 669.882 170.828 664.691 168.695C660.909 167.125 658.977 162.335 654.993 161.409C648.917 159.96 644.611 168.332 638.415 168.936C635.356 169.218 632.539 167.568 629.723 166.36C626.906 165.153 623.445 164.388 620.991 166.239C620.065 166.924 619.421 167.93 618.576 168.695C616.001 171.029 612.178 171.11 608.677 170.989C603.728 170.868 594.513 172.357 597.128 179.643C599.301 185.64 609.965 184.271 614.713 184.392C632.861 184.754 650.929 184.191 668.957 182.702Z" fill="white"/>
<path d="M80.8885 148.972C85.0735 148.972 89.7816 148.811 92.6789 145.793C96.0993 142.291 94.9323 135.569 90.5864 133.355C85.5966 130.86 79.6411 134.12 74.088 133.355C66.5229 132.309 60.004 123.897 52.8815 126.634C49.1392 128.083 47.0065 132.309 43.2239 133.677C36.866 136.012 29.5423 129.169 23.4258 132.067C20.8505 133.275 19.2409 135.972 16.6253 137.099C11.5148 139.312 3.94967 135.207 0.891427 139.836C-1.04009 142.774 1.33407 147 4.63375 148.288C13.3658 151.669 29.4216 148.731 38.7975 148.731C52.8413 148.852 66.8448 148.932 80.8885 148.972Z" fill="white"/>
</svg>
