<svg width="150" height="150" viewBox="0 0 150 150" fill="none" xmlns="http://www.w3.org/2000/svg">
<path d="M117.5 80.1275V39.575C117.497 38.5419 117.281 37.5206 116.865 36.575C116.84 36.515 116.802 36.465 116.775 36.41C116.41 35.6115 115.908 34.8831 115.293 34.2575L98.25 17.2075C97.6244 16.5916 96.896 16.0899 96.0975 15.725C96.0425 15.6975 95.9925 15.66 95.9325 15.635C94.9846 15.218 93.9606 15.0018 92.925 15H60V7.5C60 3.35786 56.6421 0 52.5 0H7.5C3.35786 0 0 3.35786 0 7.5V72.5C0 76.6421 3.35786 80 7.5 80H27.5V127.5C27.5 131.642 30.8579 135 35 135H86.3175C95.6263 148.373 112.936 153.547 128.057 147.476C143.178 141.406 152.104 125.698 149.581 109.601C147.057 93.5034 133.753 81.2805 117.5 80.1275ZM108.965 35H100C98.6193 35 97.5 33.8807 97.5 32.5V23.535L108.965 35ZM5 72.5V7.5C5 6.11929 6.11929 5 7.5 5H52.5C53.8807 5 55 6.11929 55 7.5V72.5C55 73.8807 53.8807 75 52.5 75H7.5C6.11929 75 5 73.8807 5 72.5ZM35 130C33.6193 130 32.5 128.881 32.5 127.5V80H52.5C56.6421 80 60 76.6421 60 72.5V20H92.5V32.5C92.5 36.6421 95.8579 40 100 40H112.5V80.1275C100.965 80.9163 90.5698 87.3702 84.7465 97.359C78.9232 107.348 78.4282 119.573 83.425 130H35ZM115 145C98.4315 145 85 131.569 85 115C85 98.4315 98.4315 85 115 85C131.569 85 145 98.4315 145 115C144.982 131.561 131.561 144.982 115 145Z" fill="#002BB4"/>
<path d="M15 40H45C47.7614 40 50 37.7614 50 35V15C50 12.2386 47.7614 10 45 10H15C12.2386 10 10 12.2386 10 15V35C10 37.7614 12.2386 40 15 40ZM15 15H45V35H15V15Z" fill="#002BB4"/>
<path d="M122.501 105C122.501 106.381 123.62 107.5 125.001 107.5C126.382 107.5 127.501 106.381 127.501 105C127.493 99.0622 123.317 93.9461 117.501 92.75V92.5C117.501 91.1193 116.382 90 115.001 90C113.62 90 112.501 91.1193 112.501 92.5V92.75C106.675 93.933 102.488 99.0553 102.488 105C102.488 110.945 106.675 116.067 112.501 117.25V132.043C109.514 130.987 107.513 128.168 107.501 125C107.501 123.619 106.382 122.5 105.001 122.5C103.62 122.5 102.501 123.619 102.501 125C102.508 130.938 106.685 136.054 112.501 137.25V137.5C112.501 138.881 113.62 140 115.001 140C116.382 140 117.501 138.881 117.501 137.5V137.25C123.327 136.067 127.513 130.945 127.513 125C127.513 119.055 123.327 113.933 117.501 112.75V97.96C120.487 99.0156 122.488 101.833 122.501 105ZM107.501 105C107.514 101.833 109.515 99.0156 112.501 97.96V112.04C109.515 110.984 107.514 108.167 107.501 105ZM122.501 125C122.488 128.167 120.487 130.984 117.501 132.04V117.96C120.487 119.016 122.488 121.833 122.501 125Z" fill="#002BB4"/>
<path d="M17.5 45H12.5C11.1193 45 10 46.1193 10 47.5C10 48.8807 11.1193 50 12.5 50H17.5C18.8807 50 20 48.8807 20 47.5C20 46.1193 18.8807 45 17.5 45Z" fill="#002BB4"/>
<path d="M17.5 55H12.5C11.1193 55 10 56.1193 10 57.5C10 58.8807 11.1193 60 12.5 60H17.5C18.8807 60 20 58.8807 20 57.5C20 56.1193 18.8807 55 17.5 55Z" fill="#002BB4"/>
<path d="M17.5 65H12.5C11.1193 65 10 66.1193 10 67.5C10 68.8807 11.1193 70 12.5 70H17.5C18.8807 70 20 68.8807 20 67.5C20 66.1193 18.8807 65 17.5 65Z" fill="#002BB4"/>
<path d="M32.5 45H27.5C26.1193 45 25 46.1193 25 47.5C25 48.8807 26.1193 50 27.5 50H32.5C33.8807 50 35 48.8807 35 47.5C35 46.1193 33.8807 45 32.5 45Z" fill="#002BB4"/>
<path d="M32.5 55H27.5C26.1193 55 25 56.1193 25 57.5C25 58.8807 26.1193 60 27.5 60H32.5C33.8807 60 35 58.8807 35 57.5C35 56.1193 33.8807 55 32.5 55Z" fill="#002BB4"/>
<path d="M35 67.5C35 66.1193 33.8807 65 32.5 65H27.5C26.1193 65 25 66.1193 25 67.5C25 68.8807 26.1193 70 27.5 70H32.5C33.8807 70 35 68.8807 35 67.5Z" fill="#002BB4"/>
<path d="M47.5 45H42.5C41.1193 45 40 46.1193 40 47.5C40 48.8807 41.1193 50 42.5 50H47.5C48.8807 50 50 48.8807 50 47.5C50 46.1193 48.8807 45 47.5 45Z" fill="#002BB4"/>
<path d="M47.5 55H42.5C41.1193 55 40 56.1193 40 57.5C40 58.8807 41.1193 60 42.5 60H47.5C48.8807 60 50 58.8807 50 57.5C50 56.1193 48.8807 55 47.5 55Z" fill="#002BB4"/>
<path d="M47.5 65H42.5C41.1193 65 40 66.1193 40 67.5C40 68.8807 41.1193 70 42.5 70H47.5C48.8807 70 50 68.8807 50 67.5C50 66.1193 48.8807 65 47.5 65Z" fill="#002BB4"/>
<path d="M70 55H102.5C103.881 55 105 53.8807 105 52.5C105 51.1193 103.881 50 102.5 50H70C68.6193 50 67.5 51.1193 67.5 52.5C67.5 53.8807 68.6193 55 70 55Z" fill="#002BB4"/>
<path d="M70 67.5H102.5C103.881 67.5 105 66.3807 105 65C105 63.6193 103.881 62.5 102.5 62.5H70C68.6193 62.5 67.5 63.6193 67.5 65C67.5 66.3807 68.6193 67.5 70 67.5Z" fill="#002BB4"/>
<path d="M70 80H102.5C103.881 80 105 78.8807 105 77.5C105 76.1193 103.881 75 102.5 75H70C68.6193 75 67.5 76.1193 67.5 77.5C67.5 78.8807 68.6193 80 70 80Z" fill="#002BB4"/>
<path d="M77.5 87.5H42.5C41.1193 87.5 40 88.6193 40 90C40 91.3807 41.1193 92.5 42.5 92.5H77.5C78.8807 92.5 80 91.3807 80 90C80 88.6193 78.8807 87.5 77.5 87.5Z" fill="#002BB4"/>
<path d="M72.5 100H42.5C41.1193 100 40 101.119 40 102.5C40 103.881 41.1193 105 42.5 105H72.5C73.8807 105 75 103.881 75 102.5C75 101.119 73.8807 100 72.5 100Z" fill="#002BB4"/>
<path d="M70 112.5H42.5C41.1193 112.5 40 113.619 40 115C40 116.381 41.1193 117.5 42.5 117.5H70C71.3807 117.5 72.5 116.381 72.5 115C72.5 113.619 71.3807 112.5 70 112.5Z" fill="#002BB4"/>
</svg>
