<svg width="12" height="12" viewBox="0 0 12 12" fill="none" xmlns="http://www.w3.org/2000/svg">
<path d="M5.4165 3.08366H6.58317V4.25033H5.4165V3.08366ZM5.4165 5.41699H6.58317V8.91699H5.4165V5.41699ZM5.99984 0.166992C2.77984 0.166992 0.166504 2.78033 0.166504 6.00033C0.166504 9.22033 2.77984 11.8337 5.99984 11.8337C9.21984 11.8337 11.8332 9.22033 11.8332 6.00033C11.8332 2.78033 9.21984 0.166992 5.99984 0.166992ZM5.99984 10.667C3.42734 10.667 1.33317 8.57283 1.33317 6.00033C1.33317 3.42783 3.42734 1.33366 5.99984 1.33366C8.57234 1.33366 10.6665 3.42783 10.6665 6.00033C10.6665 8.57283 8.57234 10.667 5.99984 10.667Z" fill="#FF7A00"/>
</svg>
