<svg width="100" height="100" viewBox="0 0 100 100" fill="none" xmlns="http://www.w3.org/2000/svg">
<g clip-path="url(#clip0_8_2872)">
<path d="M68.2743 41.2144C68.257 41.1631 68.2364 41.1131 68.2126 41.0644C68.1849 40.9802 68.1509 40.8984 68.1109 40.8194C68.0755 40.7661 68.0372 40.715 67.9959 40.6661C67.9524 40.5998 67.9039 40.5367 67.8509 40.4777C67.8016 40.434 67.7497 40.3927 67.6959 40.3544C67.643 40.3063 67.5874 40.2613 67.5293 40.2194L50.8626 30.2194C50.3345 29.9021 49.6741 29.9021 49.146 30.2194L32.4794 40.2194C32.4177 40.26 32.3591 40.305 32.3043 40.3544C32.25 40.3927 32.1977 40.434 32.1477 40.4777C32.0958 40.5367 32.0479 40.599 32.0043 40.6644C31.9621 40.7136 31.9231 40.7652 31.8877 40.8194C31.8485 40.8963 31.8152 40.9759 31.7877 41.0577C31.7639 41.1094 31.7427 41.1623 31.7244 41.2161C31.6854 41.3567 31.6658 41.5019 31.666 41.6477V58.3144C31.6662 58.8994 31.9729 59.4414 32.4743 59.7427L49.141 69.7427L49.1593 69.751L49.1776 69.7643C49.2651 69.8097 49.3566 69.8472 49.451 69.876C49.4893 69.8893 49.526 69.911 49.566 69.9227C49.8497 70.0004 50.1491 70.0004 50.4326 69.9227C50.4726 69.911 50.5093 69.8893 50.5476 69.876C50.642 69.8472 50.7335 69.8097 50.821 69.7643L50.8393 69.751L50.8576 69.7427L67.5243 59.7427C68.0257 59.4414 68.3324 58.8994 68.3326 58.3144V41.6477C68.3328 41.5015 68.313 41.3556 68.2743 41.2144ZM49.9993 33.5911L55.0926 36.6477L41.666 44.7044L36.5727 41.6477L49.9993 33.5911ZM48.3326 65.3693L34.9993 57.3694V44.5911L48.3326 52.591V65.3693ZM49.9993 49.7044L44.906 46.6477L58.3326 38.5911L63.426 41.6477L49.9993 49.7044ZM64.9993 57.371L51.666 65.371V52.591L64.9993 44.5911V57.371Z" fill="#01058A"/>
<path d="M51.3327 0.64818C50.7268 -0.0882766 49.6387 -0.193901 48.9023 0.411931C48.816 0.482764 48.7368 0.56193 48.666 0.64818L43.666 7.31483L46.3327 9.31483L48.3327 6.64817V19.9815H51.666V6.64817L53.666 9.31483L56.3327 7.31483L51.3327 0.64818Z" fill="#01058A"/>
<path d="M53.666 90.6481L51.666 93.3148V79.9814H48.3327V93.3148L46.3327 90.6481L43.666 92.6481L48.666 99.3147C49.2183 100.051 50.2629 100.2 50.9993 99.6481C51.1256 99.5533 51.2379 99.441 51.3327 99.3147L56.3327 92.6481L53.666 90.6481Z" fill="#01058A"/>
<path d="M51.6673 23.3145H48.334V26.6478H51.6673V23.3145Z" fill="#01058A"/>
<path d="M51.6673 73.3145H48.334V76.6478H51.6673V73.3145Z" fill="#01058A"/>
<path d="M20.0001 48.3151H6.66678L9.33344 46.3151L7.33344 43.6484L0.66679 48.6484C-0.0696673 49.2007 -0.218834 50.2453 0.333457 50.9818C0.428248 51.108 0.54054 51.2203 0.66679 51.3151L7.33344 56.3151L9.33344 53.6484L6.66678 51.6484H20.0001V48.3151Z" fill="#01058A"/>
<path d="M99.6666 48.9818C99.5718 48.8555 99.4595 48.7432 99.3333 48.6484L92.6666 43.6484L90.6666 46.3151L93.3333 48.3151H80V51.6484H93.3333L90.6666 53.6484L92.6666 56.3151L99.3333 51.3151C100.07 50.7628 100.219 49.7182 99.6666 48.9818Z" fill="#01058A"/>
<path d="M26.6673 48.3145H23.334V51.6478H26.6673V48.3145Z" fill="#01058A"/>
<path d="M76.6673 48.3145H73.334V51.6478H76.6673V48.3145Z" fill="#01058A"/>
<path d="M29.9649 27.5898L20.5382 18.1632L23.8365 18.6332L24.3082 15.3332L16.0599 14.1482C15.1495 14.013 14.3018 14.6415 14.1666 15.5521C14.1424 15.7144 14.1424 15.8794 14.1666 16.0415L15.3449 24.2898L18.6449 23.8182L18.1749 20.5198L27.6015 29.9465L29.9649 27.5898Z" fill="#01058A"/>
<path d="M85.8301 83.9212L84.6518 75.6728L81.3485 76.1478L81.8185 79.4462L72.3918 70.0195L70.0352 72.3762L79.4618 81.8028L76.1668 81.3295L75.6951 84.6295L83.9435 85.8078C84.0218 85.8191 84.101 85.8247 84.1801 85.8245C85.1005 85.8247 85.8468 85.0785 85.847 84.158C85.8472 84.0789 85.8414 83.9997 85.8301 83.9212Z" fill="#01058A"/>
<path d="M32.3218 29.9477L29.9648 32.3047L32.3218 34.6617L34.6788 32.3047L32.3218 29.9477Z" fill="#01058A"/>
<path d="M67.6793 65.3012L65.3223 67.6582L67.6793 70.0152L70.0363 67.6582L67.6793 65.3012Z" fill="#01058A"/>
<path d="M20.5325 81.7999L29.9591 72.3733L27.6091 70.0166L18.1825 79.4432L18.6525 76.1449L15.3525 75.6733L14.1675 83.9216C14.0369 84.8326 14.6694 85.6772 15.5806 85.808C15.6591 85.8193 15.7383 85.8249 15.8175 85.8249C15.8966 85.8251 15.9758 85.8195 16.0541 85.8082L24.3025 84.6299L23.8308 81.3299L20.5325 81.7999Z" fill="#01058A"/>
<path d="M85.3551 14.6262C84.9855 14.2527 84.4599 14.0775 83.9401 14.1546L75.6918 15.3329L76.1635 18.6329L79.4618 18.1629L70.0352 27.5896L72.3918 29.9462L81.8185 20.5196L81.3485 23.8146L84.6485 24.2896L85.8268 16.0412C85.9014 15.5217 85.7266 14.9975 85.3551 14.6262Z" fill="#01058A"/>
<path d="M32.3238 65.3032L29.9668 67.6602L32.3238 70.0172L34.6808 67.6602L32.3238 65.3032Z" fill="#01058A"/>
<path d="M67.6793 29.9418L65.3223 32.2988L67.6793 34.6558L70.0363 32.2988L67.6793 29.9418Z" fill="#01058A"/>
</g>
<defs>
<clipPath id="clip0_8_2872">
<rect width="100" height="100" fill="white"/>
</clipPath>
</defs>
</svg>
