<svg width="34" height="34" viewBox="0 0 34 34" fill="none" xmlns="http://www.w3.org/2000/svg">
<g clip-path="url(#clip0_8_8926)">
<path fill-rule="evenodd" clip-rule="evenodd" d="M33.4334 1.28822L33.1501 4.93868C33.1277 5.24616 32.9279 5.51229 32.6389 5.61971C32.35 5.72713 32.0249 5.65609 31.8071 5.43792L30.9854 4.61569L25.5216 10.0869C24.6355 10.971 23.2009 10.971 22.3148 10.0869L19.7858 7.55669C19.5645 7.33547 19.2058 7.33547 18.9845 7.55669L10.671 15.8737C10.2458 16.2993 9.66889 16.5384 9.0673 16.5384C8.46571 16.5384 7.88879 16.2993 7.46363 15.8737L6.06793 14.4774C5.84671 14.2565 5.48845 14.2565 5.26723 14.4774L2.5002 17.2399C2.05677 17.6759 1.34563 17.6759 0.902199 17.2399C0.687717 17.0292 0.566895 16.7412 0.566895 16.4406C0.566895 16.14 0.687717 15.852 0.902199 15.6413L4.0642 12.4725C4.48933 12.0471 5.06613 11.808 5.66758 11.808C6.26904 11.808 6.84583 12.0471 7.27097 12.4725L9.06673 14.2694L17.7821 5.55352C18.2072 5.12806 18.784 4.88902 19.3855 4.88902C19.9869 4.88902 20.5637 5.12806 20.9888 5.55352L23.5167 8.08085C23.623 8.18726 23.7673 8.24705 23.9177 8.24705C24.0681 8.24705 24.2123 8.18726 24.3186 8.08085L29.3857 3.01145L28.564 2.18978C28.3467 1.97257 28.2762 1.64851 28.3835 1.3606C28.4908 1.07269 28.7562 0.873877 29.0627 0.851885L32.7177 0.566851C32.9121 0.554209 33.1025 0.626346 33.2397 0.764656C33.3769 0.902965 33.4476 1.0939 33.4334 1.28822Z" fill="#EF314C"/>
<path fill-rule="evenodd" clip-rule="evenodd" d="M32.7174 0.566851L31.4141 0.667718C31.6274 0.799276 31.7502 1.03819 31.7331 1.28822L31.4498 4.93868C31.4443 4.97713 31.4356 5.01505 31.4237 5.05202L31.8068 5.43565C32.0246 5.65382 32.3497 5.72487 32.6386 5.61745C32.9276 5.51003 33.1273 5.24389 33.1498 4.93642L33.4331 1.28822C33.4473 1.0939 33.3766 0.902965 33.2394 0.764656C33.1022 0.626346 32.9118 0.554209 32.7174 0.566851Z" fill="#BB193B"/>
<path d="M9.06664 31.167H2.26663C1.64071 31.167 1.1333 31.6744 1.1333 32.3003C1.1333 32.9262 1.64071 33.4337 2.26663 33.4337H9.06664C9.69256 33.4337 10.2 32.9262 10.2 32.3003C10.2 31.6744 9.69256 31.167 9.06664 31.167Z" fill="#FFDC00"/>
<path fill-rule="evenodd" clip-rule="evenodd" d="M9.0667 31.167H7.3667C7.99262 31.167 8.50003 31.6744 8.50003 32.3003C8.50003 32.9262 7.99262 33.4337 7.3667 33.4337H9.0667C9.69262 33.4337 10.2 32.9262 10.2 32.3003C10.2 31.6744 9.69262 31.167 9.0667 31.167Z" fill="#FEC108"/>
<path fill-rule="evenodd" clip-rule="evenodd" d="M21.5335 30.0338C21.5335 29.4079 21.0261 28.9005 20.4001 28.9005C21.0261 28.9005 21.5335 28.393 21.5335 27.7671C21.5335 27.1412 21.0261 26.6338 20.4001 26.6338H13.6001C12.9742 26.6338 12.4668 27.1412 12.4668 27.7671C12.4668 28.393 12.9742 28.9005 13.6001 28.9005C12.9742 28.9005 12.4668 29.4079 12.4668 30.0338C12.4668 30.6597 12.9742 31.1671 13.6001 31.1671C12.9742 31.1671 12.4668 31.6745 12.4668 32.3005C12.4668 32.9264 12.9742 33.4338 13.6001 33.4338H20.4001C21.0261 33.4338 21.5335 32.9264 21.5335 32.3005C21.5335 31.6745 21.0261 31.1671 20.4001 31.1671C21.0261 31.1671 21.5335 30.6597 21.5335 30.0338Z" fill="#FFDC00"/>
<path fill-rule="evenodd" clip-rule="evenodd" d="M21.5335 30.0338C21.5335 29.4079 21.0261 28.9005 20.4002 28.9005C21.0261 28.9005 21.5335 28.393 21.5335 27.7671C21.5335 27.1412 21.0261 26.6338 20.4002 26.6338H18.7002C19.3261 26.6338 19.8335 27.1412 19.8335 27.7671C19.8335 28.393 19.3261 28.9005 18.7002 28.9005C19.3261 28.9005 19.8335 29.4079 19.8335 30.0338C19.8335 30.6597 19.3261 31.1671 18.7002 31.1671C19.3261 31.1671 19.8335 31.6745 19.8335 32.3005C19.8335 32.9264 19.3261 33.4338 18.7002 33.4338H20.4002C21.0261 33.4338 21.5335 32.9264 21.5335 32.3005C21.5335 31.6745 21.0261 31.1671 20.4002 31.1671C21.0261 31.1671 21.5335 30.6597 21.5335 30.0338Z" fill="#FEC108"/>
<path d="M16.9999 26.6336C19.8166 26.6336 22.0999 24.3502 22.0999 21.5336C22.0999 18.7169 19.8166 16.4336 16.9999 16.4336C14.1832 16.4336 11.8999 18.7169 11.8999 21.5336C11.8999 24.3502 14.1832 26.6336 16.9999 26.6336Z" fill="#FFDC00"/>
<path fill-rule="evenodd" clip-rule="evenodd" d="M16.9999 16.4337C16.7149 16.4355 16.4306 16.4611 16.1499 16.5102C18.6034 16.922 20.4005 19.0458 20.4005 21.5337C20.4005 24.0215 18.6034 26.1454 16.1499 26.5572C18.0523 26.8902 19.9795 26.1202 21.1286 24.5679C22.2776 23.0156 22.4513 20.9475 21.5772 19.2253C20.7031 17.5032 18.9312 16.4225 16.9999 16.4337Z" fill="#FEC108"/>
<path fill-rule="evenodd" clip-rule="evenodd" d="M32.8665 25.5006C32.8665 24.8747 32.3591 24.3673 31.7331 24.3673C32.3591 24.3673 32.8665 23.8598 32.8665 23.2339C32.8665 22.608 32.3591 22.1006 31.7331 22.1006H24.9331C24.3072 22.1006 23.7998 22.608 23.7998 23.2339C23.7998 23.8598 24.3072 24.3673 24.9331 24.3673C24.3072 24.3673 23.7998 24.8747 23.7998 25.5006C23.7998 26.1265 24.3072 26.6339 24.9331 26.6339C24.3072 26.6339 23.7998 27.1413 23.7998 27.7673C23.7998 28.3932 24.3072 28.9006 24.9331 28.9006C24.3072 28.9006 23.7998 29.408 23.7998 30.0339C23.7998 30.6598 24.3072 31.1673 24.9331 31.1673C24.3072 31.1673 23.7998 31.6747 23.7998 32.3006C23.7998 32.9265 24.3072 33.4339 24.9331 33.4339H31.7331C32.3591 33.4339 32.8665 32.9265 32.8665 32.3006C32.8665 31.6747 32.3591 31.1673 31.7331 31.1673C32.3591 31.1673 32.8665 30.6598 32.8665 30.0339C32.8665 29.408 32.3591 28.9006 31.7331 28.9006C32.3591 28.9006 32.8665 28.3932 32.8665 27.7673C32.8665 27.1413 32.3591 26.6339 31.7331 26.6339C32.3591 26.6339 32.8665 26.1265 32.8665 25.5006Z" fill="#FFDC00"/>
<path fill-rule="evenodd" clip-rule="evenodd" d="M32.8665 25.5006C32.8665 24.8747 32.3591 24.3673 31.7332 24.3673C32.3591 24.3673 32.8665 23.8598 32.8665 23.2339C32.8665 22.608 32.3591 22.1006 31.7332 22.1006H30.0332C30.6591 22.1006 31.1665 22.608 31.1665 23.2339C31.1665 23.8598 30.6591 24.3673 30.0332 24.3673C30.6591 24.3673 31.1665 24.8747 31.1665 25.5006C31.1665 26.1265 30.6591 26.6339 30.0332 26.6339C30.6591 26.6339 31.1665 27.1413 31.1665 27.7673C31.1665 28.3932 30.6591 28.9006 30.0332 28.9006C30.6591 28.9006 31.1665 29.408 31.1665 30.0339C31.1665 30.6598 30.6591 31.1673 30.0332 31.1673C30.6591 31.1673 31.1665 31.6747 31.1665 32.3006C31.1665 32.9265 30.6591 33.4339 30.0332 33.4339H31.7332C32.3591 33.4339 32.8665 32.9265 32.8665 32.3006C32.8665 31.6747 32.3591 31.1673 31.7332 31.1673C32.3591 31.1673 32.8665 30.6598 32.8665 30.0339C32.8665 29.408 32.3591 28.9006 31.7332 28.9006C32.3591 28.9006 32.8665 28.3932 32.8665 27.7673C32.8665 27.1413 32.3591 26.6339 31.7332 26.6339C32.3591 26.6339 32.8665 26.1265 32.8665 25.5006Z" fill="#FEC108"/>
<path d="M28.3334 22.1004C31.1501 22.1004 33.4334 19.817 33.4334 17.0004C33.4334 14.1837 31.1501 11.9004 28.3334 11.9004C25.5167 11.9004 23.2334 14.1837 23.2334 17.0004C23.2334 19.817 25.5167 22.1004 28.3334 22.1004Z" fill="#FFDC00"/>
<path fill-rule="evenodd" clip-rule="evenodd" d="M28.3334 11.9005C28.0484 11.9023 27.7641 11.9279 27.4834 11.977C29.9369 12.3888 31.734 14.5126 31.734 17.0005C31.734 19.4883 29.9369 21.6122 27.4834 22.024C29.3857 22.357 31.313 21.587 32.4621 20.0347C33.6111 18.4824 33.7848 16.4143 32.9107 14.6921C32.0366 12.97 30.2647 11.8893 28.3334 11.9005Z" fill="#FEC108"/>
<path d="M5.66641 31.1668C8.48306 31.1668 10.7664 28.8834 10.7664 26.0668C10.7664 23.2501 8.48306 20.9668 5.66641 20.9668C2.84975 20.9668 0.566406 23.2501 0.566406 26.0668C0.566406 28.8834 2.84975 31.1668 5.66641 31.1668Z" fill="#FFDC00"/>
<path fill-rule="evenodd" clip-rule="evenodd" d="M5.66641 20.9669C5.38144 20.9687 5.09712 20.9943 4.81641 21.0434C7.26992 21.4552 9.06702 23.5791 9.06702 26.0669C9.06702 28.5547 7.26992 30.6786 4.81641 31.0904C6.71876 31.4235 8.64605 30.6534 9.79509 29.1011C10.9441 27.5488 11.1178 25.4807 10.2437 23.7585C9.36956 22.0364 7.59766 20.9557 5.66641 20.9669Z" fill="#FEC108"/>
<path d="M1.70006 18.1338C2.151 18.1345 2.58368 17.9557 2.90253 17.6368C2.94673 17.5926 5.66673 14.8777 5.66673 14.8777L7.06243 16.2745C7.59385 16.8064 8.31487 17.1052 9.06673 17.1052C9.81858 17.1052 10.5396 16.8064 11.071 16.2745L19.3852 7.95755L21.9136 10.4872C23.0213 11.5929 24.8151 11.5929 25.9228 10.4872L30.9843 5.41889L31.4047 5.83935C31.7792 6.21343 32.3372 6.3352 32.8335 6.15115C33.3297 5.96709 33.6734 5.5109 33.7133 4.98312L33.9967 1.33322V1.32755C34.0212 0.969714 33.8898 0.618738 33.6363 0.365003C33.3828 0.111267 33.0319 -0.0204306 32.6741 0.00382127L29.0208 0.287155C28.4931 0.32489 28.0361 0.667213 27.8516 1.16294C27.667 1.65867 27.7889 2.2165 28.1634 2.59009L28.5839 3.01169L23.9174 7.68046L21.3895 5.15085C20.858 4.61899 20.137 4.32016 19.3852 4.32016C18.6333 4.32016 17.9123 4.61899 17.3809 5.15085L9.06673 13.4684L7.67216 12.0704C6.56464 10.9643 4.77051 10.9643 3.66299 12.0704L0.503826 15.2381C0.0183184 15.7225 -0.127509 16.4517 0.134359 17.0856C0.396228 17.7195 1.01421 18.1332 1.70006 18.1338ZM1.30339 16.0371L4.46483 12.8689C4.78369 12.5496 5.21638 12.3703 5.66758 12.3703C6.11877 12.3703 6.55146 12.5496 6.87033 12.8689L8.66609 14.6658C8.77238 14.7722 8.91661 14.832 9.06701 14.832C9.21741 14.832 9.36164 14.7722 9.46793 14.6658L18.1821 5.95042C18.8552 5.30726 19.9151 5.30726 20.5882 5.95042L23.1167 8.48002C23.5652 8.90839 24.2712 8.90839 24.7198 8.48002L29.7863 3.41062C30.0072 3.1894 30.0072 2.83114 29.7863 2.60992L28.963 1.78655C28.9007 1.72877 28.881 1.63831 28.9137 1.55989C28.9422 1.47657 29.0189 1.41925 29.1069 1.41539L32.7579 1.13375C32.7865 1.13247 32.8142 1.14363 32.8339 1.16435C32.8563 1.18586 32.8683 1.21605 32.8667 1.24709L32.5834 4.89642C32.5772 4.98287 32.5212 5.05776 32.44 5.08812C32.3588 5.11847 32.2674 5.0987 32.206 5.03752L31.3849 4.21529C31.1599 4.00265 30.808 4.00265 30.5831 4.21529L25.121 9.68532C24.4474 10.3267 23.389 10.3267 22.7155 9.68532L20.187 7.15572C19.9749 6.94218 19.6861 6.8224 19.3852 6.82309C19.0847 6.82274 18.7965 6.94226 18.5845 7.15516L10.2703 15.4733C9.59713 16.1161 8.53746 16.1161 7.86426 15.4733L6.46856 14.0764C6.02606 13.6344 5.30909 13.6344 4.86659 14.0764L2.09956 16.8389C1.87754 17.0562 1.52258 17.0562 1.30056 16.8389C1.19338 16.7348 1.1329 16.5917 1.1329 16.4423C1.1329 16.2928 1.19338 16.1497 1.30056 16.0456L1.30339 16.0371Z" fill="black"/>
<path d="M22.6668 21.5333C22.6718 18.865 20.8145 16.5547 18.2075 15.9861C15.6004 15.4176 12.9499 16.7449 11.8435 19.1731C10.7371 21.6012 11.4746 24.4723 13.6143 26.0666H13.6001C12.9283 26.0636 12.3183 26.4583 12.0456 27.0724C11.773 27.6864 11.8893 28.4036 12.3421 28.9C11.7528 29.5406 11.7528 30.526 12.3421 31.1666C11.8893 31.663 11.773 32.3802 12.0456 32.9942C12.3183 33.6083 12.9283 34.0029 13.6001 34H20.4001C21.072 34.0029 21.682 33.6083 21.9546 32.9942C22.2273 32.3802 22.1109 31.663 21.6581 31.1666C22.2475 30.526 22.2475 29.5406 21.6581 28.9C22.1109 28.4036 22.2273 27.6864 21.9546 27.0724C21.682 26.4583 21.072 26.0636 20.4001 26.0666H20.386C21.8195 25.0005 22.6651 23.3198 22.6668 21.5333ZM20.9668 30.0333C20.9668 30.3462 20.7131 30.6 20.4001 30.6H13.6001C13.2872 30.6 13.0335 30.3462 13.0335 30.0333C13.0335 29.7203 13.2872 29.4666 13.6001 29.4666H20.4001C20.7131 29.4666 20.9668 29.7203 20.9668 30.0333ZM20.4001 32.8666H13.6001C13.2872 32.8666 13.0335 32.6129 13.0335 32.3C13.0335 31.987 13.2872 31.7333 13.6001 31.7333H20.4001C20.7131 31.7333 20.9668 31.987 20.9668 32.3C20.9668 32.6129 20.7131 32.8666 20.4001 32.8666ZM20.4001 27.2C20.7131 27.2 20.9668 27.4537 20.9668 27.7666C20.9668 28.0796 20.7131 28.3333 20.4001 28.3333H13.6001C13.2872 28.3333 13.0335 28.0796 13.0335 27.7666C13.0335 27.4537 13.2872 27.2 13.6001 27.2H20.4001ZM12.4668 21.5333C12.4668 19.0296 14.4964 17 17.0001 17C19.5038 17 21.5335 19.0296 21.5335 21.5333C21.5335 24.037 19.5038 26.0666 17.0001 26.0666C14.4976 26.0638 12.4696 24.0358 12.4668 21.5333Z" fill="black"/>
<path fill-rule="evenodd" clip-rule="evenodd" d="M17.0002 20.9671C16.7253 20.9669 16.4902 20.7693 16.4426 20.4985C16.3951 20.2277 16.5487 19.9618 16.8071 19.8679C17.0655 19.774 17.354 19.879 17.4915 20.1171C17.5894 20.299 17.7784 20.4132 17.9849 20.4152C18.1915 20.4173 18.3827 20.3068 18.4841 20.1268C18.5855 19.9469 18.581 19.7261 18.4724 19.5505C18.267 19.2057 17.9462 18.9448 17.5669 18.8138V18.7005C17.5669 18.3875 17.3131 18.1338 17.0002 18.1338C16.6872 18.1338 16.4335 18.3875 16.4335 18.7005V18.8047C15.6535 19.0795 15.1853 19.8768 15.3255 20.6918C15.4656 21.5069 16.1732 22.102 17.0002 22.1005C17.2751 22.1007 17.5102 22.2983 17.5578 22.5691C17.6053 22.8399 17.4517 23.1057 17.1933 23.1997C16.9349 23.2936 16.6464 23.1886 16.5089 22.9505C16.3477 22.69 16.0088 22.6047 15.7435 22.7579C15.4783 22.9111 15.3828 23.2474 15.528 23.5171C15.7337 23.8621 16.0549 24.123 16.4347 24.2538V24.3671C16.4347 24.6801 16.6884 24.9338 17.0013 24.9338C17.3143 24.9338 17.568 24.6801 17.568 24.3671V24.2629C18.3482 23.988 18.8164 23.1904 18.676 22.3752C18.5355 21.56 17.8274 20.965 17.0002 20.9671Z" fill="black"/>
<path d="M28.3335 11.334C25.8924 11.3313 23.7246 12.894 22.9556 15.2108C22.1865 17.5276 22.9895 20.0764 24.9477 21.534H24.9335C24.2617 21.531 23.6517 21.9257 23.379 22.5397C23.1064 23.1538 23.2227 23.871 23.6755 24.3673C23.0862 25.0079 23.0862 25.9934 23.6755 26.634C23.0862 27.2746 23.0862 28.26 23.6755 28.9007C23.0862 29.5413 23.0862 30.5267 23.6755 31.1673C23.2227 31.6637 23.1064 32.3809 23.379 32.9949C23.6517 33.609 24.2617 34.0036 24.9335 34.0007H31.7335C32.4054 34.0036 33.0154 33.609 33.288 32.9949C33.5607 32.3809 33.4443 31.6637 32.9915 31.1673C33.5809 30.5267 33.5809 29.5413 32.9915 28.9007C33.5809 28.26 33.5809 27.2746 32.9915 26.634C33.5809 25.9934 33.5809 25.0079 32.9915 24.3673C33.4443 23.871 33.5607 23.1538 33.288 22.5397C33.0154 21.9257 32.4054 21.531 31.7335 21.534H31.7188C33.6776 20.0768 34.4812 17.5277 33.7122 15.2106C32.9432 12.8935 30.7749 11.3308 28.3335 11.334ZM32.3002 25.5007C32.3002 25.8136 32.0465 26.0673 31.7335 26.0673H24.9335C24.6206 26.0673 24.3669 25.8136 24.3669 25.5007C24.3669 25.1877 24.6206 24.934 24.9335 24.934H31.7335C32.0465 24.934 32.3002 25.1877 32.3002 25.5007ZM32.3002 27.7673C32.3002 28.0803 32.0465 28.334 31.7335 28.334H24.9335C24.6206 28.334 24.3669 28.0803 24.3669 27.7673C24.3669 27.4544 24.6206 27.2007 24.9335 27.2007H31.7335C32.0465 27.2007 32.3002 27.4544 32.3002 27.7673ZM32.3002 30.034C32.3002 30.347 32.0465 30.6007 31.7335 30.6007H24.9335C24.6206 30.6007 24.3669 30.347 24.3669 30.034C24.3669 29.721 24.6206 29.4673 24.9335 29.4673H31.7335C32.0465 29.4673 32.3002 29.721 32.3002 30.034ZM31.7335 32.8673H24.9335C24.6206 32.8673 24.3669 32.6136 24.3669 32.3007C24.3669 31.9877 24.6206 31.734 24.9335 31.734H31.7335C32.0465 31.734 32.3002 31.9877 32.3002 32.3007C32.3002 32.6136 32.0465 32.8673 31.7335 32.8673ZM31.7335 22.6673C32.0465 22.6673 32.3002 22.921 32.3002 23.234C32.3002 23.547 32.0465 23.8007 31.7335 23.8007H24.9335C24.6206 23.8007 24.3669 23.547 24.3669 23.234C24.3669 22.921 24.6206 22.6673 24.9335 22.6673H31.7335ZM28.3335 21.534C25.8298 21.534 23.8002 19.5043 23.8002 17.0007C23.8002 14.497 25.8298 12.4673 28.3335 12.4673C30.8372 12.4673 32.8669 14.497 32.8669 17.0007C32.8641 19.5032 30.8361 21.5312 28.3335 21.534Z" fill="black"/>
<path fill-rule="evenodd" clip-rule="evenodd" d="M28.3332 16.4339C28.0583 16.4337 27.8232 16.2361 27.7756 15.9653C27.7281 15.6945 27.8817 15.4286 28.1401 15.3347C28.3985 15.2408 28.687 15.3458 28.8245 15.5839C28.9856 15.8444 29.3246 15.9297 29.5899 15.7765C29.8551 15.6232 29.9505 15.287 29.8054 15.0173C29.6002 14.6723 29.2794 14.4113 28.8999 14.2806V14.1673C28.8999 13.8543 28.6462 13.6006 28.3332 13.6006C28.0202 13.6006 27.7665 13.8543 27.7665 14.1673V14.2715C26.9865 14.5463 26.5183 15.3436 26.6585 16.1586C26.7986 16.9737 27.5062 17.5688 28.3332 17.5673C28.6081 17.5675 28.8432 17.7651 28.8908 18.0359C28.9383 18.3067 28.7847 18.5725 28.5263 18.6665C28.2679 18.7604 27.9794 18.6553 27.8419 18.4173C27.6807 18.1568 27.3418 18.0715 27.0765 18.2247C26.8113 18.3779 26.7158 18.7142 26.861 18.9839C27.0664 19.3291 27.3877 19.5901 27.7677 19.7206V19.8339C27.7677 20.1469 28.0214 20.4006 28.3343 20.4006C28.6473 20.4006 28.901 20.1469 28.901 19.8339V19.7297C29.6812 19.4548 30.1494 18.6572 30.009 17.842C29.8685 17.0268 29.1604 16.4318 28.3332 16.4339Z" fill="black"/>
<path d="M2.28071 30.6002H2.26655C1.32766 30.6002 0.566548 31.3614 0.566548 32.3002C0.566548 33.2391 1.32766 34.0002 2.26655 34.0002H9.06655C10.0054 34.0002 10.7665 33.2391 10.7665 32.3002C10.7665 31.3614 10.0054 30.6002 9.06655 30.6002H9.05238C11.0108 29.1409 11.8139 26.591 11.0452 24.2727C10.2765 21.9545 8.10891 20.3896 5.66655 20.3896C3.22419 20.3896 1.05661 21.9545 0.287886 24.2727C-0.48084 26.591 0.322261 29.1409 2.28071 30.6002ZM9.06655 31.7336C9.37951 31.7336 9.63321 31.9873 9.63321 32.3002C9.63321 32.6132 9.37951 32.8669 9.06655 32.8669H2.26655C1.95359 32.8669 1.69988 32.6132 1.69988 32.3002C1.69988 31.9873 1.95359 31.7336 2.26655 31.7336H9.06655ZM5.66655 21.5336C8.17024 21.5336 10.1999 23.5632 10.1999 26.0669C10.1999 28.5706 8.17024 30.6002 5.66655 30.6002C3.16286 30.6002 1.13321 28.5706 1.13321 26.0669C1.13603 23.5644 3.16402 21.5364 5.66655 21.5336Z" fill="black"/>
<path fill-rule="evenodd" clip-rule="evenodd" d="M5.66669 26.6337C5.94162 26.6339 6.1767 26.8315 6.22426 27.1023C6.27183 27.3731 6.11816 27.6389 5.85978 27.7329C5.6014 27.8268 5.31286 27.7218 5.17539 27.4837C5.07752 27.3018 4.88846 27.1876 4.68194 27.1856C4.47542 27.1835 4.28416 27.294 4.18275 27.4739C4.08133 27.6539 4.08583 27.8747 4.19449 28.0503C4.40021 28.3953 4.72141 28.6562 5.10116 28.787V28.9003C5.10116 29.2133 5.35486 29.467 5.66783 29.467C5.98079 29.467 6.23449 29.2133 6.23449 28.9003V28.7961C7.01474 28.5212 7.48291 27.7236 7.34246 26.9084C7.20201 26.0932 6.49392 25.4982 5.66669 25.5003C5.39176 25.5001 5.15669 25.3025 5.10912 25.0317C5.06156 24.7609 5.21523 24.4951 5.47361 24.4011C5.73199 24.3072 6.02053 24.4122 6.15799 24.6503C6.25586 24.8322 6.44493 24.9464 6.65144 24.9484C6.85796 24.9505 7.04923 24.84 7.15064 24.66C7.25205 24.4801 7.24755 24.2593 7.13889 24.0837C6.93346 23.7389 6.61269 23.478 6.23336 23.347V23.2337C6.23336 22.9207 5.97965 22.667 5.66669 22.667C5.35373 22.667 5.10003 22.9207 5.10003 23.2337V23.3379C4.31998 23.6127 3.85183 24.41 3.99197 25.225C4.13211 26.0401 4.83968 26.6352 5.66669 26.6337Z" fill="black"/>
</g>
<defs>
<clipPath id="clip0_8_8926">
<rect width="34" height="34" fill="white"/>
</clipPath>
</defs>
</svg>
