<svg width="46" height="46" viewBox="0 0 46 46" fill="none" xmlns="http://www.w3.org/2000/svg">
<path fill-rule="evenodd" clip-rule="evenodd" d="M23.0007 5.75C24.0592 5.75 24.9173 6.60813 24.9173 7.66667V23.5129C26.0631 24.1757 26.834 25.4144 26.834 26.8333C26.834 28.9505 25.1178 30.6667 23.0007 30.6667C20.8835 30.6667 19.1673 28.9505 19.1673 26.8333C19.1673 25.4144 19.9382 24.1757 21.084 23.5129V7.66667C21.084 6.60813 21.9421 5.75 23.0007 5.75ZM19.0578 9.92634C19.4105 10.9244 18.8874 12.0194 17.8894 12.3722C11.9314 14.478 7.66732 20.1603 7.66732 26.8335C7.66732 29.3388 8.2667 31.6986 9.32817 33.7824C9.52499 34.1688 10.0103 34.5002 10.7024 34.5002H35.2989C35.9911 34.5002 36.4763 34.1688 36.6732 33.7824C37.7346 31.6986 38.334 29.3388 38.334 26.8335C38.334 20.1603 34.07 14.478 28.112 12.3722C27.1138 12.0194 26.5908 10.9244 26.9436 9.92634C27.2963 8.92829 28.3913 8.4052 29.3893 8.75796C36.8311 11.3882 42.1673 18.4852 42.1673 26.8335C42.1673 29.9575 41.4185 32.912 40.0889 35.5224C39.1244 37.4154 37.1652 38.3335 35.2989 38.3335H10.7024C8.83618 38.3335 6.87679 37.4154 5.91246 35.5224C4.58281 32.912 3.83398 29.9575 3.83398 26.8335C3.83398 18.4852 9.17023 11.3882 16.6119 8.75796C17.61 8.4052 18.705 8.92829 19.0578 9.92634Z" fill="#1465DF"/>
</svg>
