<svg width="131" height="131" viewBox="0 0 131 131" fill="none" xmlns="http://www.w3.org/2000/svg">
<path fill-rule="evenodd" clip-rule="evenodd" d="M22.8027 65.4998C22.8027 89.0452 41.9538 108.196 65.4993 108.196C89.0448 108.196 108.196 89.0452 108.196 65.4998C108.196 41.9543 89.0448 22.8032 65.4993 22.8032C41.9538 22.8032 22.8027 41.9543 22.8027 65.4998ZM65.4993 102.631C45.0272 102.631 28.3677 85.9718 28.3677 65.4998C28.3677 45.0277 45.0272 28.3682 65.4993 28.3682C85.9713 28.3682 102.631 45.0277 102.631 65.4998C102.631 85.9718 85.9713 102.631 65.4993 102.631Z" fill="#01058A"/>
<path fill-rule="evenodd" clip-rule="evenodd" d="M45.8301 65.4998C45.8301 76.348 54.6511 85.1689 65.4993 85.1689C76.3475 85.1689 85.1685 76.348 85.1685 65.4998C85.1685 54.6515 76.3475 45.8306 65.4993 45.8306C54.6511 45.8306 45.8301 54.6515 45.8301 65.4998ZM65.4993 79.604C57.7245 79.604 51.395 73.2745 51.395 65.4998C51.395 57.725 57.7245 51.3955 65.4993 51.3955C73.274 51.3955 79.6035 57.725 79.6035 65.4998C79.6035 73.2745 73.274 79.604 65.4993 79.604Z" fill="#01058A"/>
<path fill-rule="evenodd" clip-rule="evenodd" d="M63.5318 67.4673C64.6184 68.5539 66.3801 68.5539 67.4668 67.4673L95.6904 39.2437C96.777 38.1571 96.777 36.3953 95.6904 35.3087C94.6037 34.222 92.842 34.222 91.7554 35.3087L63.5318 63.5323C62.4451 64.6189 62.4451 66.3806 63.5318 67.4673Z" fill="#01058A"/>
<path fill-rule="evenodd" clip-rule="evenodd" d="M108.505 41.3153C109.322 41.3842 110.127 41.0897 110.706 40.5102L126.989 24.2276C127.755 23.4619 128.007 22.3214 127.635 21.3043C127.263 20.2873 126.335 19.5785 125.256 19.4875L112.581 18.4184L111.512 5.74334C111.421 4.66424 110.712 3.73598 109.695 3.36401C108.678 2.99204 107.537 3.24395 106.771 4.0097L90.4888 20.2926C89.9094 20.872 89.6148 21.6774 89.6837 22.4939L90.9499 37.51C91.0639 38.8621 92.1366 39.9348 93.4887 40.0488L108.505 41.3153ZM96.2978 34.7011L95.3375 23.3139L106.47 12.1813L107.233 21.2274C107.347 22.5795 108.42 23.6522 109.772 23.7662L118.818 24.5292L107.685 35.6615L96.2978 34.7011Z" fill="#01058A"/>
<path fill-rule="evenodd" clip-rule="evenodd" d="M65.4993 124.379C32.9808 124.379 6.61963 98.0182 6.61963 65.4998C6.61963 32.9816 32.9808 6.62013 65.4993 6.62013C76.5787 6.62013 86.936 9.6796 95.7836 14.9977L90.4888 20.2926C89.9094 20.872 89.6149 21.6773 89.6837 22.4938L90.95 37.5102C91.064 38.8624 92.1367 39.935 93.4888 40.0491L108.505 41.3153C109.322 41.3842 110.127 41.0896 110.706 40.5102L116.001 35.2155C121.319 44.063 124.379 54.4204 124.379 65.4998C124.379 98.0182 98.0174 124.379 65.4993 124.379ZM1.05469 65.4998C1.05469 101.092 29.9074 129.944 65.4993 129.944C101.091 129.944 129.944 101.092 129.944 65.4998C129.944 52.0559 125.822 39.568 118.777 29.2364C118.31 28.5518 117.563 28.111 116.738 28.0336C115.913 27.9563 115.096 28.2506 114.51 28.8364L107.685 35.6615L96.2978 34.7012L95.3375 23.3138L102.163 16.4885C102.748 15.9027 103.043 15.0863 102.965 14.2614C102.888 13.4365 102.447 12.689 101.763 12.2222C91.431 5.17702 78.9431 1.05519 65.4993 1.05519C29.9074 1.05519 1.05469 29.9082 1.05469 65.4998Z" fill="#01058A"/>
</svg>
