<svg width="100" height="100" viewBox="0 0 100 100" fill="none" xmlns="http://www.w3.org/2000/svg">
<g clip-path="url(#clip0_8_2934)">
<path fill-rule="evenodd" clip-rule="evenodd" d="M50 4.92969C45.9053 4.92969 42.5859 8.24908 42.5859 12.3438C42.5859 16.4384 45.9053 19.7578 50 19.7578C54.0947 19.7578 57.4141 16.4384 57.4141 12.3438C57.4141 8.24908 54.0947 4.92969 50 4.92969ZM38.5859 12.3438C38.5859 6.03994 43.6962 0.929688 50 0.929688C56.3038 0.929688 61.4141 6.03994 61.4141 12.3438C61.4141 18.6476 56.3038 23.7578 50 23.7578C43.6962 23.7578 38.5859 18.6476 38.5859 12.3438Z" fill="#01058A"/>
<path fill-rule="evenodd" clip-rule="evenodd" d="M29.1719 40.5859C29.1719 29.0835 38.4976 19.7578 50 19.7578C61.5024 19.7578 70.8281 29.0835 70.8281 40.5859C70.8281 41.6905 69.9327 42.5859 68.8281 42.5859H31.1719C30.0673 42.5859 29.1719 41.6905 29.1719 40.5859ZM33.2895 38.5859H66.7105C65.7214 30.2352 58.6165 23.7578 50 23.7578C41.3835 23.7578 34.2786 30.2352 33.2895 38.5859Z" fill="#01058A"/>
<path fill-rule="evenodd" clip-rule="evenodd" d="M82.5174 34.941C82.5174 30.3706 86.223 26.665 90.7934 26.665C95.3637 26.665 99.0693 30.3704 99.0693 34.941V64.7066C99.0693 67.7332 97.8673 70.6361 95.7269 72.7765L79.4803 89.0232V97.0707C79.4803 98.1753 78.5848 99.0707 77.4803 99.0707H59.7285C58.6239 99.0707 57.7285 98.1753 57.7285 97.0707V84.5493C55.3664 81.8937 54.0508 78.4558 54.0508 74.8818C54.0508 71.0234 55.5842 67.3217 58.3127 64.5932L71.6263 51.2797L71.6273 51.2787C71.6273 51.2787 71.6275 51.2784 71.6349 51.2858L71.6273 51.2787C74.5997 48.306 79.2722 48.0673 82.5174 50.563V34.941ZM74.456 71.857L83.3317 62.9827C83.3893 62.925 83.4465 62.8661 83.5021 62.8072C85.4355 60.7867 86.5174 58.0948 86.5174 55.2926V34.941C86.5174 32.5798 88.4321 30.665 90.7934 30.665C93.1547 30.665 95.0693 32.5796 95.0693 34.941V64.7066C95.0693 66.6726 94.2885 68.558 92.8985 69.9481L76.0666 86.78C76.0665 86.7801 76.0661 86.7805 77.4803 88.1947L76.0666 86.78C75.6915 87.1551 75.4803 87.6643 75.4803 88.1947V95.0707H61.7285V83.7576H61.6666C61.7285 83.7574 61.7285 83.7579 61.7285 83.7576L61.7285 83.7548L61.7285 83.7509L61.7285 83.7429L61.7283 83.7269L61.7275 83.6941C61.7268 83.6719 61.7257 83.649 61.7241 83.6254C61.721 83.5783 61.716 83.528 61.7085 83.4752C61.6935 83.3697 61.668 83.2511 61.6258 83.1244C61.539 82.8641 61.3862 82.5853 61.1412 82.3403C59.1626 80.3618 58.0508 77.679 58.0508 74.8818C58.0508 72.0844 59.1627 69.4001 61.1412 67.4216L74.4557 54.1071C74.4557 54.1071 74.456 54.1068 73.0598 52.7106L74.4557 54.1071C76.1252 52.4375 78.8336 52.437 80.5034 54.1068C82.14 55.7434 82.1728 58.3768 80.5997 60.0547C80.5681 60.0874 80.5363 60.1199 80.504 60.1521L71.6277 69.0285C70.8467 69.8095 70.8465 71.0759 71.6275 71.8569C72.4085 72.638 73.6749 72.638 74.456 71.857Z" fill="#01058A"/>
<path fill-rule="evenodd" clip-rule="evenodd" d="M9.20566 30.665C6.84437 30.665 4.92969 32.5796 4.92969 34.941V64.7066C4.92969 66.6726 5.71065 68.5582 7.10054 69.9481L23.9309 86.7784L23.9324 86.78C23.9325 86.7801 23.933 86.7805 22.5187 88.1947L23.9324 86.78C24.3075 87.1551 24.5187 87.6643 24.5187 88.1947V95.0707H38.2705V83.7576H38.3322C38.2705 83.7574 38.2705 83.7579 38.2705 83.7576V83.7548L38.2705 83.7509L38.2706 83.7429L38.2707 83.7269L38.2715 83.6941C38.2722 83.6719 38.2733 83.649 38.2749 83.6254C38.278 83.5783 38.283 83.528 38.2905 83.4752C38.3056 83.3697 38.3311 83.2511 38.3733 83.1244C38.46 82.8641 38.6129 82.5853 38.8579 82.3403C40.8365 80.3618 41.9482 77.679 41.9482 74.8818C41.9482 72.0844 40.8363 69.4001 38.8579 67.4216L25.5436 54.1075C25.5435 54.1075 25.5432 54.1072 26.9486 52.7017L25.5436 54.1075C23.8741 52.4379 21.1656 52.4374 19.4959 54.1072C17.8616 55.7415 17.8265 58.3696 19.3928 60.0478C19.4265 60.0829 19.4605 60.1177 19.495 60.1521L28.3713 69.0284C29.1523 69.8095 29.1525 71.0759 28.3715 71.8569C27.5905 72.638 26.3242 72.6381 25.5431 71.8571L16.6676 62.9831C16.6058 62.9213 16.5446 62.8582 16.4852 62.7949C14.5592 60.7759 13.4816 58.0892 13.4816 55.2926V34.941C13.4816 32.5798 11.5669 30.665 9.20566 30.665ZM17.4816 50.5636V34.941C17.4816 30.3706 13.7761 26.665 9.20566 26.665C4.63531 26.665 0.929688 30.3704 0.929688 34.941V64.7066C0.929688 67.7333 2.13193 70.6363 4.27211 72.7765L20.5187 89.0232V97.0707C20.5187 98.1753 21.4142 99.0707 22.5187 99.0707H40.2705C41.3751 99.0707 42.2705 98.1753 42.2705 97.0707V84.5493C44.6326 81.8937 45.9482 78.4558 45.9482 74.8818C45.9482 71.0234 44.4148 67.3217 41.6863 64.5932L28.3719 51.2791C25.3994 48.3063 20.7269 48.0677 17.4816 50.5636Z" fill="#01058A"/>
</g>
<defs>
<clipPath id="clip0_8_2934">
<rect width="100" height="100" fill="white"/>
</clipPath>
</defs>
</svg>
