<svg width="131" height="131" viewBox="0 0 131 131" fill="none" xmlns="http://www.w3.org/2000/svg">
<g clip-path="url(#clip0_8_5080)">
<path d="M72.5351 72.2031C67.819 72.2011 63.1854 73.4397 59.0994 75.7947C58.8664 75.9293 58.6623 76.1084 58.4985 76.3219C58.3348 76.5354 58.2147 76.779 58.1452 77.0389C58.0756 77.2988 58.0579 77.5699 58.0931 77.8366C58.1283 78.1033 58.2157 78.3605 58.3502 78.5935C58.4848 78.8264 58.664 79.0306 58.8774 79.1943C59.0909 79.3581 59.3346 79.4781 59.5945 79.5477C59.8543 79.6173 60.1254 79.635 60.3921 79.5998C60.6588 79.5646 60.916 79.4772 61.149 79.3426C66.1667 76.4416 72.1003 75.5586 77.7453 76.873C83.3902 78.1874 88.3235 81.6007 91.5435 86.4199C94.7635 91.2392 96.029 97.1031 95.083 102.821C94.137 108.54 91.0505 113.684 86.45 117.209C81.8495 120.735 76.0798 122.377 70.3123 121.804C64.5447 121.23 59.2116 118.483 55.3956 114.121C51.5795 109.758 49.5665 104.107 49.7653 98.3146C49.964 92.522 52.3596 87.0221 56.4657 82.9315C56.6616 82.7431 56.8181 82.5176 56.9259 82.2682C57.0337 82.0187 57.0908 81.7503 57.0937 81.4785C57.0967 81.2068 57.0456 80.9371 56.9432 80.6854C56.8409 80.4336 56.6895 80.2047 56.4978 80.0121C56.306 79.8195 56.0779 79.667 55.8266 79.5635C55.5753 79.46 55.306 79.4075 55.0342 79.4092C54.7624 79.4109 54.4937 79.4667 54.2438 79.5734C53.9938 79.68 53.7676 79.8354 53.5783 80.0304C49.1691 84.4179 46.4184 90.1992 45.7954 96.3881C45.1723 102.577 46.7155 108.791 50.1617 113.969C53.6079 119.147 58.7437 122.97 64.6933 124.785C70.643 126.6 77.0379 126.294 82.7877 123.921C88.5374 121.548 93.2858 117.254 96.2232 111.771C99.1606 106.288 100.105 99.9554 98.8954 93.8539C97.6857 87.7523 94.397 82.2594 89.59 78.3117C84.7829 74.364 78.7553 72.206 72.5351 72.2059V72.2031Z" fill="#01058A"/>
<path d="M74.7602 107.169H69.6212C69.2238 107.17 68.8303 107.092 68.4629 106.941C68.0956 106.789 67.7617 106.567 67.4804 106.286C67.199 106.006 66.9758 105.672 66.8233 105.305C66.6708 104.939 66.5922 104.545 66.5918 104.148C66.5918 103.605 66.3761 103.084 65.9923 102.701C65.6084 102.317 65.0878 102.101 64.5449 102.101C64.0021 102.101 63.4814 102.317 63.0976 102.701C62.7137 103.084 62.498 103.605 62.498 104.148C62.5002 106.034 63.2505 107.843 64.5844 109.176C65.9182 110.51 67.7267 111.261 69.613 111.263H70.1397V115.187C70.1397 115.73 70.3554 116.251 70.7392 116.635C71.1231 117.019 71.6437 117.234 72.1866 117.234C72.7295 117.234 73.2501 117.019 73.6339 116.635C74.0178 116.251 74.2335 115.73 74.2335 115.187V111.263H74.7547C76.6417 111.263 78.4514 110.513 79.7858 109.179C81.1201 107.845 81.8697 106.035 81.8697 104.148C81.8697 102.261 81.1201 100.451 79.7858 99.1168C78.4514 97.7825 76.6417 97.0329 74.7547 97.0329H69.6212C68.8353 97.0093 68.0895 96.6805 67.5419 96.1162C66.9943 95.552 66.6881 94.7966 66.6881 94.0104C66.6881 93.2241 66.9943 92.4688 67.5419 91.9045C68.0895 91.3402 68.8353 91.0114 69.6212 90.9878H74.7602C75.5612 90.9885 76.3293 91.3071 76.8957 91.8735C77.4621 92.4399 77.7807 93.208 77.7814 94.009C77.7814 94.5519 77.997 95.0725 78.3809 95.4564C78.7648 95.8402 79.2854 96.0559 79.8283 96.0559C80.3711 96.0559 80.8918 95.8402 81.2756 95.4564C81.6595 95.0725 81.8751 94.5519 81.8751 94.009C81.873 92.1227 81.1227 90.3142 79.7888 88.9804C78.455 87.6465 76.6465 86.8962 74.7602 86.8941H74.2335V82.9668C74.2335 82.4239 74.0178 81.9033 73.6339 81.5194C73.2501 81.1356 72.7295 80.9199 72.1866 80.9199C71.6437 80.9199 71.1231 81.1356 70.7392 81.5194C70.3554 81.9033 70.1397 82.4239 70.1397 82.9668V86.8941H69.6212C67.7579 86.9306 65.9833 87.6963 64.6786 89.0269C63.3738 90.3575 62.6429 92.1468 62.6429 94.0104C62.6429 95.874 63.3738 97.6632 64.6786 98.9938C65.9833 100.324 67.7579 101.09 69.6212 101.127H74.7602C75.5615 101.127 76.3299 101.445 76.8965 102.012C77.4631 102.578 77.7814 103.347 77.7814 104.148C77.7814 104.949 77.4631 105.718 76.8965 106.284C76.3299 106.851 75.5615 107.169 74.7602 107.169Z" fill="#01058A"/>
<path d="M121.222 42.6761C120.705 42.5493 120.159 42.629 119.699 42.8982C119.24 43.1674 118.904 43.605 118.762 44.118C118.62 44.6311 118.683 45.1793 118.939 45.6464C119.194 46.1134 119.621 46.4626 120.13 46.6197C125.668 48.159 126.915 49.8947 126.915 50.3642C126.915 52.0726 118.905 56.079 103.376 56.079C87.8468 56.079 79.834 52.0726 79.834 50.3642C79.834 48.6557 87.8414 44.6493 103.376 44.6493C107.05 44.636 110.719 44.8942 114.355 45.4216C114.885 45.4846 115.418 45.3388 115.842 45.0152C116.265 44.6915 116.546 44.2155 116.625 43.6881C116.703 43.1607 116.573 42.6235 116.262 42.1905C115.951 41.7575 115.483 41.4627 114.958 41.3688C111.123 40.8137 107.251 40.5401 103.376 40.5501C90.0656 40.5501 75.7402 43.6204 75.7402 50.3587V66.2834C75.7402 73.0217 90.0656 76.092 103.376 76.092C112.322 76.092 121.71 74.6974 126.915 71.739V74.2444C126.915 75.9528 118.905 79.9592 103.376 79.9592C101.594 79.9592 99.8579 79.9047 98.1904 79.7955C97.6486 79.7639 97.1161 79.9465 96.7077 80.3038C96.2993 80.6612 96.0476 81.1647 96.007 81.7059C95.9881 81.9749 96.0226 82.245 96.1086 82.5006C96.1945 82.7562 96.3302 82.9923 96.5078 83.1952C96.6854 83.3982 96.9013 83.564 97.1433 83.6831C97.3852 83.8022 97.6483 83.8723 97.9174 83.8892C99.6777 84.0039 101.504 84.0639 103.376 84.0639C112.322 84.0639 121.71 82.6693 126.915 79.6972V82.2026C126.915 83.9111 118.905 87.9339 103.376 87.9339C103.376 87.9339 102.522 87.9502 102.142 87.9339C101.605 87.9375 101.09 88.1441 100.699 88.5121C100.308 88.8801 100.071 89.3823 100.035 89.918C100.02 90.461 100.22 90.9879 100.593 91.3834C100.965 91.7788 101.479 92.0105 102.022 92.0276H103.387C112.333 92.0276 121.721 90.6303 126.926 87.6609V90.1663C126.926 91.8748 118.916 95.8812 103.387 95.8812C102.844 95.8812 102.323 96.0968 101.939 96.4807C101.555 96.8646 101.34 97.3852 101.34 97.9281C101.34 98.4709 101.555 98.9916 101.939 99.3754C102.323 99.7593 102.844 99.9749 103.387 99.9749C112.333 99.9749 121.721 98.5776 126.926 95.6219V98.3265C126.926 100.035 118.916 104.041 103.387 104.041H102.653C102.119 104.065 101.612 104.284 101.23 104.658C100.849 105.032 100.618 105.533 100.584 106.066C100.579 106.609 100.789 107.132 101.169 107.519C101.548 107.907 102.066 108.129 102.609 108.135H103.387C116.675 108.143 131 105.073 131 98.3347V50.3642C131 48.0989 129.303 44.9277 121.222 42.6761ZM103.368 60.1728C112.314 60.1728 121.702 58.7782 126.907 55.8198V58.3251C126.907 60.0336 118.897 64.0564 103.368 64.0564C87.8386 64.0564 79.8258 60.0472 79.8258 58.3251V55.8198C85.0303 58.7782 94.4296 60.1728 103.368 60.1728ZM103.368 72.0037C87.8332 72.0037 79.8258 67.9973 79.8258 66.2888V63.7835C85.0303 66.7419 94.4159 68.1501 103.368 68.1501C112.319 68.1501 121.702 66.7555 126.907 63.7835V66.2888C126.907 67.9973 118.897 72.0037 103.368 72.0037Z" fill="#01058A"/>
<path d="M43.1208 109.931C42.4003 109.958 41.6744 109.974 40.9375 109.974C19.2406 109.974 4.09375 97.5267 4.09375 79.7053C4.09375 65.1725 13.9188 43.6803 28.5716 34.8514C28.7709 34.7286 28.9374 34.5785 29.1175 34.442H45.85C46.3929 34.442 46.9135 34.2264 47.2974 33.8425C47.6812 33.4587 47.8969 32.938 47.8969 32.3952C47.8969 31.8523 47.6812 31.3317 47.2974 30.9478C46.9135 30.5639 46.3929 30.3483 45.85 30.3483H31.6993C31.9785 28.8098 31.6603 27.2226 30.8096 25.9107C23.8911 15.1932 22.5456 10.3708 22.7967 9.12084C22.8231 9.13627 22.8537 9.14296 22.8841 9.13994C25.9578 9.16136 29.0123 9.62648 31.9531 10.5209C34.7983 11.3857 37.7512 11.8451 40.7246 11.8855C44.0862 11.803 47.4251 11.3099 50.667 10.4172C53.2362 9.70973 55.8741 9.28151 58.5352 9.13994C58.4615 10.6819 56.9332 15.2369 51.6468 24.2595H36.025C35.4821 24.2595 34.9615 24.4752 34.5776 24.859C34.1938 25.2429 33.9781 25.7635 33.9781 26.3064C33.9781 26.8493 34.1938 27.3699 34.5776 27.7538C34.9615 28.1376 35.4821 28.3533 36.025 28.3533H49.84C49.7392 29.1162 49.7836 29.8912 49.971 30.6376C50.1904 31.4855 50.5769 32.281 51.1079 32.9774C51.6389 33.6738 52.3037 34.2572 53.0632 34.6931C60.4313 39.4919 66.4064 46.1456 70.3879 53.9856C70.5125 54.2287 70.6844 54.4444 70.8936 54.62C71.1028 54.7957 71.345 54.9276 71.6059 55.0082C71.8669 55.0888 72.1414 55.1163 72.4132 55.0891C72.6849 55.062 72.9485 54.9807 73.1884 54.8501C73.4283 54.7195 73.6396 54.5422 73.8099 54.3287C73.9802 54.1152 74.1061 53.8697 74.1801 53.6068C74.2541 53.3439 74.2747 53.0688 74.2407 52.7978C74.2067 52.5268 74.1188 52.2653 73.9823 52.0288C69.6489 43.5406 63.1533 36.3456 55.151 31.1698C54.8576 31.0067 54.5996 30.7868 54.3921 30.523C54.1845 30.2592 54.0315 29.9568 53.942 29.6333C53.8722 29.3616 53.8582 29.0786 53.9009 28.8013C53.9436 28.5241 54.042 28.2584 54.1903 28.0203C64.4629 10.9303 62.8036 7.99642 62.1049 6.73282C61.7937 6.19448 61.3416 5.75119 60.7972 5.45064C60.2529 5.15009 59.6369 5.00365 59.0155 5.02709C55.8776 5.11734 52.7621 5.58559 49.7363 6.42169C46.8009 7.24079 43.7765 7.69903 40.7301 7.78628C38.1102 7.73973 35.51 7.32351 33.0065 6.54996C29.7227 5.56933 26.3166 5.05846 22.8895 5.03255C22.1574 4.98513 21.4268 5.14575 20.7821 5.49587C20.1375 5.84599 19.6049 6.37131 19.2461 7.01119C18.5583 8.2748 16.7298 11.6317 27.3763 28.1213C27.5364 28.3588 27.6455 28.627 27.6967 28.9089C27.7479 29.1907 27.7401 29.4801 27.6738 29.7588C27.5891 30.0911 27.4381 30.4029 27.2299 30.6754C27.0216 30.9479 26.7604 31.1755 26.462 31.3444C10.6438 40.8883 0 64.0562 0 79.7053C0 99.6145 17.221 114.079 40.9375 114.079C41.7235 114.079 42.504 114.063 43.2791 114.03C43.5479 114.019 43.812 113.956 44.0563 113.843C44.3006 113.731 44.5203 113.571 44.7029 113.374C44.8855 113.176 45.0274 112.944 45.1205 112.692C45.2136 112.44 45.2561 112.171 45.2455 111.903C45.2349 111.634 45.1715 111.37 45.0589 111.125C44.9462 110.881 44.7866 110.661 44.5891 110.479C44.3915 110.296 44.1599 110.154 43.9075 110.061C43.6552 109.968 43.3869 109.926 43.1181 109.936L43.1208 109.931Z" fill="#01058A"/>
</g>
<defs>
<clipPath id="clip0_8_5080">
<rect width="131" height="131" fill="white"/>
</clipPath>
</defs>
</svg>
