<svg width="53" height="53" viewBox="0 0 53 53" fill="none" xmlns="http://www.w3.org/2000/svg">
<g clip-path="url(#clip0_8_8763)">
<path d="M27.1785 28.878C27.0824 28.8572 26.9838 28.8534 26.8864 28.868C25.9104 28.7544 25.1742 27.9287 25.1725 26.9465C25.1725 26.4758 24.7909 26.0941 24.3202 26.0941C23.8495 26.0941 23.4679 26.4758 23.4679 26.9465C23.4704 28.5867 24.5674 30.0233 26.1489 30.4574V31.3097C26.1489 31.7804 26.5306 32.1621 27.0013 32.1621C27.472 32.1621 27.8536 31.7804 27.8536 31.3097V30.509C29.679 30.127 30.9196 28.4268 30.7278 26.5719C30.5355 24.717 28.9727 23.3074 27.1078 23.307C26.039 23.307 25.1725 22.4405 25.1725 21.3717C25.1725 20.303 26.039 19.4365 27.1078 19.4365C28.1766 19.4365 29.043 20.303 29.043 21.3717C29.043 21.8424 29.4247 22.2241 29.8954 22.2241C30.3661 22.2241 30.7477 21.8424 30.7477 21.3717C30.7452 19.6495 29.5387 18.1642 27.8536 17.8088V17.033C27.8536 16.5623 27.472 16.1807 27.0013 16.1807C26.5306 16.1807 26.1489 16.5623 26.1489 17.033V17.8608C24.3901 18.3411 23.2581 20.0487 23.5003 21.8557C23.7425 23.6628 25.2845 25.0116 27.1078 25.0112C28.1624 25.0112 29.0227 25.8557 29.0418 26.9099C29.0614 27.9641 28.2323 28.8397 27.1785 28.878Z" fill="#E33133"/>
<path d="M14.748 24.2241C14.748 31.0503 20.2816 36.5839 27.1078 36.5839C33.9341 36.5839 39.4676 31.0503 39.4676 24.2241C39.4676 17.3978 33.9341 11.8643 27.1078 11.8643C20.2849 11.8717 14.756 17.4012 14.748 24.2241ZM27.1078 13.5689C32.9927 13.5689 37.763 18.3392 37.763 24.2241C37.763 30.1089 32.9927 34.8792 27.1078 34.8792C21.223 34.8792 16.4527 30.1089 16.4527 24.2241C16.4594 18.3421 21.2259 13.5756 27.1078 13.5689Z" fill="#E33133"/>
<path d="M43.6693 38.685L36.9925 41.8397C36.0707 40.125 34.3023 39.0338 32.3562 38.9789L26.1926 38.8095C25.2166 38.7816 24.259 38.5344 23.3912 38.0861L22.764 37.7611C19.5528 36.0872 15.7251 36.0914 12.5172 37.7719L12.5563 36.3511C12.5692 35.8804 12.1984 35.4883 11.7277 35.4754L4.96889 35.2894C4.49819 35.2765 4.10656 35.6473 4.09366 36.118L3.68539 50.9499C3.67248 51.4206 4.0433 51.8127 4.51401 51.8256L11.2728 52.0116H11.2961C11.7581 52.0116 12.136 51.6441 12.1485 51.1826L12.168 50.473L13.9239 49.5328C14.6131 49.162 15.4188 49.0738 16.1717 49.2869L26.657 52.2297C26.6753 52.2351 26.6936 52.2393 26.7124 52.2434C27.4702 52.402 28.2427 52.4815 29.0168 52.4811C30.6565 52.4819 32.2771 52.1286 33.7675 51.4444C33.8041 51.4277 33.8395 51.4081 33.8732 51.3861L49.076 41.5525C49.4547 41.3074 49.577 40.8101 49.3552 40.4172C48.2265 38.4145 45.7232 37.6516 43.6693 38.685ZM5.41296 50.145L5.77421 37.017L10.8287 37.156L10.4675 50.2845L5.41296 50.145ZM32.9996 49.922C31.148 50.7577 29.08 50.9882 27.0898 50.5816L16.6328 47.6463C15.4559 47.3137 14.1961 47.4515 13.1194 48.0304L12.2221 48.5111L12.4623 39.7825C15.3056 37.8914 18.9522 37.697 21.9804 39.2748L22.6076 39.5998C23.7038 40.1658 24.9128 40.4779 26.1459 40.5137L32.31 40.6831C34.0413 40.7331 35.5117 41.9658 35.863 43.6622L26.6816 43.4087C26.2109 43.3958 25.8192 43.767 25.8059 44.2373C25.793 44.708 26.1643 45.1001 26.6345 45.113L36.7669 45.3918H36.7907C37.2522 45.3914 37.6297 45.0239 37.6422 44.5628C37.6526 44.1924 37.6251 43.8216 37.5598 43.457L44.4081 40.2212C44.4147 40.2182 44.4214 40.2149 44.428 40.2116C45.3994 39.7201 46.5739 39.8845 47.3729 40.624L32.9996 49.922Z" fill="#E33133"/>
<path d="M27.9601 9.46815V1.3709C27.9601 0.900194 27.5784 0.518555 27.1077 0.518555C26.637 0.518555 26.2554 0.900194 26.2554 1.3709V9.46815C26.2554 9.93886 26.637 10.3205 27.1077 10.3205C27.5784 10.3205 27.9601 9.93886 27.9601 9.46815Z" fill="#E33133"/>
<path d="M34.3526 9.46816V5.63262C34.3526 5.16191 33.971 4.78027 33.5003 4.78027C33.0296 4.78027 32.6479 5.16191 32.6479 5.63262V9.46816C32.6479 9.93886 33.0296 10.3205 33.5003 10.3205C33.971 10.3205 34.3526 9.93886 34.3526 9.46816Z" fill="#E33133"/>
<path d="M21.5675 9.46816V5.63262C21.5675 5.16191 21.1858 4.78027 20.7151 4.78027C20.2444 4.78027 19.8628 5.16191 19.8628 5.63262V9.46816C19.8628 9.93886 20.2444 10.3205 20.7151 10.3205C21.1858 10.3205 21.5675 9.93886 21.5675 9.46816Z" fill="#E33133"/>
</g>
<defs>
<clipPath id="clip0_8_8763">
<rect width="51.963" height="51.963" fill="white" transform="translate(0.518555 0.518555)"/>
</clipPath>
</defs>
</svg>
