<svg width="100" height="100" viewBox="0 0 100 100" fill="none" xmlns="http://www.w3.org/2000/svg">
<g clip-path="url(#clip0_8_2856)">
<path d="M0.316505 9.17301L6.98571 20.8434C7.21066 21.2378 7.5872 21.5231 8.02751 21.6335L14.2495 23.189L35.5897 44.5292L37.9477 42.172L16.2735 20.4984C16.0602 20.2845 15.7927 20.1329 15.4998 20.0595L9.52129 18.5595L3.84314 8.61747L8.7113 3.74931L18.6575 9.43295L20.1581 15.4115C20.2308 15.705 20.3831 15.9732 20.5964 16.1865L42.2706 37.8607L44.6279 35.5028L23.2877 14.1626L21.7322 7.94397C21.6217 7.50297 21.3364 7.12575 20.9421 6.9001L9.27096 0.231589C8.62009 -0.138769 7.80118 -0.0290336 7.27033 0.499756L0.601819 7.16896C0.0654841 7.69638 -0.0511103 8.51665 0.316505 9.17301Z" fill="#01058A"/>
<path d="M69.6322 32.8582L32.9537 69.5375L30.5957 67.1795L67.2749 30.501L69.6322 32.8582Z" fill="#01058A"/>
<path d="M26.5328 70.835C26.231 70.3329 25.6892 70.0264 25.1034 70.0264H15.1003C14.5153 70.0264 13.9728 70.3329 13.6717 70.835L8.6698 79.1708C8.35225 79.6989 8.35225 80.3594 8.6698 80.8882L13.6717 89.224C13.9728 89.7253 14.5153 90.0326 15.1003 90.0326H25.1034C25.6892 90.0326 26.231 89.7253 26.5328 89.224L31.534 80.8882C31.8515 80.3594 31.8515 79.6989 31.534 79.1708L26.5328 70.835ZM24.1604 86.698H16.0441L12.0428 80.0295L16.0441 73.3603H24.1604L28.1616 80.0295L24.1604 86.698Z" fill="#01058A"/>
<path d="M80.122 40.0165C91.1333 40.0536 100.091 31.1567 100.128 20.1454C100.133 18.4692 99.9273 16.7998 99.5151 15.1751C99.2929 14.2814 98.3882 13.7375 97.4946 13.9597C97.201 14.0331 96.9335 14.1847 96.7196 14.398L86.3413 24.7694L78.107 22.0253L75.3608 13.7931L85.7391 3.41275C86.39 2.76119 86.3893 1.70567 85.7377 1.0548C85.5231 0.840127 85.2528 0.687869 84.9572 0.615169C74.2786 -2.08914 63.4305 4.375 60.7262 15.053C60.3154 16.673 60.1103 18.3382 60.1158 20.0096C60.1199 21.3223 60.255 22.6309 60.5211 23.9162L24.0085 60.4281C22.7233 60.1627 21.4147 60.0276 20.1026 60.0228C9.0529 60.0228 0.0957031 68.98 0.0957031 80.0297C0.0957031 91.0787 9.0529 100.036 20.1026 100.036C31.1517 100.036 40.1089 91.0787 40.1089 80.0297C40.1047 78.717 39.9689 77.4084 39.7035 76.1231L48.4447 67.3819L52.2676 71.2049C52.9192 71.8557 53.974 71.8557 54.6255 71.2049L55.4589 70.3709C56.19 69.6446 57.3717 69.6446 58.1028 70.3709C58.8332 71.0992 58.8346 72.2816 58.1062 73.0121C58.1055 73.0128 58.1042 73.0141 58.1028 73.0155L57.2695 73.8488C56.6186 74.4997 56.6186 75.5552 57.2695 76.2061L77.1578 96.0943C82.3887 101.373 90.9084 101.412 96.1873 96.1807C101.466 90.9498 101.504 82.4295 96.2731 77.1512C96.245 77.1224 96.2161 77.0936 96.1873 77.0648L76.2991 57.1772C75.6482 56.5263 74.5927 56.5263 73.9418 57.1772L73.1085 58.0105C72.3767 58.7375 71.1957 58.7375 70.4639 58.0105C69.7341 57.2821 69.7321 56.0997 70.4604 55.37C70.4618 55.3686 70.4632 55.3679 70.4639 55.3665L71.2979 54.5325C71.9487 53.8817 71.9487 52.8261 71.2979 52.1753L67.4749 48.3524L76.2161 39.6112C77.5014 39.8766 78.81 40.0124 80.122 40.0165ZM86.6726 96.702C85.4613 96.6999 84.2604 96.4812 83.1267 96.0552L96.1476 83.0337C98.1125 88.2606 95.4686 94.0903 90.2417 96.0552C89.1011 96.4839 87.892 96.7034 86.6726 96.702ZM67.7849 53.3707C65.9386 55.573 66.2281 58.8555 68.4303 60.7011C70.3658 62.3231 73.1867 62.3217 75.1201 60.6963L93.8301 79.4227C94.0331 79.6264 94.2231 79.8411 94.4069 80.0592L80.1522 94.3139C79.9334 94.1307 79.7187 93.9408 79.515 93.7371L60.7906 75.0113C62.637 72.8091 62.3475 69.5266 60.1453 67.681C58.2098 66.0582 55.3882 66.0603 53.4548 67.6851L50.7875 65.0178L65.117 50.7096L67.7849 53.3707ZM74.5172 36.6024L36.6961 74.416C36.2811 74.8303 36.1145 75.4317 36.2557 76.0003C38.5431 84.9829 33.1152 94.1191 24.132 96.4057C15.1494 98.693 6.01321 93.2652 3.7259 84.282C1.43928 75.2994 6.8671 66.1632 15.8504 63.8759C18.5677 63.1845 21.4147 63.1845 24.132 63.8759C24.7006 64.0151 25.3007 63.8484 25.7163 63.4362L63.5286 25.6219C63.9428 25.2077 64.1095 24.6062 63.9668 24.0383C61.6953 15.1607 67.0504 6.12254 75.928 3.85032C77.6056 3.42166 79.3408 3.25706 81.0692 3.36474L72.2745 12.1628C71.828 12.6086 71.6717 13.2691 71.8712 13.8678L75.2051 23.8716C75.3718 24.3689 75.7627 24.7598 76.2607 24.9251L86.2645 28.2597C86.8625 28.4593 87.523 28.3036 87.9695 27.8578L96.7641 19.0631C96.784 19.3814 96.7943 19.6962 96.7943 20.0096C96.841 29.1705 89.453 36.6346 80.2921 36.6819C78.8758 36.6888 77.4643 36.5146 76.0926 36.1634C75.5241 36.0215 74.9226 36.1874 74.5083 36.6017H74.5172V36.6024Z" fill="#01058A"/>
<path d="M86.305 83.8523L83.947 86.2102L67.2754 69.5386L69.6327 67.1807L86.305 83.8523Z" fill="#01058A"/>
</g>
<defs>
<clipPath id="clip0_8_2856">
<rect width="100" height="100" fill="white"/>
</clipPath>
</defs>
</svg>
