<svg width="34" height="34" viewBox="0 0 34 34" fill="none" xmlns="http://www.w3.org/2000/svg">
<g clip-path="url(#clip0_8_8955)">
<path d="M27.9661 19.4342L30.2583 13.2873C30.8419 11.9292 32.0217 12.1816 32.0217 12.1816C32.9348 12.3487 33.4263 13.097 33.3221 13.9352L31.2194 22.3879C30.6764 24.5595 29.1624 26.6771 27.3999 28.0457L23.7669 30.645V32.1778C23.7669 32.5446 23.4696 32.8419 23.1028 32.8419H17.0102V28.9888C17.0102 28.9888 16.6131 24.6007 20.7826 22.0665L25.767 18.8672C26.0194 18.7046 26.3056 18.6252 26.5895 18.6252C26.9835 18.6252 27.3737 18.778 27.6682 19.0724C28.2517 19.6567 28.2637 20.6005 27.6944 21.1991L24.3378 23.8463" fill="#FFD4B5"/>
<path d="M26.0968 14.1497H17.7114V9.92518C17.7114 8.48436 18.8794 7.31641 20.3202 7.31641H24.1521C25.5929 7.31641 26.7609 8.48443 26.7609 9.92518V13.4856C26.7609 13.8524 26.4636 14.1497 26.0968 14.1497Z" fill="#FFDA8F"/>
<path d="M16.2882 14.1497H7.90283C7.53607 14.1497 7.23877 13.8524 7.23877 13.4856V9.92518C7.23877 8.48436 8.40679 7.31641 9.84754 7.31641H13.6794C15.1203 7.31641 16.2882 8.48443 16.2882 9.92518V14.1497Z" fill="#FF9EB1"/>
<path d="M20.8605 18.346H13.1392C12.7724 18.346 12.4751 18.0487 12.4751 17.6819V14.1215C12.4751 12.6806 13.6431 11.5127 15.0839 11.5127H18.9158C20.3566 11.5127 21.5245 12.6807 21.5245 14.1215V17.6819C21.5245 18.0487 21.2272 18.346 20.8605 18.346Z" fill="#9DE3D1"/>
<path d="M16.9996 11.5129C18.7002 11.5129 20.0788 10.1343 20.0788 8.43368C20.0788 6.73309 18.7002 5.35449 16.9996 5.35449C15.299 5.35449 13.9204 6.73309 13.9204 8.43368C13.9204 10.1343 15.299 11.5129 16.9996 11.5129Z" fill="#FFD4B5"/>
<path d="M22.2359 7.31659C23.9365 7.31659 25.3151 5.93799 25.3151 4.23739C25.3151 2.5368 23.9365 1.1582 22.2359 1.1582C20.5353 1.1582 19.1567 2.5368 19.1567 4.23739C19.1567 5.93799 20.5353 7.31659 22.2359 7.31659Z" fill="#FFD4B5"/>
<path d="M11.7633 7.31659C13.4639 7.31659 14.8425 5.93799 14.8425 4.23739C14.8425 2.5368 13.4639 1.1582 11.7633 1.1582C10.0627 1.1582 8.68408 2.5368 8.68408 4.23739C8.68408 5.93799 10.0627 7.31659 11.7633 7.31659Z" fill="#FFD4B5"/>
<path fill-rule="evenodd" clip-rule="evenodd" d="M30.8745 13.5356L28.6661 19.4578C28.9129 20.201 28.7512 21.0516 28.1756 21.6567C28.1538 21.6796 28.1304 21.7009 28.1056 21.7205L24.749 24.3678C24.461 24.5949 24.0435 24.5455 23.8163 24.2576C23.5892 23.9696 23.6386 23.552 23.9265 23.3249L27.2407 20.7112C27.5334 20.373 27.5179 19.8618 27.1984 19.5418C27.0318 19.3753 26.8119 19.2893 26.5895 19.2893C26.4294 19.2893 26.2687 19.3339 26.1265 19.4255L21.1413 22.6254C21.1367 22.6283 21.1321 22.6312 21.1275 22.634C19.2115 23.7985 18.3544 25.3769 17.9692 26.6679C17.7755 27.3169 17.7015 27.8932 17.6761 28.3046C17.6634 28.5098 17.6628 28.6725 17.6652 28.7809C17.6663 28.835 17.6682 28.8754 17.6697 28.9006C17.6704 28.9132 17.671 28.922 17.6714 28.9268C17.6715 28.9289 17.6716 28.9303 17.6717 28.9308C17.6734 28.9501 17.6742 28.9694 17.6742 28.9888V32.1778H23.1028V30.645C23.1028 30.4307 23.2062 30.2296 23.3805 30.1049L27.0027 27.5133C28.6612 26.222 30.074 24.23 30.575 22.2276C30.575 22.2275 30.575 22.2275 30.575 22.2275C30.5751 22.2272 30.5752 22.227 30.5752 22.2268L32.667 13.818C32.7127 13.331 32.4423 12.9337 31.9022 12.8348C31.8994 12.8343 31.8967 12.8338 31.8939 12.8333C31.8924 12.833 31.8898 12.8327 31.886 12.8322C31.8731 12.8305 31.8484 12.828 31.8147 12.8273C31.746 12.8259 31.6495 12.8323 31.5437 12.863C31.3603 12.9161 31.0839 13.0577 30.8745 13.5356ZM31.8835 12.8311C31.8835 12.8312 31.8836 12.8312 31.8836 12.8312L31.8835 12.8311ZM32.0217 12.1816C31.8828 12.831 31.8831 12.8311 31.8835 12.8311C31.8833 12.8311 31.883 12.831 31.8828 12.831L32.0217 12.1816ZM32.0217 12.1816L32.1412 11.5284C32.1432 11.5288 32.1451 11.5291 32.1471 11.5295C32.1494 11.5299 32.1516 11.5304 32.1536 11.5308L32.1573 11.5316L32.159 11.5319L32.1598 11.5321C32.1602 11.5322 32.1606 11.5323 32.0217 12.1816ZM24.4309 30.9864L27.7863 28.5857C27.7933 28.5807 27.8003 28.5755 27.8072 28.5702C29.6692 27.1243 31.2794 24.8854 31.8637 22.549L31.8639 22.5482L33.9666 14.0955C33.973 14.0697 33.9778 14.0435 33.9811 14.0171C34.1267 12.8455 33.4166 11.7647 32.1471 11.5295C32.1463 11.5293 32.1455 11.5292 32.1447 11.529C32.1381 11.5277 32.1303 11.5263 32.1213 11.5247C32.1034 11.5216 32.0807 11.5181 32.0537 11.5147C31.9998 11.5078 31.9278 11.5012 31.8418 11.4995C31.671 11.496 31.4361 11.5114 31.1739 11.5874C30.6233 11.747 30.0216 12.156 29.6482 13.0251C29.6439 13.0351 29.6399 13.0451 29.6361 13.0553L27.695 18.2608C27.3568 18.0628 26.9742 17.9612 26.5895 17.9612C26.1818 17.9612 25.7702 18.0753 25.4076 18.3087C25.4076 18.3088 25.4075 18.3089 25.4074 18.3089L20.4306 21.5034C18.1821 22.8726 17.1546 24.753 16.6965 26.288C16.4683 27.0528 16.3809 27.7319 16.3505 28.2225C16.3353 28.4683 16.3343 28.6682 16.3373 28.8097C16.3389 28.8805 16.3414 28.9368 16.3438 28.9771C16.3446 28.9915 16.3454 29.0038 16.3461 29.014V32.8419C16.3461 33.2086 16.6434 33.5059 17.0102 33.5059H23.1028C23.8363 33.5059 24.4309 32.9113 24.4309 32.1778V30.9864Z" fill="black"/>
<path fill-rule="evenodd" clip-rule="evenodd" d="M15.0839 12.1768C14.0099 12.1768 13.1392 13.0474 13.1392 14.1215V17.6819H13.9798C14.3465 17.6819 14.6439 17.9792 14.6439 18.346C14.6439 18.7127 14.3465 19.01 13.9798 19.01H13.1392C12.4056 19.01 11.811 18.4154 11.811 17.6819V14.1215C11.811 12.3139 13.2764 10.8486 15.0839 10.8486H18.9158C20.7234 10.8486 22.1886 12.314 22.1886 14.1215V17.6819C22.1886 18.4154 21.594 19.01 20.8605 19.01H20.0307C19.6639 19.01 19.3666 18.7127 19.3666 18.346C19.3666 17.9792 19.6639 17.6819 20.0307 17.6819H20.8605V14.1215C20.8605 13.0475 19.9898 12.1768 18.9158 12.1768H15.0839Z" fill="black"/>
<path fill-rule="evenodd" clip-rule="evenodd" d="M17.0001 6.01855C15.6663 6.01855 14.585 7.09984 14.585 8.43368C14.585 9.76752 15.6663 10.8488 17.0001 10.8488C18.3339 10.8488 19.4152 9.76752 19.4152 8.43368C19.4152 7.09984 18.3339 6.01855 17.0001 6.01855ZM13.2568 8.43368C13.2568 6.36634 14.9327 4.69043 17.0001 4.69043C19.0674 4.69043 20.7433 6.36634 20.7433 8.43368C20.7433 10.501 19.0674 12.1769 17.0001 12.1769C14.9327 12.1769 13.2568 10.501 13.2568 8.43368Z" fill="black"/>
<path fill-rule="evenodd" clip-rule="evenodd" d="M19.5059 7.31641C19.5059 6.94965 19.8032 6.65234 20.1699 6.65234H24.152C25.9596 6.65234 27.4248 8.11769 27.4248 9.92518V13.4417C27.4248 14.1994 26.8106 14.8135 26.0531 14.8135H21.5208C21.1541 14.8135 20.8568 14.5162 20.8568 14.1494C20.8568 13.7827 21.1541 13.4853 21.5208 13.4853H26.0531C26.0771 13.4853 26.0967 13.4658 26.0967 13.4417V9.92518C26.0967 8.85117 25.226 7.98047 24.152 7.98047H20.1699C19.8032 7.98047 19.5059 7.68316 19.5059 7.31641Z" fill="black"/>
<path fill-rule="evenodd" clip-rule="evenodd" d="M22.2364 1.82227C20.9026 1.82227 19.8213 2.90356 19.8213 4.23739C19.8213 5.57123 20.9026 6.65252 22.2364 6.65252C23.5703 6.65252 24.6515 5.57123 24.6515 4.23739C24.6515 2.90356 23.5703 1.82227 22.2364 1.82227ZM18.4932 4.23739C18.4932 2.17005 20.1691 0.494141 22.2364 0.494141C24.3038 0.494141 25.9797 2.17005 25.9797 4.23739C25.9797 6.30474 24.3038 7.98065 22.2364 7.98065C20.1691 7.98065 18.4932 6.30474 18.4932 4.23739Z" fill="black"/>
<path fill-rule="evenodd" clip-rule="evenodd" d="M9.84803 7.98047C8.77402 7.98047 7.90332 8.85112 7.90332 9.92518V13.4417C7.90332 13.4658 7.92283 13.4853 7.94695 13.4853H12.4792C12.8459 13.4853 13.1432 13.7827 13.1432 14.1494C13.1432 14.5162 12.8459 14.8135 12.4792 14.8135H7.94695C7.18933 14.8135 6.5752 14.1993 6.5752 13.4417V9.92518C6.5752 8.1176 8.04054 6.65234 9.84803 6.65234H13.9209C14.2877 6.65234 14.585 6.94965 14.585 7.31641C14.585 7.68316 14.2877 7.98047 13.9209 7.98047H9.84803Z" fill="black"/>
<path fill-rule="evenodd" clip-rule="evenodd" d="M11.7638 1.82227C10.4299 1.82227 9.34863 2.90356 9.34863 4.23739C9.34863 5.57123 10.4299 6.65252 11.7638 6.65252C13.0976 6.65252 14.1789 5.57123 14.1789 4.23739C14.1789 2.90356 13.0976 1.82227 11.7638 1.82227ZM8.02051 4.23739C8.02051 2.17005 9.69642 0.494141 11.7638 0.494141C13.8311 0.494141 15.507 2.17005 15.507 4.23739C15.507 6.30474 13.8311 7.98065 11.7638 7.98065C9.69642 7.98065 8.02051 6.30474 8.02051 4.23739Z" fill="black"/>
<path d="M5.90105 19.4342L3.60884 13.2873C3.02533 11.9292 1.84549 12.1816 1.84549 12.1816C0.93234 12.3487 0.440933 13.097 0.545057 13.9352L2.64775 22.3879C3.19082 24.5595 4.70475 26.6771 6.4673 28.0457L10.1003 30.645V32.1778C10.1003 32.5446 10.3976 32.8419 10.7644 32.8419H16.857V28.9888C16.857 28.9888 17.2541 24.6007 13.0846 22.0665L8.10023 18.8672C7.84782 18.7046 7.56161 18.6252 7.27772 18.6252C6.88374 18.6252 6.49347 18.778 6.19902 19.0724C5.61551 19.6567 5.60349 20.6005 6.17279 21.1991L9.52943 23.8463" fill="#FFD4B5"/>
<path fill-rule="evenodd" clip-rule="evenodd" d="M2.9927 13.5356L5.20112 19.4578C4.95428 20.201 5.11603 21.0516 5.69163 21.6567C5.7134 21.6796 5.73677 21.7009 5.76157 21.7205L9.1182 24.3678C9.40617 24.5949 9.82373 24.5455 10.0508 24.2576C10.278 23.9696 10.2286 23.552 9.94065 23.3249L6.62653 20.7112C6.33378 20.373 6.34926 19.8618 6.66879 19.5418C6.83538 19.3753 7.05524 19.2893 7.27773 19.2893C7.43774 19.2893 7.5985 19.3339 7.74067 19.4255L12.7259 22.6254C12.7305 22.6283 12.7351 22.6312 12.7397 22.634C14.6557 23.7985 15.5128 25.3769 15.898 26.6679C16.0917 27.3169 16.1657 27.8932 16.1911 28.3046C16.2038 28.5098 16.2044 28.6725 16.202 28.7809C16.2009 28.835 16.199 28.8754 16.1975 28.9006C16.1968 28.9132 16.1962 28.922 16.1958 28.9268C16.1956 28.9289 16.1955 28.9303 16.1955 28.9308C16.1938 28.9501 16.193 28.9694 16.193 28.9888V32.1778H10.7644V30.645C10.7644 30.4307 10.661 30.2296 10.4867 30.1049L6.86446 27.5133C5.20603 26.222 3.79319 24.23 3.29217 22.2276C3.29216 22.2275 3.29216 22.2275 3.29215 22.2275C3.29209 22.2272 3.29203 22.227 3.29197 22.2268L1.2002 13.818C1.15445 13.331 1.42492 12.9337 1.96501 12.8348C1.96777 12.8343 1.97052 12.8338 1.97327 12.8333C1.97475 12.833 1.9774 12.8327 1.98114 12.8322C1.99405 12.8305 2.01882 12.828 2.05251 12.8273C2.12119 12.8259 2.21774 12.8323 2.32345 12.863C2.50685 12.9161 2.78331 13.0577 2.9927 13.5356ZM1.98367 12.8311C1.98364 12.8312 1.98361 12.8312 1.98358 12.8312L1.98367 12.8311ZM1.84549 12.1816C1.98442 12.831 1.98404 12.8311 1.98367 12.8311C1.98392 12.8311 1.98417 12.831 1.98442 12.831L1.84549 12.1816ZM1.84549 12.1816L1.72598 11.5284C1.72401 11.5288 1.72205 11.5291 1.72009 11.5295C1.71776 11.5299 1.7156 11.5304 1.71362 11.5308L1.70986 11.5316L1.70815 11.5319L1.70735 11.5321C1.70696 11.5322 1.70657 11.5323 1.84549 12.1816ZM9.43626 30.9864L6.0809 28.5857C6.07384 28.5807 6.06689 28.5755 6.06004 28.5702C4.19795 27.1243 2.58781 24.8854 2.00352 22.549L2.00332 22.5482L-0.0993633 14.0955C-0.105789 14.0697 -0.110655 14.0435 -0.113937 14.0171C-0.259472 12.8455 0.450592 11.7647 1.72009 11.5295C1.72088 11.5293 1.7217 11.5292 1.72254 11.529C1.7291 11.5277 1.73689 11.5263 1.74586 11.5247C1.76379 11.5216 1.7865 11.5181 1.81352 11.5147C1.86741 11.5078 1.93937 11.5012 2.02541 11.4995C2.19619 11.496 2.43107 11.5114 2.69326 11.5874C3.2439 11.747 3.84555 12.156 4.21897 13.0251C4.22325 13.0351 4.22727 13.0451 4.23105 13.0553L6.1722 18.2608C6.51044 18.0628 6.89297 17.9612 7.27773 17.9612C7.68539 17.9612 8.09695 18.0753 8.45954 18.3087C8.45963 18.3088 8.45971 18.3089 8.4598 18.3089L13.4366 21.5034C15.6851 22.8726 16.7126 24.753 17.1707 26.288C17.3989 27.0528 17.4863 27.7319 17.5167 28.2225C17.5319 28.4683 17.5329 28.6682 17.5298 28.8097C17.5283 28.8805 17.5258 28.9368 17.5234 28.9771C17.5226 28.9915 17.5218 29.0038 17.5211 29.014V32.8419C17.5211 33.2086 17.2238 33.5059 16.857 33.5059H10.7644C10.0309 33.5059 9.43626 32.9113 9.43626 32.1778V30.9864Z" fill="black"/>
</g>
<defs>
<clipPath id="clip0_8_8955">
<rect width="34" height="34" fill="white"/>
</clipPath>
</defs>
</svg>
