<svg width="150" height="150" viewBox="0 0 150 150" fill="none" xmlns="http://www.w3.org/2000/svg">
<path d="M41.4408 0.564453C36.9276 0.564453 33.2003 4.28661 33.2003 8.79972V38.0308C33.2056 39.5104 34.4117 40.7044 35.8913 40.6957C37.3608 40.6901 38.5506 39.5002 38.5563 38.0308V8.79972C38.5563 7.15609 39.7971 5.91529 41.4408 5.91529H142.694C144.337 5.91529 145.578 7.15609 145.578 8.79972V118.293H127.054C122.541 118.293 118.819 121.995 118.819 126.508V145.032H89.3893C87.9014 145.026 86.6947 146.235 86.7034 147.723C86.7087 149.201 87.9117 150.394 89.3893 150.388H124.17C124.88 150.391 125.562 150.114 126.067 149.615L150.14 125.52C150.64 125.023 150.923 124.349 150.929 123.644V8.79972C150.929 4.28661 147.207 0.564453 142.694 0.564453H41.4408ZM105.447 13.9572C91.8028 13.9572 80.6785 25.0606 80.6785 38.7048C80.6785 52.3491 91.8028 63.4682 105.447 63.4682C119.091 63.4682 130.216 52.3491 130.216 38.7048C130.216 25.0606 119.091 13.9572 105.447 13.9572ZM105.447 19.2872C116.199 19.2872 124.859 27.9524 124.859 38.7048C124.859 49.4572 116.199 58.1173 105.447 58.1173C94.6946 58.1173 86.0345 49.4572 86.0345 38.7048C86.0345 27.9524 94.6946 19.2872 105.447 19.2872ZM114.435 30.8197L104.616 42.6344L98.7114 36.5885C97.678 35.5407 95.9923 35.5244 94.9387 36.552C93.8884 37.5791 93.8628 39.2608 94.8811 40.3195L102.86 48.4973C103.969 49.6331 105.816 49.5601 106.832 48.3405L118.563 34.258C119.509 33.1188 119.35 31.4278 118.207 30.4852C116.969 29.4312 115.238 29.8414 114.435 30.8197ZM40.9234 46.5221C30.9433 46.5221 22.6188 54.1834 22.6188 63.7869C22.6188 70.7461 24.8163 76.6954 26.8618 83.6696C28.7439 90.0867 30.5711 97.4719 30.854 107.592H27.8494C23.2905 107.592 19.8336 111.613 19.8336 116.198V118.826H10.4122C4.91637 118.826 0.692871 123.708 0.692871 129.335V137.152C0.695547 138.631 1.89918 139.828 3.37874 139.822H5.82947V145.371C5.82947 148.197 8.26874 150.388 11.0026 150.388H70.8442C73.5782 150.388 76.0226 148.197 76.0226 145.371V139.822H78.4681C79.9395 139.817 81.1301 138.623 81.1331 137.152V129.335C81.1331 123.708 76.9148 118.826 71.419 118.826H62.6299V116.198C62.6299 111.613 59.173 107.592 54.6141 107.592H51.0137C51.2949 97.4713 53.109 90.0869 54.9851 83.6696C57.0241 76.6952 59.2124 70.7443 59.2124 63.7869C59.2124 54.1834 50.9035 46.5221 40.9234 46.5221ZM40.9234 51.8729C48.205 51.8729 53.8825 57.2823 53.8825 63.7869C53.8825 69.5897 51.9448 75.017 49.8537 82.1699C47.961 88.6441 46.3533 97.1519 46.0025 107.592H35.8495C35.4976 97.151 33.8973 88.6443 31.9984 82.1699C29.9004 75.0168 27.9696 69.5878 27.9696 63.7869C27.9696 57.2823 33.6419 51.8729 40.9234 51.8729ZM84.0384 72.738C82.5239 72.7393 81.2964 73.9668 81.2951 75.4814C81.2964 76.9959 82.5239 78.2234 84.0384 78.2247C85.553 78.2234 86.7805 76.9959 86.7818 75.4814C86.7805 73.9668 85.553 72.7393 84.0384 72.738ZM94.7453 72.8111C93.2657 72.803 92.06 73.9964 92.0542 75.4761C92.0489 76.9639 93.2575 78.1706 94.7453 78.1619H132.186C133.673 78.1699 134.882 76.9639 134.877 75.4761C134.871 73.9964 133.665 72.8024 132.186 72.8111H94.7453ZM67.9859 86.1151C66.4714 86.1164 65.2439 87.3439 65.2426 88.8585C65.2439 90.373 66.4714 91.6005 67.9859 91.6018C69.5005 91.6005 70.728 90.373 70.7293 88.8585C70.728 87.3439 69.5005 86.1164 67.9859 86.1151ZM78.6876 86.1777C77.208 86.1831 76.014 87.3892 76.0226 88.8688C76.028 90.3382 77.2182 91.5281 78.6876 91.5338H132.186C133.665 91.5418 134.871 90.3485 134.877 88.8688C134.885 87.379 133.675 86.169 132.186 86.1777H78.6876ZM84.0384 99.4921C82.5239 99.4934 81.2964 100.721 81.2951 102.235C81.2964 103.75 82.5239 104.978 84.0384 104.979C85.553 104.978 86.7805 103.75 86.7818 102.235C86.7805 100.721 85.553 99.4934 84.0384 99.4921ZM94.7453 99.5496C93.2575 99.5416 92.0484 100.748 92.0542 102.236C92.0596 103.715 93.2657 104.909 94.7453 104.9H132.186C133.665 104.909 134.871 103.715 134.877 102.236C134.882 100.748 133.673 99.5409 132.186 99.5496H94.7453ZM27.8494 112.942H54.6141C55.9838 112.942 57.279 114.199 57.279 116.198V118.826H41.2422C39.7646 118.821 38.5621 120.014 38.5563 121.491C38.551 122.977 39.7564 124.183 41.2422 124.177H71.419C73.7224 124.177 75.7823 126.291 75.7823 129.335V134.466H6.04893V129.335C6.04893 126.291 8.10876 124.177 10.4122 124.177H30.5353C32.0129 124.172 33.206 122.969 33.2003 121.491C33.1949 120.022 32.0047 118.832 30.5353 118.826H25.1844V116.198C25.1844 114.199 26.4796 112.942 27.8494 112.942ZM127.054 123.644H144.476L124.17 143.924V126.508C124.17 124.864 125.411 123.644 127.054 123.644ZM11.1803 139.822H70.6666V145.032H11.1803V139.822Z" fill="#002BB4"/>
</svg>
