<svg width="100" height="100" viewBox="0 0 100 100" fill="none" xmlns="http://www.w3.org/2000/svg">
<g clip-path="url(#clip0_8_2950)">
<path d="M52.1484 85.5469H12.6934C11.6148 85.5469 10.7402 86.4213 10.7402 87.5C10.7402 88.5787 11.6148 89.4531 12.6934 89.4531H52.1484C53.2269 89.4531 54.1016 88.5787 54.1016 87.5C54.1016 86.4213 53.2269 85.5469 52.1484 85.5469Z" fill="#01058A"/>
<path d="M14.074 75.1816C13.7109 74.8184 13.207 74.6094 12.6934 74.6094C12.1795 74.6094 11.6756 74.8184 11.3125 75.1816C10.9492 75.5449 10.7402 76.0488 10.7402 76.5625C10.7402 77.0762 10.949 77.5801 11.3125 77.9434C11.6756 78.3066 12.1795 78.5156 12.6934 78.5156C13.207 78.5156 13.7109 78.3066 14.074 77.9434C14.4373 77.5801 14.6465 77.0762 14.6465 76.5625C14.6465 76.0488 14.4375 75.5449 14.074 75.1816Z" fill="#01058A"/>
<path d="M52.1484 74.6094H21.2891C20.2105 74.6094 19.3359 75.4838 19.3359 76.5625C19.3359 77.6412 20.2105 78.5156 21.2891 78.5156H52.1484C53.227 78.5156 54.1016 77.6412 54.1016 76.5625C54.1016 75.4838 53.227 74.6094 52.1484 74.6094Z" fill="#01058A"/>
<path d="M52.1484 63.6719H12.5C11.4215 63.6719 10.5469 64.5463 10.5469 65.625C10.5469 66.7037 11.4215 67.5781 12.5 67.5781H52.1484C53.227 67.5781 54.1016 66.7037 54.1016 65.625C54.1016 64.5463 53.227 63.6719 52.1484 63.6719Z" fill="#01058A"/>
<path d="M14.074 53.3066C13.7109 52.9434 13.207 52.7344 12.6934 52.7344C12.1795 52.7344 11.6756 52.9434 11.3125 53.3066C10.9492 53.6699 10.7402 54.1738 10.7402 54.6875C10.7402 55.2012 10.949 55.7051 11.3125 56.0684C11.6756 56.4316 12.1795 56.6406 12.6934 56.6406C13.207 56.6406 13.7109 56.4316 14.074 56.0684C14.4373 55.7051 14.6465 55.2031 14.6465 54.6875C14.6465 54.1738 14.4375 53.6699 14.074 53.3066Z" fill="#01058A"/>
<path d="M52.1484 52.7344H21.2891C20.2105 52.7344 19.3359 53.6088 19.3359 54.6875C19.3359 55.7662 20.2105 56.6406 21.2891 56.6406H52.1484C53.227 56.6406 54.1016 55.7662 54.1016 54.6875C54.1016 53.6088 53.227 52.7344 52.1484 52.7344Z" fill="#01058A"/>
<path d="M22.94 23.4004H12.5C11.4215 23.4004 10.5469 24.2748 10.5469 25.3535C10.5469 26.4322 11.4215 27.3066 12.5 27.3066H15.767V41.915C15.767 42.9937 16.6416 43.8682 17.7201 43.8682C18.7986 43.8682 19.6732 42.9937 19.6732 41.915V27.3066H22.9402C24.0188 27.3066 24.8934 26.4322 24.8934 25.3535C24.8934 24.2748 24.0188 23.4004 22.94 23.4004Z" fill="#01058A"/>
<path d="M42.5358 41.1531L35.5547 24.716C35.2485 23.9947 34.5407 23.5264 33.7571 23.5264C32.9735 23.5264 32.2657 23.9947 31.9594 24.716L24.9782 41.1531C24.5565 42.1461 25.0196 43.2928 26.0124 43.7143C26.2614 43.8201 26.5204 43.8701 26.7749 43.8701C27.535 43.8701 28.2577 43.4236 28.5735 42.6801L29.8221 39.7406H37.692L38.9405 42.6801C39.3622 43.673 40.5087 44.1361 41.5016 43.7143C42.4944 43.2926 42.9575 42.1459 42.5358 41.1531ZM31.4811 35.8346L33.7571 30.4758L36.0331 35.8346H31.4811Z" fill="#01058A"/>
<path d="M53.9435 33.6384L58.5355 26.3978C59.113 25.487 58.8429 24.2802 57.932 23.7025C57.0209 23.1245 55.814 23.3951 55.2365 24.3058L51.6306 29.9915L48.0248 24.3058C47.447 23.3951 46.2406 23.1247 45.3292 23.7025C44.4183 24.2802 44.1482 25.487 44.7257 26.398L49.3177 33.6386L44.7257 40.879C44.1482 41.79 44.4183 42.9968 45.3292 43.5745C45.6537 43.7804 46.0158 43.8787 46.3734 43.8787C47.0201 43.8787 47.6529 43.5577 48.0248 42.9712L51.6306 37.2855L55.2365 42.9712C55.6085 43.5577 56.2412 43.8787 56.8878 43.8787C57.2455 43.8787 57.6076 43.7804 57.932 43.5745C58.8429 42.9968 59.113 41.79 58.5355 40.879L53.9435 33.6384Z" fill="#01058A"/>
<path d="M94.7266 44.5191H63.8672C60.9594 44.5191 58.5938 46.8848 58.5938 49.7926V94.7266C58.5938 95.1994 58.6572 95.6574 58.7746 96.0938H5.85938C4.78242 96.0938 3.90625 95.2176 3.90625 94.1406V5.85938C3.90625 4.78242 4.78242 3.90625 5.85938 3.90625H61.1328V15.7943C61.1328 19.0531 63.784 21.7045 67.043 21.7045H78.9062V37.7875C78.9062 38.8662 79.7809 39.7406 80.8594 39.7406C81.9379 39.7406 82.8125 38.8662 82.8125 37.7875V19.7514C82.8109 19.7516 82.8094 19.7516 82.8078 19.7518C82.8078 19.2436 82.6139 18.7439 82.2404 18.3703L64.467 0.596875C64.0916 0.221484 63.5889 0.0279297 63.0779 0.0298828C63.0811 0.0193359 63.0828 0.0105469 63.0859 0H5.85938C2.62852 0 0 2.62852 0 5.85938V94.1406C0 97.3715 2.62852 100 5.85938 100H94.7266C97.6344 100 100 97.6344 100 94.7266V49.7926C100 46.8848 97.6344 44.5191 94.7266 44.5191ZM65.0391 6.69316L76.1439 17.7982H67.043C65.9381 17.7982 65.0391 16.8992 65.0391 15.7943V6.69316ZM96.0938 94.7266C96.0938 95.4805 95.4803 96.0938 94.7266 96.0938H63.8672C63.1135 96.0938 62.5 95.4805 62.5 94.7266V49.7926C62.5 49.0387 63.1135 48.4254 63.8672 48.4254H94.7266C95.4803 48.4254 96.0938 49.0387 96.0938 49.7926V94.7266Z" fill="#01058A"/>
<path d="M90.2344 52.332H68.3594C67.2809 52.332 66.4062 53.2064 66.4062 54.2852V62.0977C66.4062 63.1764 67.2809 64.0508 68.3594 64.0508H90.2344C91.3129 64.0508 92.1875 63.1764 92.1875 62.0977V54.2852C92.1875 53.2064 91.3129 52.332 90.2344 52.332ZM88.2812 60.1445H70.3125V56.2383H88.2812V60.1445Z" fill="#01058A"/>
<path d="M70.7031 69.5195H68.3594C67.2809 69.5195 66.4062 70.3939 66.4062 71.4727C66.4062 72.5514 67.2809 73.4258 68.3594 73.4258H70.7031C71.7816 73.4258 72.6562 72.5514 72.6562 71.4727C72.6562 70.3939 71.7816 69.5195 70.7031 69.5195Z" fill="#01058A"/>
<path d="M80.4688 69.5195H78.125C77.0465 69.5195 76.1719 70.3939 76.1719 71.4727C76.1719 72.5514 77.0465 73.4258 78.125 73.4258H80.4688C81.5473 73.4258 82.4219 72.5514 82.4219 71.4727C82.4219 70.3939 81.5473 69.5195 80.4688 69.5195Z" fill="#01058A"/>
<path d="M90.2344 69.5195H87.8906C86.8121 69.5195 85.9375 70.3939 85.9375 71.4727C85.9375 72.5514 86.8121 73.4258 87.8906 73.4258H90.2344C91.3129 73.4258 92.1875 72.5514 92.1875 71.4727C92.1875 70.3939 91.3129 69.5195 90.2344 69.5195Z" fill="#01058A"/>
<path d="M70.7031 78.8945H68.3594C67.2809 78.8945 66.4062 79.7689 66.4062 80.8477C66.4062 81.9264 67.2809 82.8008 68.3594 82.8008H70.7031C71.7816 82.8008 72.6562 81.9264 72.6562 80.8477C72.6562 79.7689 71.7816 78.8945 70.7031 78.8945Z" fill="#01058A"/>
<path d="M80.4688 78.8945H78.125C77.0465 78.8945 76.1719 79.7689 76.1719 80.8477C76.1719 81.9264 77.0465 82.8008 78.125 82.8008H80.4688C81.5473 82.8008 82.4219 81.9264 82.4219 80.8477C82.4219 79.7689 81.5473 78.8945 80.4688 78.8945Z" fill="#01058A"/>
<path d="M90.2344 78.8945H87.8906C86.8121 78.8945 85.9375 79.7689 85.9375 80.8477C85.9375 81.9264 86.8121 82.8008 87.8906 82.8008H90.2344C91.3129 82.8008 92.1875 81.9264 92.1875 80.8477C92.1875 79.7689 91.3129 78.8945 90.2344 78.8945Z" fill="#01058A"/>
<path d="M70.7031 88.2695H68.3594C67.2809 88.2695 66.4062 89.1439 66.4062 90.2227C66.4062 91.3014 67.2809 92.1758 68.3594 92.1758H70.7031C71.7816 92.1758 72.6562 91.3014 72.6562 90.2227C72.6562 89.1439 71.7816 88.2695 70.7031 88.2695Z" fill="#01058A"/>
<path d="M80.4688 88.2695H78.125C77.0465 88.2695 76.1719 89.1439 76.1719 90.2227C76.1719 91.3014 77.0465 92.1758 78.125 92.1758H80.4688C81.5473 92.1758 82.4219 91.3014 82.4219 90.2227C82.4219 89.1439 81.5473 88.2695 80.4688 88.2695Z" fill="#01058A"/>
<path d="M90.2344 88.2695H87.8906C86.8121 88.2695 85.9375 89.1439 85.9375 90.2227C85.9375 91.3014 86.8121 92.1758 87.8906 92.1758H90.2344C91.3129 92.1758 92.1875 91.3014 92.1875 90.2227C92.1875 89.1439 91.3129 88.2695 90.2344 88.2695Z" fill="#01058A"/>
</g>
<defs>
<clipPath id="clip0_8_2950">
<rect width="100" height="100" fill="white"/>
</clipPath>
</defs>
</svg>
