<svg width="3" height="14" viewBox="0 0 3 14" fill="none" xmlns="http://www.w3.org/2000/svg">
<path d="M0 12.6C0 12.2287 0.158035 11.8726 0.43934 11.6101C0.720644 11.3475 1.10218 11.2 1.5 11.2C1.89782 11.2 2.27936 11.3475 2.56066 11.6101C2.84196 11.8726 3 12.2287 3 12.6C3 12.9713 2.84196 13.3274 2.56066 13.59C2.27936 13.8525 1.89782 14 1.5 14C1.10218 14 0.720644 13.8525 0.43934 13.59C0.158035 13.3274 0 12.9713 0 12.6ZM0 7C0 6.6287 0.158035 6.2726 0.43934 6.01005C0.720644 5.7475 1.10218 5.6 1.5 5.6C1.89782 5.6 2.27936 5.7475 2.56066 6.01005C2.84196 6.2726 3 6.6287 3 7C3 7.3713 2.84196 7.7274 2.56066 7.98995C2.27936 8.2525 1.89782 8.4 1.5 8.4C1.10218 8.4 0.720644 8.2525 0.43934 7.98995C0.158035 7.7274 0 7.3713 0 7ZM0 1.4C0 1.0287 0.158035 0.672601 0.43934 0.410051C0.720644 0.1475 1.10218 0 1.5 0C1.89782 0 2.27936 0.1475 2.56066 0.410051C2.84196 0.672601 3 1.0287 3 1.4C3 1.7713 2.84196 2.1274 2.56066 2.38995C2.27936 2.6525 1.89782 2.8 1.5 2.8C1.10218 2.8 0.720644 2.6525 0.43934 2.38995C0.158035 2.1274 0 1.7713 0 1.4Z" fill="#808AAC"/>
</svg>
